<svg width="1132" height="566" viewBox="0 0 1132 566" fill="none" xmlns="http://www.w3.org/2000/svg">
<g filter="url(#filter0_f_30_142)">
<path d="M1066.9 97.4412C1061.63 89.7378 1064.27 81.1555 1066.9 77.0194C1069.49 72.8834 1077.87 76.5024 1083.14 80.7936C1088.41 85.0847 1090.69 77.4847 1093.53 91.599C1096.37 105.765 1082.1 211.7 1079.62 224.935C1077.14 238.222 1068.97 236.826 1065.41 237.395C1061.84 237.964 1062.3 248.304 1058.27 252.181C1054.24 256.059 1038.16 254.508 1021.41 257.403C1004.66 260.298 967.898 252.026 963.917 245.667C955.903 232.949 963.917 194.949 963.762 169.822C963.555 144.696 960.401 134.2 963.555 84.7745C961.797 69.0575 980.771 64.7664 987.803 76.7609C994.834 88.7555 986.717 95.3731 980.875 108.092C975.033 120.81 975.756 145.988 977.411 164.549C979.117 183.057 977.411 207.874 986.045 212.734C994.731 217.593 1006.73 229.847 1006.73 229.847C1006.73 229.847 1042.24 236.93 1059.25 219.248C1076.21 201.566 1071.82 178.094 1077.3 134.459C1079.98 113.262 1072.28 105.093 1067.01 97.3895L1066.9 97.4412Z" fill="#70F7FF"/>
<path d="M135.88 157.465C137.276 139.732 90.4351 91.392 32.1167 115.536C32.1167 115.536 24.7752 127.634 17.899 170.339C6.3181 242.823 -1.95401 299.28 25.0337 300.883C52.0215 302.486 57.7085 294.42 63.3956 294.42C69.0827 294.42 61.9997 325.027 79.0092 318.616C96.0704 312.154 114.528 283.201 141.515 270.276C168.503 257.351 377.425 221.936 405.809 225.142C434.244 228.347 420.027 244.478 447.014 244.478C474.002 244.478 472.606 205.806 482.533 175.199C492.459 144.592 486.772 107.523 486.772 97.8546C486.772 88.1866 452.65 54.3227 427.058 46.309C401.466 38.2437 412.84 10.8941 378.77 20.5104C344.647 30.1784 246.623 20.5104 222.479 20.5104C198.334 20.5104 93.1235 44.6546 76.0623 41.4492C76.0623 41.4492 20.6392 52.7199 34.8569 68.8505C49.0745 84.9811 60.4487 91.392 87.4364 78.5186C114.424 65.5934 321.899 36.5893 384.405 57.5798C446.911 78.5186 466.661 96.5104 447.687 128.255C438.691 143.299 446.653 162.997 423.542 155.087C409.325 150.279 426.386 143.816 363.88 138.957C105.325 118.948 148.65 169.408 129.417 180.317C106.669 193.242 134.329 175.199 135.777 157.465H135.828H135.88Z" fill="#70F7FF"/>
<path d="M515.569 429.514C509.365 425.429 487.599 429.617 476.897 439.388C466.195 449.108 455.079 463.067 424.059 460.276C360.312 454.588 326.707 464.153 299.564 436.442C272.421 408.73 266.372 384.379 278.212 380.657C290.051 376.986 487.186 416.02 500.886 410.023C514.587 404.025 538.214 294.575 517.069 283.356C455.493 250.836 399.191 265.312 362.794 267.794C326.397 270.327 250.19 260.608 232.405 275.446C223.512 282.891 235.248 345.965 240.935 374.556C246.622 403.146 245.795 430.91 251.792 437.527C257.79 444.145 272.731 442.491 273.817 448.539C274.903 454.588 273.662 468.806 293.101 471.96C312.541 475.062 467.384 490.572 487.651 484.523C507.918 478.422 501.352 459.914 507.142 450.401C512.932 440.939 521.825 433.495 515.569 429.359V429.514ZM302.563 309.982C308.87 294.678 344.957 295.506 371.686 290.956C398.416 286.458 434.864 283.097 453.787 292.093C472.709 301.089 467.746 375.745 450.323 386.395C432.952 397.046 415.839 385.775 388.592 378.33C361.294 370.885 302.769 363.233 293.308 358.735C283.847 354.237 279.556 346.999 279.556 346.999C277.436 334.074 296.255 325.285 302.563 309.93V309.982Z" fill="#70F7FF"/>
<path d="M735.089 460.277C731.935 456.037 717.2 471.651 712.495 485.403C707.791 499.155 714.202 506.238 699.26 507.324C668.55 509.496 652.885 526.402 638.77 495.691C624.604 464.981 620.675 435.357 626.207 428.998C631.687 422.638 727.54 442.75 733.848 433.237C740.155 423.724 746.411 286.149 736.174 272.396C725.989 258.644 683.181 274.981 665.913 283.46C648.645 291.939 610.955 276.894 603.097 298.092C599.168 308.69 604.183 392.032 608.112 426.981C612.041 461.879 602.787 460.225 605.94 467.67C609.094 475.063 615.04 500.81 615.815 508.255C616.591 515.648 612.765 533.95 622.174 535.036C631.584 536.07 721.285 539.223 730.694 528.625C740.104 518.026 736.174 495.795 738.553 483.128C740.879 470.41 738.242 464.619 735.089 460.432V460.277ZM663.121 360.494C665.448 340.383 654.487 312.568 667.051 303.107C679.614 293.594 696.934 284.029 706.343 292.508C715.753 300.987 716.528 395.185 708.67 411.058C700.811 426.93 692.177 415.297 678.787 410.024C665.448 404.698 660.691 380.658 663.07 360.546L663.121 360.494Z" fill="#70F7FF"/>
<path d="M992.764 476.045C1006.15 476.045 987.904 486.643 992.764 499.517C997.623 512.39 991.006 519.008 1006.41 519.99C1038 522.007 1054.13 537.827 1068.66 509.133C1083.24 480.439 1087.27 452.728 1081.59 446.782C1075.9 440.837 977.253 459.656 970.791 450.711C964.328 441.819 921.417 296.385 931.912 283.563C942.407 270.69 1075.23 296.282 1093.01 304.192C1117.41 308.483 1133.96 353.307 1119.17 363.389C1092.75 381.329 1129.56 373.729 1100.15 384.793C1086.34 389.963 1043.02 383.863 1021.41 391.928C1000.83 391.928 987.852 396.271 978.184 385.672C957.349 362.769 967.999 305.795 963.76 303.571C959.52 301.348 952.179 293.438 954.505 314.377C960.658 360.701 979.787 425.792 982.837 433.34C986.87 443.215 1104.18 412.194 1100.09 444.818C1096.06 477.441 1105.57 475.941 1102.32 482.818C1099.06 489.745 1092.96 513.786 1092.18 520.766C1091.41 527.694 1095.34 544.807 1085.62 545.789C1075.9 546.771 983.613 549.718 973.893 539.792C964.173 529.917 968.206 509.133 965.828 497.242C963.398 485.351 961.692 475.993 969.395 475.993H992.66L992.764 476.045Z" fill="#70F7FF"/>
<path d="M579.99 12.7548C570.322 20.9752 577.871 61.1466 567.22 73.1929C556.57 85.2391 560.809 133.631 550.211 169.925C539.56 206.219 545.971 215.887 535.321 223.125C524.671 230.363 503.163 194.121 490.6 213.457C476.486 235.223 476.641 253.215 492.72 259.419C506.834 264.847 524.671 252.181 531.03 259.419C537.441 266.657 533.15 281.185 537.441 295.712C541.68 310.24 544.782 315.617 544.782 354.289C544.782 392.961 546.178 394.874 533.408 416.589C520.638 438.355 521.103 464.98 520.173 485.402C518.622 519.214 512.366 514.148 527.256 519.008C542.145 523.816 569.857 538.344 582.575 535.914C595.345 533.484 579.939 510.115 569.34 481.111C558.69 452.107 573.579 276.376 571.46 261.849C569.34 247.321 616.181 273.947 624.66 259.419C633.139 244.891 622.54 220.695 618.249 213.457C614.009 206.219 584.178 235.223 577.819 220.695C571.46 206.167 586.298 87.6691 590.589 78.001C594.88 68.333 662.97 61.0949 665.09 70.763C667.209 80.431 673.569 90.099 690.63 90.099C707.691 90.099 718.29 29.6609 709.759 22.3712C701.28 15.1331 596.948 -1.82475 579.939 12.7031L579.99 12.7548Z" fill="#70F7FF"/>
<path d="M790.462 535.966C783.431 525.781 803.077 489.022 796.201 474.856C789.376 460.741 808.247 415.245 808.816 377.865C809.333 340.486 834.149 238.687 825.825 229.174C817.501 219.713 801.888 221.574 795.425 200.015C788.084 175.716 792.478 173.027 810.263 170.959C825.825 169.15 840.612 216.766 849.142 211.337C857.673 205.909 888.28 93.9253 893.605 74.1239C902.342 41.294 876.233 38.2954 892.467 37.2096C908.65 36.1239 940.446 28.7824 952.285 34.1593C964.176 39.5362 941.893 58.3035 922.505 83.6368C903.169 108.97 880.007 187.297 873.441 200.687C866.927 214.129 928.451 193.811 932.432 209.786C936.413 225.762 929.588 228.088 923.178 234.034C916.767 239.98 877.939 229.329 867.237 241.737C856.484 254.146 819.621 465.55 820.862 475.838C822.154 486.126 934.293 603.745 903.169 420.88C901.515 411.16 917.49 404.336 934.293 408.369C951.096 412.401 932.329 552.717 921.73 557.628C911.131 562.54 802.87 554.009 790.462 536.017H790.41L790.462 535.966Z" fill="#70F7FF"/>
<path d="M805.092 152.088C815.381 154.156 810.314 143.196 810.314 134.975C810.314 126.755 809.642 121.843 805.092 115.639C800.491 109.435 769.16 93.718 756.752 95.0622C744.344 96.4065 728.679 90.9779 719.528 95.7343C710.377 100.543 697.968 112.175 685.56 136.216C673.152 160.205 668.602 173.906 673.824 189.002C679.046 204.099 692.747 239.049 697.968 243.185C703.19 247.269 739.122 254.817 754.787 257.557C770.453 260.298 768.643 262.366 776.502 256.213C784.36 250.061 795.424 237.032 800.025 236.308C804.627 235.636 801.835 231.5 801.835 226.02C801.835 220.54 785.653 215.059 783.74 221.212C781.775 227.416 778.518 236.981 770.66 243.133C762.853 249.337 739.122 252.025 716.27 223.9C710.739 217.127 684.268 192.363 683.596 163.566C682.975 134.768 714.306 112.175 740.415 106.643C766.523 101.163 790.047 119.672 798.578 132.028C807.057 144.385 788.134 148.624 805.144 152.088H805.092Z" fill="#70F7FF"/>
</g>
<path d="M1066.9 97.4412C1061.63 89.7378 1064.27 81.1555 1066.9 77.0194C1069.49 72.8834 1077.87 76.5024 1083.14 80.7936C1088.41 85.0847 1090.69 77.4847 1093.53 91.599C1096.37 105.765 1082.1 211.7 1079.62 224.935C1077.14 238.222 1068.97 236.826 1065.41 237.395C1061.84 237.964 1062.3 248.304 1058.27 252.181C1054.24 256.059 1038.16 254.508 1021.41 257.403C1004.66 260.298 967.898 252.026 963.917 245.667C955.903 232.949 963.917 194.949 963.762 169.822C963.555 144.696 960.401 134.2 963.555 84.7745C961.797 69.0575 980.771 64.7664 987.803 76.7609C994.834 88.7555 986.717 95.3731 980.875 108.092C975.033 120.81 975.756 145.988 977.411 164.549C979.117 183.057 977.411 207.874 986.045 212.734C994.731 217.593 1006.73 229.847 1006.73 229.847C1006.73 229.847 1042.24 236.93 1059.25 219.248C1076.21 201.566 1071.82 178.094 1077.3 134.459C1079.98 113.262 1072.28 105.093 1067.01 97.3895L1066.9 97.4412Z" fill="#11FFE2"/>
<path d="M135.88 157.465C137.276 139.732 90.4351 91.392 32.1167 115.536C32.1167 115.536 24.7752 127.634 17.899 170.339C6.3181 242.823 -1.95401 299.28 25.0337 300.883C52.0215 302.486 57.7085 294.42 63.3956 294.42C69.0827 294.42 61.9997 325.027 79.0092 318.616C96.0704 312.154 114.528 283.201 141.515 270.276C168.503 257.351 377.425 221.936 405.809 225.142C434.244 228.347 420.027 244.478 447.014 244.478C474.002 244.478 472.606 205.806 482.533 175.199C492.459 144.592 486.772 107.523 486.772 97.8546C486.772 88.1866 452.65 54.3227 427.058 46.309C401.466 38.2437 412.84 10.8941 378.77 20.5104C344.647 30.1784 246.623 20.5104 222.479 20.5104C198.334 20.5104 93.1235 44.6546 76.0623 41.4492C76.0623 41.4492 20.6392 52.7199 34.8569 68.8505C49.0745 84.9811 60.4487 91.392 87.4364 78.5186C114.424 65.5934 321.899 36.5893 384.405 57.5798C446.911 78.5186 466.661 96.5104 447.687 128.255C438.691 143.299 446.653 162.997 423.542 155.087C409.325 150.279 426.386 143.816 363.88 138.957C105.325 118.948 148.65 169.408 129.417 180.317C106.669 193.242 134.329 175.199 135.777 157.465H135.828H135.88Z" fill="#11FFE2"/>
<path d="M515.569 429.514C509.365 425.429 487.599 429.617 476.897 439.388C466.195 449.108 455.079 463.067 424.059 460.276C360.312 454.588 326.707 464.153 299.564 436.442C272.421 408.73 266.372 384.379 278.212 380.657C290.051 376.986 487.186 416.02 500.886 410.023C514.587 404.025 538.214 294.575 517.069 283.356C455.493 250.836 399.191 265.312 362.794 267.794C326.397 270.327 250.19 260.608 232.405 275.446C223.512 282.891 235.248 345.965 240.935 374.556C246.622 403.146 245.795 430.91 251.792 437.527C257.79 444.145 272.731 442.491 273.817 448.539C274.903 454.588 273.662 468.806 293.101 471.96C312.541 475.062 467.384 490.572 487.651 484.523C507.918 478.422 501.352 459.914 507.142 450.401C512.932 440.939 521.825 433.495 515.569 429.359V429.514ZM302.563 309.982C308.87 294.678 344.957 295.506 371.686 290.956C398.416 286.458 434.864 283.097 453.787 292.093C472.709 301.089 467.746 375.745 450.323 386.395C432.952 397.046 415.839 385.775 388.592 378.33C361.294 370.885 302.769 363.233 293.308 358.735C283.847 354.237 279.556 346.999 279.556 346.999C277.436 334.074 296.255 325.285 302.563 309.93V309.982Z" fill="#11FFE2"/>
<path d="M735.089 460.277C731.935 456.037 717.2 471.651 712.495 485.403C707.791 499.155 714.202 506.238 699.26 507.324C668.55 509.496 652.885 526.402 638.77 495.691C624.604 464.981 620.675 435.357 626.207 428.998C631.687 422.638 727.54 442.75 733.848 433.237C740.155 423.724 746.411 286.149 736.174 272.396C725.989 258.644 683.181 274.981 665.913 283.46C648.645 291.939 610.955 276.894 603.097 298.092C599.168 308.69 604.183 392.032 608.112 426.981C612.041 461.879 602.787 460.225 605.94 467.67C609.094 475.063 615.04 500.81 615.815 508.255C616.591 515.648 612.765 533.95 622.174 535.036C631.584 536.07 721.285 539.223 730.694 528.625C740.104 518.026 736.174 495.795 738.553 483.128C740.879 470.41 738.242 464.619 735.089 460.432V460.277ZM663.121 360.494C665.448 340.383 654.487 312.568 667.051 303.107C679.614 293.594 696.934 284.029 706.343 292.508C715.753 300.987 716.528 395.185 708.67 411.058C700.811 426.93 692.177 415.297 678.787 410.024C665.448 404.698 660.691 380.658 663.07 360.546L663.121 360.494Z" fill="#11FFE2"/>
<path d="M992.764 476.045C1006.15 476.045 987.904 486.643 992.764 499.517C997.623 512.39 991.006 519.008 1006.41 519.99C1038 522.007 1054.13 537.827 1068.66 509.133C1083.24 480.439 1087.27 452.728 1081.59 446.782C1075.9 440.837 977.253 459.656 970.791 450.711C964.328 441.819 921.417 296.385 931.912 283.563C942.407 270.69 1075.23 296.282 1093.01 304.192C1117.41 308.483 1133.96 353.307 1119.17 363.389C1092.75 381.329 1129.56 373.729 1100.15 384.793C1086.34 389.963 1043.02 383.863 1021.41 391.928C1000.83 391.928 987.852 396.271 978.184 385.672C957.349 362.769 967.999 305.795 963.76 303.571C959.52 301.348 952.179 293.438 954.505 314.377C960.658 360.701 979.787 425.792 982.837 433.34C986.87 443.215 1104.18 412.194 1100.09 444.818C1096.06 477.441 1105.57 475.941 1102.32 482.818C1099.06 489.745 1092.96 513.786 1092.18 520.766C1091.41 527.694 1095.34 544.807 1085.62 545.789C1075.9 546.771 983.613 549.718 973.893 539.792C964.173 529.917 968.206 509.133 965.828 497.242C963.398 485.351 961.692 475.993 969.395 475.993H992.66L992.764 476.045Z" fill="#11FFE2"/>
<path d="M579.99 12.7548C570.322 20.9752 577.871 61.1466 567.22 73.1929C556.57 85.2391 560.809 133.631 550.211 169.925C539.56 206.219 545.971 215.887 535.321 223.125C524.671 230.363 503.163 194.121 490.6 213.457C476.486 235.223 476.641 253.215 492.72 259.419C506.834 264.847 524.671 252.181 531.03 259.419C537.441 266.657 533.15 281.185 537.441 295.712C541.68 310.24 544.782 315.617 544.782 354.289C544.782 392.961 546.178 394.874 533.408 416.589C520.638 438.355 521.103 464.98 520.173 485.402C518.622 519.214 512.366 514.148 527.256 519.008C542.145 523.816 569.857 538.344 582.575 535.914C595.345 533.484 579.939 510.115 569.34 481.111C558.69 452.107 573.579 276.376 571.46 261.849C569.34 247.321 616.181 273.947 624.66 259.419C633.139 244.891 622.54 220.695 618.249 213.457C614.009 206.219 584.178 235.223 577.819 220.695C571.46 206.167 586.298 87.6691 590.589 78.001C594.88 68.333 662.97 61.0949 665.09 70.763C667.209 80.431 673.569 90.099 690.63 90.099C707.691 90.099 718.29 29.6609 709.759 22.3712C701.28 15.1331 596.948 -1.82475 579.939 12.7031L579.99 12.7548Z" fill="#11FFE2"/>
<path d="M790.462 535.966C783.431 525.781 803.077 489.022 796.201 474.856C789.376 460.741 808.247 415.245 808.816 377.865C809.333 340.486 834.149 238.687 825.825 229.174C817.501 219.713 801.888 221.574 795.425 200.015C788.084 175.716 792.478 173.027 810.263 170.959C825.825 169.15 840.612 216.766 849.142 211.337C857.673 205.909 888.28 93.9253 893.605 74.1239C902.342 41.294 876.233 38.2954 892.467 37.2096C908.65 36.1239 940.446 28.7824 952.285 34.1593C964.176 39.5362 941.893 58.3035 922.505 83.6368C903.169 108.97 880.007 187.297 873.441 200.687C866.927 214.129 928.451 193.811 932.432 209.786C936.413 225.762 929.588 228.088 923.178 234.034C916.767 239.98 877.939 229.329 867.237 241.737C856.484 254.146 819.621 465.55 820.862 475.838C822.154 486.126 934.293 603.745 903.169 420.88C901.515 411.16 917.49 404.336 934.293 408.369C951.096 412.401 932.329 552.717 921.73 557.628C911.131 562.54 802.87 554.009 790.462 536.017H790.41L790.462 535.966Z" fill="#11FFE2"/>
<path d="M805.092 152.088C815.381 154.156 810.314 143.196 810.314 134.975C810.314 126.755 809.642 121.843 805.092 115.639C800.491 109.435 769.16 93.718 756.752 95.0622C744.344 96.4065 728.679 90.9779 719.528 95.7343C710.377 100.543 697.968 112.175 685.56 136.216C673.152 160.205 668.602 173.906 673.824 189.002C679.046 204.099 692.747 239.049 697.968 243.185C703.19 247.269 739.122 254.817 754.787 257.557C770.453 260.298 768.643 262.366 776.502 256.213C784.36 250.061 795.424 237.032 800.025 236.308C804.627 235.636 801.835 231.5 801.835 226.02C801.835 220.54 785.653 215.059 783.74 221.212C781.775 227.416 778.518 236.981 770.66 243.133C762.853 249.337 739.122 252.025 716.27 223.9C710.739 217.127 684.268 192.363 683.596 163.566C682.975 134.768 714.306 112.175 740.415 106.643C766.523 101.163 790.047 119.672 798.578 132.028C807.057 144.385 788.134 148.624 805.144 152.088H805.092Z" fill="#11FFE2"/>
<defs>
<filter id="filter0_f_30_142" x="0.521129" y="0.521129" width="1130.72" height="564.958" filterUnits="userSpaceOnUse" color-interpolation-filters="sRGB">
<feFlood flood-opacity="0" result="BackgroundImageFix"/>
<feBlend mode="normal" in="SourceGraphic" in2="BackgroundImageFix" result="shape"/>
<feGaussianBlur stdDeviation="3.23944" result="effect1_foregroundBlur_30_142"/>
</filter>
</defs>
</svg>
