<svg width="266" height="991" viewBox="0 0 266 991" fill="none" xmlns="http://www.w3.org/2000/svg">
<path d="M254.716 426.019C254.817 425.756 254.923 425.493 255.024 425.23C254.716 425.412 254.614 425.675 254.716 426.019Z" fill="#11FFE2"/>
<path d="M233.002 499.454C236.469 494.48 238.987 489.106 239.927 483.07C240.134 482.641 240.342 482.211 240.544 481.786C240.837 480.72 241.13 479.648 241.424 478.581C243.127 470.523 244.831 462.461 246.534 454.403C246.691 453.548 246.848 452.694 247.004 451.84C247.252 451.37 247.5 450.899 247.748 450.429C249.461 446.729 251.18 443.029 252.894 439.333C256.387 435.188 260.006 431.139 263.317 426.852C265.501 424.026 266.664 420.725 265.602 417.03C263.424 418.066 261.25 419.102 259.071 420.139C261.25 419.102 263.429 418.066 265.602 417.03C265.117 415.463 264.748 413.845 264.121 412.339C260.092 402.623 255.654 393.058 252.014 383.201C244.517 362.894 237.491 342.411 230.115 322.054C229.19 319.506 228.664 316.442 225.717 315.047C224.367 312.039 223.447 308.728 221.597 306.069C211.224 291.192 200.937 276.244 188.88 262.635C187.237 260.78 185.402 259.087 183.658 257.322C183.274 256.625 183.026 255.765 182.465 255.255C178.249 251.413 174.104 247.475 169.686 243.881C159.48 235.58 147.762 231.041 134.568 230.485C127.971 230.207 122.061 228.24 117.143 223.665C116.42 222.998 115.515 222.528 114.691 221.967C109.904 215.304 107.048 207.792 104.98 199.931C102.538 199.224 101.249 197.515 100.466 195.579C101.254 197.52 102.538 199.229 104.98 199.931C104.56 197.131 104.414 194.254 103.671 191.54C100.542 180.12 100.82 168.321 99.9956 156.695C99.2171 145.715 99.9046 134.639 99.7984 123.609C99.7833 121.91 98.9643 120.217 98.5144 118.523C98.5144 94.6022 98.5144 70.6863 98.4841 46.7653C98.4841 45.9464 98.2263 45.1224 98.0847 44.3035C97.7511 42.9639 97.4174 41.6192 97.0838 40.2796C96.8209 41.2603 96.5581 42.246 96.2952 43.2267C95.0061 43.2773 93.7171 43.3228 92.423 43.3733C92.4583 44.3641 92.4937 45.3499 92.5291 46.3407C92.5291 46.3407 92.5038 46.3407 92.4685 46.3306C92.5038 46.3357 92.5291 46.3407 92.5291 46.3407C92.4937 45.355 92.4583 44.3641 92.4179 43.3784C93.712 43.3278 95.0011 43.2823 96.2901 43.2318C96.553 42.2511 96.8159 41.2653 97.0787 40.2846C95.7189 37.57 94.3591 34.8605 92.9992 32.1458C92.0843 31.241 91.1642 30.3361 90.2492 29.4312C89.4101 28.9156 88.5709 28.4 87.7318 27.8793C84.82 24.6794 81.3673 25.7258 77.9349 26.6256C76.6458 26.9845 75.3618 27.3485 74.0728 27.7125C70.3724 27.6973 66.667 27.6821 62.9666 27.667C61.9556 27.1412 60.9445 26.6105 59.9335 26.0847C59.2258 25.5944 58.5181 25.104 57.8103 24.6187C56.4202 23.4662 55.0907 22.2276 53.6297 21.1762C49.0397 17.8853 44.4344 17.9257 39.7837 21.1762C38.0194 22.4096 36.1035 23.4409 34.1977 24.457C31.6449 25.8168 29.2134 25.7106 26.6453 24.1183C23.8903 22.4096 22.4344 19.9377 21.393 17.0512C20.66 15.019 19.9068 12.9919 19.1587 10.9597C18.1173 6.67294 15.6302 3.43259 11.9349 1.10722C9.32135 -0.535702 7.00103 -0.31833 4.53917 1.54702C0.479889 4.63572 -0.349155 8.84666 0.115919 13.6238C0.752868 20.1196 1.33421 26.6206 1.79423 33.1316C2.46151 42.4937 2.6991 51.8963 3.74047 61.2079C4.19037 65.2318 3.35627 69.6348 5.94957 73.315C6.77356 71.0452 7.59249 68.7704 8.41648 66.5007C7.59249 68.7704 6.77356 71.0452 5.95462 73.31C6.10122 82.0806 7.91097 90.5884 10.1706 99.0154C14.7203 115.986 19.2547 132.956 23.9459 149.885C24.78 152.903 26.342 155.724 27.5654 158.636C27.7474 159.278 27.9294 159.915 28.1063 160.552C28.2883 160.83 28.4652 161.113 28.6472 161.391C29.6734 164.338 30.4923 167.381 31.7763 170.212C33.8793 174.833 36.2855 179.316 38.5603 183.861C41.28 189.867 43.9946 195.877 46.7143 201.883C48.1196 205.27 49.4643 208.692 50.9505 212.043C57.4565 226.749 64.8623 241.06 70.2561 256.251C72.9303 257.555 74.7097 259.446 75.7915 261.796C74.7047 259.446 72.9253 257.555 70.2561 256.256C70.5999 259.542 71.0498 262.817 71.2672 266.108C71.798 274.267 72.1468 282.437 72.7079 290.59C72.991 294.721 73.5774 298.835 74.0273 302.955C73.3701 314.314 75.746 324.9 82.0397 334.494C82.5452 335.723 82.9143 337.032 83.5765 338.17C89.2382 347.86 94.9405 357.526 100.668 367.176C101.765 369.026 103.039 370.775 104.232 372.57C105.657 375.386 107.012 378.237 108.519 381.007C115.277 393.437 123.436 405.181 127.344 419.022C128.598 425.619 127.865 432.16 126.758 438.691C126.04 442.932 125.312 447.179 124.594 451.42C123.153 455.5 121.905 459.665 120.226 463.648C117.512 470.099 114.519 476.433 111.643 482.818C113.604 482.12 115.571 481.422 117.532 480.725C117.901 479.951 118.341 479.188 118.765 478.42C118.341 479.183 117.901 479.946 117.532 480.725C115.571 481.422 113.604 482.12 111.643 482.818L111.552 482.904C110.945 483.864 110.338 484.83 109.732 485.79C106.33 490.764 102.852 495.688 99.5356 500.718C95.3095 507.123 91.2047 513.614 87.0494 520.069C84.0517 524.76 81.059 529.451 78.0613 534.143C77.8136 534.501 77.5659 534.865 77.3233 535.224C76.6307 536.594 75.9331 537.964 75.2405 539.334C73.446 543.242 71.6565 547.149 69.8619 551.052C66.4496 556.011 65.4235 561.895 64.2759 567.532C62.0517 578.502 60.6918 589.643 58.8113 600.689C55.4749 620.297 57.8812 639.401 63.7098 658.211C64.1344 659.586 65.0393 660.815 65.7217 662.114C67.5011 670.798 71.6767 678.331 76.8683 685.377C77.0907 685.827 77.3132 686.277 77.5356 686.727C78.4253 688.072 79.315 689.411 80.2047 690.756L80.2654 690.812C83.531 696.772 87.2415 702.413 92.1399 707.19C92.1399 707.185 92.1399 707.175 92.1399 707.17C92.5292 707.802 92.9184 708.429 93.3127 709.061C95.6988 712.382 98.0797 715.703 100.466 719.025C103.423 723.62 106.38 728.215 109.338 732.805L109.429 733.184C109.813 733.851 110.197 734.519 110.581 735.191C111.208 736.207 111.835 737.223 112.462 738.239C112.78 738.654 113.104 739.073 113.422 739.488L113.351 739.407C113.776 740.317 114.201 741.227 114.62 742.142C115.08 743.021 115.464 743.941 116.005 744.765C124.7 758.096 133.415 771.416 142.125 784.742C142.621 785.318 143.121 785.894 143.617 786.475L143.601 786.753C144.006 787.456 144.41 788.159 144.815 788.867L144.82 788.882C145.174 789.807 145.472 790.762 145.896 791.657C150.042 800.433 154.197 809.198 158.367 817.964C160.152 821.71 161.982 825.435 163.792 829.176C163.933 830.162 163.948 831.183 164.236 832.129C167.421 842.633 170.646 853.123 173.856 863.612C174.22 864.481 174.584 865.346 174.943 866.22C174.958 866.68 174.974 867.14 174.989 867.601C174.251 869.102 174.655 870.295 175.964 871.245C175.985 871.72 176.01 872.191 176.03 872.666C176.141 874.157 176.136 875.669 176.379 877.14C177.85 886.001 179.326 894.863 180.929 903.699C181.394 906.257 182.278 908.739 182.976 911.257C183.805 920.578 187.126 929.248 190.038 938.019C190.169 938.418 190.771 938.656 191.15 938.969L191.13 939.303C191.484 940.172 191.838 941.042 192.191 941.911C194.259 947.158 196.17 952.476 198.465 957.618C199.658 960.292 201.538 962.663 203.111 965.17C205.921 969.71 208.732 974.244 211.543 978.783C211.907 979.385 212.265 979.982 212.629 980.583C213.282 981.316 213.929 982.054 214.581 982.787C214.909 983.156 215.238 983.52 215.572 983.889C215.865 984.218 216.158 984.546 216.451 984.875C221.37 991.386 226.748 992.104 232.279 986.543C234.695 984.112 236.591 981.058 238.31 978.051C241.939 971.696 245.351 965.215 248.743 958.725C250.038 956.243 251.028 953.599 252.156 951.026C252.56 950.495 252.964 949.969 253.369 949.438C253.546 948.766 253.723 948.089 253.905 947.416C254.168 946.451 254.43 945.485 254.688 944.52C255.214 943.317 255.74 942.108 256.265 940.905C256.715 940.218 257.459 939.576 257.565 938.838C258.48 932.549 259.931 926.25 259.966 919.947C260.016 910.22 259.132 900.479 258.525 890.753C258.161 884.894 257.848 879.005 257.039 873.202C255.462 861.898 253.652 850.625 251.751 839.368C250.159 829.935 248.334 820.542 246.539 811.145C246.362 810.204 245.715 809.355 245.286 808.465C244.29 805.109 243.607 801.621 242.243 798.421C236.596 785.222 230.767 772.094 224.934 758.975C223.725 756.261 222.189 753.693 220.804 751.059C218.741 746.363 216.674 741.672 214.611 736.98C214.611 736.98 214.662 737.056 214.662 737.051C214.662 737.051 214.651 737.031 214.636 737.016C214.646 737.036 214.662 737.051 214.662 737.051C214.303 736.48 213.939 735.914 213.58 735.343C210.981 730.111 208.383 724.883 205.78 719.656C204.435 717.179 203.348 714.505 201.69 712.261C195.341 703.672 188.84 695.189 182.324 686.722C179.392 682.911 176.293 679.22 173.27 675.474C173.23 676.364 173.159 677.259 173.108 678.149C173.154 677.259 173.23 676.364 173.27 675.474C169.544 670.505 165.819 665.531 162.098 660.562C159.055 659.889 156.012 659.212 152.969 658.54C155.537 661.987 158.11 665.43 160.662 668.888C164.727 674.393 168.751 679.923 172.861 685.393C173.639 686.429 174.751 687.213 175.707 688.112L175.868 688.011C176.288 688.658 176.713 689.31 177.132 689.957C177.395 690.291 177.658 690.63 177.916 690.963C178.674 691.954 179.437 692.945 180.196 693.936C183.274 698.096 186.292 702.307 189.447 706.407C196.635 715.744 202.317 725.985 207.215 736.632C216.38 756.544 225.303 776.572 234.22 796.596C236.323 801.322 238.026 806.231 239.912 811.054C240.008 811.736 240.104 812.424 240.2 813.106C240.65 814.638 241.1 816.169 241.55 817.706C241.661 818.55 241.767 819.39 241.879 820.234C242.167 821.887 242.455 823.54 242.743 825.188C242.89 825.87 243.036 826.548 243.183 827.23C243.324 828.039 243.471 828.843 243.612 829.651C243.693 830.395 243.774 831.133 243.855 831.876C244.072 833.028 244.29 834.176 244.502 835.328C244.568 836.638 244.517 837.962 244.725 839.246C246.544 850.63 248.728 861.969 250.169 873.399C251.296 882.346 251.453 891.41 252.186 900.408C252.358 902.486 253.126 904.513 253.622 906.561C253.657 907.743 253.692 908.921 253.723 910.104C253.561 910.741 253.197 911.408 253.273 912.015C255.396 929.051 249.79 944.05 241.161 958.27C238.638 962.425 236.348 966.727 233.689 970.786C230.646 975.432 226.511 978.248 220.591 977.232C221.85 977.58 223.109 977.934 224.373 978.283C223.104 977.929 221.85 977.58 220.591 977.232C214.702 972.753 210.916 966.646 207.382 960.322C206.826 959.326 206.043 958.462 205.36 957.537C204.941 959.225 204.925 961.035 204.425 962.698C204.925 961.03 204.941 959.225 205.36 957.537C203.313 952.598 201.311 947.644 199.208 942.73C195.573 934.238 192.707 925.512 190.837 916.459C190.65 915.549 189.962 914.745 189.507 913.89C189.381 913.259 189.254 912.632 189.128 912C188.85 910.428 188.577 908.861 188.299 907.288C188.137 906.53 187.97 905.777 187.809 905.019C187.298 904.357 186.788 903.694 186.272 903.027C186.782 903.689 187.293 904.351 187.804 905.014C186.818 898.568 185.827 892.128 184.846 885.683C182.081 867.575 177.607 849.852 171.657 832.573C168.068 822.155 163.225 812.166 158.913 802C158.731 801.575 158.226 801.287 157.872 800.933C157.397 800.498 156.821 800.124 156.376 799.674C156.826 800.124 157.402 800.498 157.872 800.933C155.85 796.727 154.172 792.314 151.745 788.351C144.319 776.208 136.595 764.248 129.017 752.196C123.042 742.693 117.32 733.022 111.102 723.68C104.788 714.197 98.1353 704.936 91.3918 695.751C83.9202 685.575 77.1464 675.05 72.7989 663.104C72.349 661.871 71.5604 660.759 70.9285 659.586C69.4221 653.661 67.9258 647.732 66.4042 641.807C65.843 639.628 65.2314 637.465 64.6399 635.291C64.4883 633.972 64.3366 632.647 64.19 631.328C62.9768 630.433 62.6987 629.432 62.8706 628.381C62.6987 629.432 62.9768 630.428 64.19 631.328C64.008 629.655 63.821 627.981 63.639 626.313C63.6491 621.197 63.6592 616.081 63.6693 610.966C63.5328 610.066 63.3104 609.166 63.1587 608.266C63.3104 609.166 63.5379 610.071 63.6693 610.966C64.4175 605.496 65.1656 600.026 65.9138 594.557C65.8734 593.945 65.838 593.338 65.7975 592.727C65.3021 593.197 64.4933 593.632 64.2456 594.132C64.4933 593.627 65.3021 593.197 65.7975 592.722C65.9189 592.484 66.0604 592.257 66.2222 592.049C66.3789 590.968 66.5356 589.881 66.6923 588.799C66.8086 587.803 66.9299 586.807 67.0462 585.811L67.0462 585.801C67.1068 585.028 67.1675 584.249 67.2281 583.476C67.2939 583.056 67.3596 582.637 67.4253 582.212C67.6022 580.23 67.486 578.148 67.7387 576.191C67.486 578.143 67.6022 580.23 67.4303 582.212C67.7842 581.661 68.3655 581.145 68.4616 580.554C70.0843 570.61 72.9405 561.006 76.3426 551.542C76.5094 551.082 76.4841 550.552 76.5549 550.061C76.6762 548.797 76.5043 547.387 76.8633 546.234C76.5043 547.387 76.6813 548.797 76.5599 550.066C80.4676 543.297 84.1629 536.387 88.3435 529.79C93.4239 521.768 98.9441 514.023 104.217 506.127C105.319 504.474 106.183 502.659 107.154 500.925C106.34 501.39 105.359 501.719 104.616 502.24C105.359 501.714 106.34 501.39 107.154 500.925C107.462 500.809 107.609 500.592 107.594 500.263C107.861 500.066 108.2 499.914 108.387 499.661C119.736 484.162 127.622 467.061 132.065 448.377C132.207 447.775 131.964 447.078 131.899 446.431C132.531 443.013 133.167 439.596 133.799 436.179C133.84 435.512 133.88 434.844 133.921 434.177C133.956 431.836 133.991 429.501 134.027 427.16C134.012 425.512 134.002 423.864 133.991 422.216C134.128 416.752 132.546 411.626 130.17 406.874C125.676 397.876 120.919 388.999 115.985 380.233C109.904 369.426 103.534 358.774 97.286 348.057C94.4147 343.134 91.508 338.23 88.667 333.286C83.1923 323.772 80.1895 313.632 80.5687 302.541C80.6546 299.993 79.871 297.42 79.4919 294.862C79.0016 285.414 78.5112 275.961 78.0209 266.513C77.7074 266.553 77.394 266.573 77.0806 266.573C77.394 266.573 77.7125 266.558 78.0209 266.513C77.576 262.721 77.6923 258.753 76.5801 255.164C72.354 241.55 66.3485 228.655 59.6808 216.072C57.7396 211.447 55.8945 206.771 53.837 202.196C49.985 193.633 46.0167 185.125 42.0585 176.612C41.7198 175.884 41.098 175.287 40.6077 174.635C38.8535 170.111 37.1196 165.577 35.3352 161.062C26.6504 139.123 21.2616 116.213 15.7717 93.3587C12.6325 80.286 10.6913 66.9607 10.115 53.4786C11.9652 46.0324 15.3623 44.0153 22.859 45.7695C24.4514 46.1436 26.1297 46.2194 27.7726 46.2598C29.1173 46.2902 30.5125 46.1132 30.6692 44.2782C31.4124 43.707 32.1504 43.1408 32.8935 42.5696L32.7874 42.3118C33.9248 41.1845 35.1431 40.1229 36.1895 38.9147C37.7161 37.1606 38.9749 35.1587 40.6077 33.5158C44.4597 29.6385 47.2855 29.4868 51.5217 32.7676C54.5498 35.1132 57.4919 37.57 60.5047 39.9358C62.8352 41.7658 65.4386 42.0641 68.0015 40.6082C70.8678 38.9804 73.5976 37.1049 76.388 35.3356C76.6964 35.4064 76.939 35.3154 77.1261 35.0627C77.758 34.3903 78.3899 33.8899 79.0268 33.5562C78.3899 33.8848 77.7529 34.3853 77.1261 35.0627C79.7851 35.1688 82.4441 35.2699 85.1031 35.3761C86.4629 36.7005 87.8228 38.025 89.1826 39.3494C89.1826 39.3494 89.1826 39.3444 89.1826 39.3393C89.5617 39.9257 89.9358 40.5121 90.315 41.1036L90.411 41.2704C90.9974 42.9436 91.5889 44.6169 92.1753 46.2902C92.1652 47.4528 92.155 48.6206 92.15 49.7833C92.15 49.7833 92.1399 49.9602 92.1399 49.9551C92.0186 51.1077 91.786 52.2653 91.786 53.423C91.7658 69.6197 91.7557 85.8164 91.8163 102.013C91.8265 104.318 92.2309 106.618 92.4482 108.918C91.6091 111.456 91.1187 113.963 93.0397 116.279C93.0801 116.87 93.1206 117.462 93.1661 118.053C93.1661 118.053 93.4138 118.134 93.5098 118.169L93.1661 118.053C93.065 124.397 92.8476 130.741 92.888 137.086C92.9234 142.621 93.3733 148.157 93.4037 153.692C93.4896 170.177 94.536 186.581 98.8127 202.555C101.269 211.735 103.934 220.875 111.112 228.023C116.693 233.578 123.31 236.141 130.781 237.102C134.098 237.532 137.469 237.542 140.821 237.739C141.508 237.86 142.196 237.976 142.883 238.098C144.193 238.416 145.502 238.735 146.806 239.053C156.74 242.127 164.909 248.072 172.547 254.871C173.538 255.75 174.569 256.579 175.585 257.434C176.991 257.707 178.431 258.627 179.776 257.975C178.426 258.627 176.991 257.707 175.585 257.439C180.585 263.288 185.918 268.889 190.523 275.036C200.077 287.8 209.364 300.772 218.498 313.844C221.051 317.494 222.674 321.796 224.721 325.795C224.873 326.234 225.025 326.674 225.176 327.114C226.046 327.346 226.43 327.786 226.587 328.327C226.435 327.786 226.046 327.346 225.176 327.114C225.636 328.175 226.096 329.242 226.551 330.304C226.551 330.299 226.541 330.294 226.536 330.289C227.815 333.969 229.089 337.644 230.368 341.319C230.484 341.658 230.6 341.996 230.717 342.335C230.858 343.154 230.884 344.013 231.157 344.787C234.513 354.28 237.88 363.769 241.302 373.242C243.183 378.449 245.185 383.61 247.136 388.792C247.475 389.489 247.818 390.182 248.157 390.88C248.304 391.501 248.45 392.118 248.597 392.735C249.861 396.314 250.69 400.125 252.484 403.416C255.917 409.695 257.357 416.145 256.053 423.187C255.719 423.869 255.381 424.552 255.047 425.234C254.946 425.497 254.84 425.76 254.739 426.023C254.481 426.453 254.218 426.882 253.955 427.312C253.854 429.733 253 432.084 252.636 434.48C253 432.084 253.854 429.728 253.955 427.312C253.617 427.631 253.278 427.949 252.944 428.267C252.737 428.53 252.53 428.793 252.322 429.056C244.623 438.534 240.281 449.347 238.684 461.465C237.834 467.915 236.015 474.239 234.634 480.624C234.549 480.922 234.463 481.215 234.382 481.513C234.447 481.453 234.498 481.387 234.543 481.321C234.503 481.387 234.447 481.453 234.382 481.513C233.821 482.813 233.265 484.117 232.703 485.416L232.703 485.401L232.552 485.36C232.552 485.36 232.693 485.416 232.693 485.421C232.415 486.235 232.137 487.054 231.859 487.873C224.701 502.791 214.924 516.04 205.512 529.532C204.572 530.882 203.914 532.434 203.126 533.89L203.196 534.006C200.856 534.951 199.678 536.796 199.208 539.177C198.591 539.895 197.975 540.613 197.363 541.331C194.962 544.586 192.566 547.842 190.164 551.098C189.558 551.896 188.946 552.695 188.334 553.489C188.334 553.489 188.319 553.514 188.319 553.519C184.331 559.181 180.302 564.817 176.374 570.524C175.085 572.4 174.043 574.447 172.891 576.414L173.012 576.505C172.112 577.617 171.213 578.724 170.318 579.836L170.217 579.952C169.848 580.569 169.484 581.186 169.115 581.803C168.852 582.131 168.584 582.455 168.321 582.783C168.543 585.963 168.543 589.062 167.487 591.766C168.543 589.057 168.543 585.963 168.321 582.783C164.368 588.672 160.329 594.506 156.502 600.476C155.021 602.791 154.005 605.405 152.787 607.887C152.352 608.635 151.912 609.378 151.477 610.126C146.832 615.434 144.329 621.753 142.752 628.517C141.2 635.2 142.105 641.468 145.851 647.272C145.982 647.661 146.114 648.05 146.24 648.445C146.736 649.218 147.236 649.991 147.731 650.765C149.475 653.353 151.225 655.941 152.969 658.53C156.012 659.202 159.055 659.879 162.098 660.552C160.344 658.201 158.585 655.845 156.831 653.495C156.649 653.479 156.482 653.449 156.325 653.414C156.477 653.454 156.644 653.479 156.831 653.495C156.229 652.711 155.633 651.922 155.031 651.139C155.001 650.82 154.839 650.608 154.546 650.492C153.99 649.491 153.434 648.495 152.878 647.494L152.857 647.459C152.22 645.755 151.685 644.006 150.931 642.358C148.353 636.742 148.51 631.075 150.603 625.403C151.745 622.299 153.095 619.271 154.349 616.208C154.965 615.46 155.673 614.772 156.179 613.958C161.289 605.794 166.319 597.58 171.465 589.436C175.009 583.825 178.694 578.304 182.314 572.739L182.263 572.739C182.566 572.364 182.87 571.996 183.173 571.621C184.538 569.62 185.908 567.613 187.273 565.611C187.541 565.272 187.809 564.933 188.077 564.59C188.334 564.438 188.446 564.216 188.4 563.917C188.713 563.452 189.022 562.987 189.335 562.522L189.537 562.355L189.492 562.103C191.408 559.418 193.329 556.734 195.245 554.055C199.309 548.808 203.505 543.661 207.392 538.288C210.688 533.738 213.63 528.926 216.724 524.234C216.709 524.239 216.699 524.25 216.684 524.255C217.043 523.901 217.401 523.542 217.765 523.188C221.456 517.637 225.141 512.087 228.831 506.531C228.816 505.95 228.861 505.399 228.958 504.883C228.861 505.399 228.821 505.95 228.831 506.531C230.186 504.282 231.536 502.032 232.89 499.788C232.729 499.879 232.567 499.975 232.415 500.076C232.572 499.98 232.729 499.884 232.89 499.788C232.89 499.788 233.022 499.459 233.022 499.454L233.002 499.454ZM7.5015 61.4607C7.25885 60.4446 6.85949 59.4285 6.62696 58.4124C6.85949 59.4234 7.25379 60.4446 7.5015 61.4556L7.5015 61.4607ZM241.848 815.391C241.838 815.598 241.813 815.81 241.777 816.028C241.813 815.816 241.838 815.603 241.848 815.391C241.879 814.769 241.767 814.183 241.272 813.718C241.767 814.188 241.879 814.769 241.848 815.391ZM243.703 826.254C244.103 825.213 243.901 824.202 242.97 823.221C242.935 822.685 242.9 822.145 242.864 821.604C242.9 822.145 242.935 822.68 242.97 823.221C243.901 824.197 244.098 825.208 243.698 826.249L243.703 826.254ZM245.513 836.304C245.619 836.441 245.7 836.582 245.731 836.734C245.695 836.582 245.619 836.441 245.513 836.304ZM77.0452 266.573C77.0149 266.285 76.9744 266.002 76.934 265.724C76.9795 266.002 77.0149 266.285 77.0452 266.573ZM75.8522 261.938C76.0746 262.443 76.2718 262.964 76.4386 263.505C76.2718 262.964 76.0797 262.438 75.8522 261.938ZM30.6187 44.2681C30.649 43.7575 30.7703 43.3683 30.9726 43.0751C30.7703 43.3632 30.649 43.7575 30.6187 44.2681ZM93.2874 108.898C93.2874 99.1923 93.2925 89.4864 93.2924 79.7805C93.2925 89.4864 93.2925 99.1923 93.2874 108.898ZM256.998 423.136C257.342 422.479 257.681 421.822 258.025 421.16C258.025 421.16 258.05 421.15 258.065 421.145C258.055 421.15 258.03 421.165 258.03 421.165C257.686 421.822 257.347 422.479 257.003 423.142L256.998 423.136ZM252.444 436.255C252.444 436.507 252.444 436.76 252.454 437.013C252.439 436.76 252.439 436.507 252.444 436.255ZM148.884 619.145C147.863 623.179 146.837 627.218 145.816 631.252C145.917 631.57 146.058 631.894 146.195 632.218C146.053 631.894 145.917 631.57 145.816 631.252C146.837 627.218 147.863 623.179 148.884 619.145C150.603 618.22 152.316 617.29 154.035 616.365C152.316 617.295 150.603 618.22 148.889 619.145L148.884 619.145Z" fill="#11FFE2"/>
<path d="M66.2132 592.056C66.0514 592.263 65.9048 592.485 65.7886 592.728C65.829 593.34 65.8695 593.951 65.9048 594.558C66.0059 593.724 66.107 592.89 66.2132 592.056Z" fill="#11FFE2"/>
<path d="M197.373 541.205C194.972 544.466 192.571 547.721 190.165 550.982C189.558 551.781 188.946 552.579 188.335 553.373C188.335 553.373 188.32 553.398 188.32 553.403C184.331 559.065 180.302 564.702 176.374 570.409C175.085 572.284 174.044 574.332 172.891 576.298L173.013 576.389C172.113 577.501 171.213 578.608 170.313 579.715L170.212 579.832C169.843 580.448 169.479 581.065 169.11 581.682C168.847 582.01 168.579 582.334 168.316 582.663C164.363 588.552 160.324 594.385 156.497 600.356C155.001 602.691 153.985 605.33 152.752 607.827L152.797 607.741C152.357 608.494 151.917 609.248 151.478 610.001C146.832 615.309 144.325 621.623 142.753 628.391C141.201 635.074 142.105 641.343 145.851 647.146C145.983 647.535 146.114 647.925 146.241 648.319C146.736 649.092 147.236 649.866 147.732 650.639C149.476 653.227 151.225 655.816 152.969 658.404C155.537 661.851 158.11 665.294 160.663 668.757C164.727 674.262 168.751 679.792 172.861 685.262C173.639 686.298 174.752 687.082 175.707 687.987C175.707 687.987 175.869 687.891 175.874 687.891C176.293 688.538 176.718 689.19 177.138 689.837C177.401 690.17 177.663 690.509 177.926 690.843C178.685 691.834 179.448 692.824 180.206 693.815C183.285 697.976 186.303 702.187 189.457 706.286C196.645 715.623 202.322 725.865 207.226 736.511C216.391 756.423 225.313 776.452 234.231 796.475C236.333 801.202 238.037 806.11 239.923 810.933C240.019 811.615 240.115 812.303 240.211 812.985C240.661 814.517 241.111 816.049 241.56 817.585C241.672 818.43 241.778 819.269 241.889 820.113C242.177 821.766 242.465 823.419 242.753 825.067L243.193 827.109C243.335 827.918 243.481 828.722 243.623 829.531C243.704 830.269 243.785 831.017 243.866 831.76C244.083 832.913 244.3 834.06 244.513 835.213C244.578 836.522 244.528 837.847 244.735 839.131C246.555 850.515 248.739 861.853 250.18 873.283C251.307 882.231 251.464 891.295 252.197 900.293C252.368 902.371 253.137 904.398 253.632 906.445C253.668 907.628 253.703 908.806 253.733 909.989C253.572 910.626 253.208 911.293 253.283 911.9C255.407 928.935 249.8 943.934 241.171 958.154C238.649 962.309 236.359 966.611 233.7 970.671C230.657 975.316 226.521 978.132 220.602 977.116C214.713 972.642 210.926 966.531 207.393 960.207C206.837 959.211 206.053 958.346 205.371 957.421C203.323 952.482 201.321 947.528 199.219 942.615C195.584 934.122 192.718 925.397 190.847 916.343C190.66 915.433 189.973 914.629 189.513 913.775C189.386 913.148 189.26 912.516 189.134 911.889C188.855 910.317 188.583 908.745 188.304 907.178C188.143 906.42 187.976 905.666 187.814 904.908C186.828 898.463 185.838 892.023 184.857 885.577C182.092 867.47 177.618 849.746 171.668 832.468C168.079 822.049 163.236 812.06 158.924 801.894C158.742 801.47 158.236 801.182 157.883 800.828C155.861 796.622 154.177 792.204 151.756 788.245C144.33 776.103 136.605 764.143 129.028 752.091C123.053 742.587 117.33 732.917 111.112 723.575C104.798 714.091 98.1459 704.83 91.4023 695.645C83.9308 685.469 77.1569 674.944 72.8094 662.999C72.3595 661.766 71.5709 660.653 70.939 659.481C69.4326 653.556 67.9363 647.626 66.4147 641.707C65.8535 639.528 65.2419 637.364 64.6504 635.191C64.4988 633.866 64.3471 632.547 64.2005 631.222C64.0185 629.549 63.8315 627.876 63.6495 626.208C63.6596 621.092 63.6697 615.976 63.6849 610.86C64.433 605.39 65.1812 599.921 65.9294 594.451C66.0305 593.617 66.1316 592.783 66.2377 591.949C66.3944 590.867 66.5512 589.78 66.7079 588.698C66.8241 587.703 66.9455 586.707 67.0617 585.711L67.0617 585.701C67.1224 584.927 67.183 584.149 67.2437 583.375C67.3094 582.956 67.3751 582.536 67.4409 582.112C67.7947 581.561 68.3761 581.045 68.4721 580.453C70.0948 570.51 72.951 560.905 76.3531 551.442C76.5199 550.982 76.4946 550.451 76.5654 549.961C80.4781 543.192 84.1683 536.287 88.349 529.685C93.4294 521.662 98.9496 513.918 104.222 506.021C105.324 504.368 106.189 502.554 107.159 500.82C107.468 500.708 107.614 500.486 107.599 500.157C107.867 499.955 108.206 499.809 108.393 499.556C119.741 484.057 127.627 466.955 132.071 448.271C132.212 447.67 131.97 446.972 131.904 446.325C132.536 442.908 133.173 439.49 133.805 436.073C133.845 435.406 133.886 434.739 133.926 434.066C133.962 431.726 133.997 429.39 134.032 427.05C134.017 425.402 134.007 423.754 133.997 422.106C134.133 416.641 132.551 411.515 130.175 406.763C125.681 397.765 120.924 388.888 115.991 380.123C109.909 369.315 103.54 358.664 97.2915 347.947C94.4202 343.023 91.5135 338.12 88.6725 333.176C83.1977 323.662 80.195 313.521 80.5741 302.43C80.6601 299.882 79.8765 297.309 79.4974 294.751C79.007 285.303 78.5167 275.855 78.0263 266.402C77.5815 262.611 77.6977 258.637 76.5856 255.053C72.3595 241.44 66.354 228.544 59.6862 215.962C57.745 211.331 55.8999 206.66 53.8425 202.085C49.9904 193.522 46.0222 185.014 42.064 176.501C41.7253 175.773 41.1035 175.177 40.6131 174.525C38.8539 170 37.1251 165.466 35.3406 160.952C26.6559 139.012 21.2671 116.102 15.7772 93.248C12.6278 80.1703 10.6866 66.8399 10.1104 53.3628C11.9605 45.9166 15.3576 43.8996 22.8544 45.6537C24.4468 46.0278 26.1251 46.1036 27.768 46.1441C29.1177 46.1744 30.5079 45.9975 30.6646 44.1574L30.6444 44.1776C31.3925 43.6013 32.1407 43.0301 32.8889 42.4538L32.7827 42.196C33.9252 41.0687 35.1384 40.0071 36.1848 38.7989C37.7115 37.0448 38.9702 35.043 40.603 33.4C44.455 29.5227 47.2809 29.3711 51.5171 32.6519C54.5451 34.9975 57.4872 37.4543 60.5001 39.8201C62.8305 41.65 65.4339 41.9483 67.9969 40.4924C70.8632 38.8647 73.5929 36.9892 76.3834 35.2199C76.6917 35.2907 76.9344 35.1997 77.1214 34.9469C79.7905 35.0531 82.4647 35.1542 85.1338 35.2603L85.053 35.2148C86.428 36.5544 87.803 37.8941 89.178 39.2337L89.1476 39.1781C89.5369 39.7796 89.9211 40.3862 90.3103 40.9878L90.4064 41.1546C90.9928 42.8279 91.5842 44.5011 92.1706 46.1744C92.1605 47.3371 92.1504 48.5048 92.1453 49.6675L92.1352 49.8394C92.0139 50.997 91.7814 52.1496 91.7814 53.3072C91.7611 69.5039 91.751 85.7006 91.8117 101.897C91.8218 104.202 92.2262 106.503 92.4436 108.803C91.6044 111.34 91.1141 113.848 93.035 116.163C93.0755 116.754 93.121 117.346 93.1614 117.942C93.0603 124.287 92.843 130.631 92.8834 136.975C92.9188 142.51 93.3687 148.046 93.399 153.581C93.485 170.066 94.5314 186.47 98.808 202.444C101.265 211.624 103.929 220.764 111.107 227.912C116.688 233.468 123.305 236.031 130.777 236.991C134.093 237.421 137.465 237.431 140.816 237.628C141.504 237.749 142.191 237.866 142.879 237.987C144.188 238.306 145.497 238.624 146.802 238.943C156.735 242.016 164.904 247.961 172.542 254.76C173.533 255.64 174.565 256.469 175.581 257.323C180.585 263.172 185.918 268.773 190.519 274.92C200.073 287.684 209.359 300.656 218.494 313.728C221.047 317.378 222.664 321.68 224.717 325.679C224.868 326.114 225.02 326.553 225.172 326.993C225.632 328.06 226.097 329.131 226.557 330.198L226.537 330.163C227.815 333.838 229.089 337.518 230.368 341.193C230.485 341.532 230.601 341.87 230.712 342.209C230.854 343.028 230.879 343.887 231.152 344.661C234.509 354.154 237.875 363.643 241.298 373.116C243.178 378.323 245.18 383.484 247.131 388.666C247.47 389.364 247.814 390.056 248.152 390.754C248.299 391.37 248.446 391.992 248.592 392.609C249.856 396.188 250.685 400 252.48 403.291C255.912 409.569 257.353 416.019 256.049 423.061C255.715 423.744 255.376 424.426 255.043 425.104C254.734 425.286 254.633 425.548 254.734 425.892C254.476 426.322 254.213 426.752 253.951 427.181C253.612 427.5 253.273 427.818 252.94 428.137C252.732 428.399 252.525 428.662 252.313 428.925C244.614 438.404 240.271 449.217 238.674 461.334C237.825 467.784 236.005 474.108 234.625 480.493C234.539 480.791 234.453 481.089 234.372 481.383C233.811 482.682 233.255 483.986 232.694 485.285L232.547 485.224L232.699 485.265C232.421 486.089 232.138 486.908 231.86 487.732C224.702 502.65 214.925 515.904 205.512 529.391C204.572 530.741 203.915 532.293 203.126 533.749C203.126 533.749 203.192 533.865 203.197 533.865C200.841 534.816 199.663 536.676 199.193 539.077L199.244 538.986C198.617 539.719 197.985 540.457 197.358 541.19L197.368 541.18L197.373 541.205Z" fill="#11FFE2"/>
</svg>
