<svg width="456" height="129" viewBox="0 0 456 129" fill="none" xmlns="http://www.w3.org/2000/svg">
<g filter="url(#filter0_f_204_14871)">
<path d="M431.823 114.999C431.658 114.999 431.576 114.891 431.576 114.676L431.621 100.676L431.576 85.0286C431.576 84.8129 431.665 84.7051 431.845 84.7051H433.619C433.783 84.7051 433.866 84.8129 433.866 85.0286L433.821 97.0286H438.737C441.551 97.0286 443.758 97.7345 445.36 99.1463C446.961 100.558 447.762 102.813 447.762 105.911C447.762 109.185 446.939 111.519 445.293 112.911C443.646 114.303 441.461 114.999 438.737 114.999H431.823ZM433.866 112.793H438.692C440.758 112.793 442.411 112.303 443.654 111.323C444.896 110.342 445.517 108.568 445.517 105.999C445.517 103.627 444.926 101.911 443.744 100.852C442.576 99.7737 440.892 99.2345 438.692 99.2345H433.821L433.866 112.793ZM449.67 114.999C449.491 114.999 449.401 114.882 449.401 114.646L449.468 100.735L449.401 85.058C449.401 84.8227 449.491 84.7051 449.67 84.7051H451.444C451.608 84.7051 451.691 84.8227 451.691 85.058L451.646 100.735L451.691 114.646C451.691 114.882 451.608 114.999 451.444 114.999H449.67Z" fill="#D5FFFA"/>
<path d="M407.646 122.117C407.467 122.117 407.377 121.999 407.377 121.764V113.058C407.377 112.842 407.467 112.735 407.646 112.735H409.038C409.682 111.774 410.161 110.607 410.475 109.235C410.789 107.862 411.036 106.078 411.216 103.882C411.351 102.313 411.47 100.45 411.575 98.2933C411.695 96.1169 411.8 93.8718 411.889 91.558C411.979 89.2443 412.047 87.0776 412.091 85.058C412.106 84.8227 412.196 84.7051 412.361 84.7051H426.437C426.616 84.7051 426.706 84.8227 426.706 85.058L426.819 98.8816L427.065 112.735L429.49 112.705C429.67 112.705 429.759 112.823 429.759 113.058V121.764C429.759 121.999 429.67 122.117 429.49 122.117H427.986C427.806 122.117 427.717 121.999 427.717 121.764L427.649 114.999H409.51L409.442 121.764C409.442 121.999 409.353 122.117 409.173 122.117H407.646ZM411.373 112.735H424.798L424.686 98.8816L424.506 86.9992H414.067C413.962 90.0972 413.835 93.1953 413.685 96.2933C413.536 99.3718 413.371 101.97 413.191 104.087C412.997 106.44 412.742 108.235 412.428 109.47C412.114 110.705 411.762 111.793 411.373 112.735Z" fill="#D5FFFA"/>
<path d="M398.695 115.617C396.405 115.617 394.482 114.96 392.925 113.647C391.384 112.313 390.216 110.48 389.423 108.147C388.63 105.794 388.233 103.058 388.233 99.9408C388.233 96.8428 388.645 94.1075 389.468 91.735C390.291 89.3428 391.459 87.4702 392.97 86.1173C394.497 84.7644 396.308 84.0879 398.403 84.0879C401.471 84.0879 403.881 85.4212 405.632 88.0879C407.383 90.7546 408.281 94.5095 408.326 99.3526C408.326 99.5879 408.236 99.7055 408.057 99.7055H390.501C390.516 104.274 391.227 107.706 392.634 110C394.04 112.294 396.061 113.441 398.695 113.441C400.82 113.441 402.482 112.657 403.679 111.088C404.876 109.5 405.654 107.333 406.014 104.588C406.029 104.372 406.118 104.264 406.283 104.264H407.922C408.131 104.264 408.221 104.382 408.191 104.617C407.922 106.892 407.391 108.853 406.597 110.5C405.819 112.127 404.771 113.392 403.454 114.294C402.137 115.176 400.551 115.617 398.695 115.617ZM390.591 97.4703H405.924C405.909 95.3918 405.617 93.5095 405.048 91.8232C404.495 90.1173 403.656 88.7644 402.534 87.7644C401.426 86.7644 400.05 86.2644 398.403 86.2644C396.083 86.2644 394.265 87.2742 392.948 89.2938C391.631 91.3134 390.845 94.0389 390.591 97.4703Z" fill="#D5FFFA"/>
<path d="M361.821 115C361.642 115 361.552 114.882 361.552 114.647L361.597 98.9117L361.552 85.0588C361.552 84.8235 361.634 84.7058 361.799 84.7058H363.572C363.737 84.7058 363.819 84.8235 363.819 85.0588L363.774 98.9411L363.752 111.765L376.616 84.9411C376.676 84.7843 376.78 84.7058 376.93 84.7058H379.152C379.332 84.7058 379.422 84.8235 379.422 85.0588L379.354 98.9706L379.422 114.647C379.422 114.882 379.332 115 379.152 115H377.401C377.237 115 377.154 114.882 377.154 114.647L377.199 99.0294L377.222 88.0882L364.448 114.765C364.388 114.922 364.283 115 364.133 115H361.821ZM370.464 82.0294C372.186 82.0294 373.532 81.3823 374.505 80.0882C375.478 78.7941 375.965 77.1862 375.965 75.2646H373.967C373.967 76.598 373.682 77.7254 373.113 78.647C372.545 79.5686 371.669 80.0294 370.487 80.0294C369.26 80.0294 368.369 79.5686 367.815 78.647C367.276 77.7254 367.007 76.598 367.007 75.2646H365.009C365.009 77.1862 365.488 78.7941 366.446 80.0882C367.419 81.3823 368.758 82.0294 370.464 82.0294Z" fill="#D5FFFA"/>
<path d="M348.795 115.617C346.565 115.617 344.679 114.96 343.137 113.647C341.611 112.333 340.451 110.5 339.658 108.147C338.864 105.794 338.468 103.039 338.468 99.882C338.468 96.7448 338.864 93.9899 339.658 91.6173C340.451 89.2448 341.611 87.4016 343.137 86.0879C344.679 84.7546 346.565 84.0879 348.795 84.0879C351.01 84.0879 352.888 84.7546 354.43 86.0879C355.971 87.4016 357.139 89.2448 357.932 91.6173C358.725 93.9703 359.122 96.7154 359.122 99.8526C359.122 103.009 358.725 105.774 357.932 108.147C357.139 110.5 355.971 112.333 354.43 113.647C352.888 114.96 351.01 115.617 348.795 115.617ZM348.795 113.441C351.489 113.441 353.502 112.215 354.834 109.764C356.166 107.294 356.832 104 356.832 99.882C356.832 95.784 356.158 92.4899 354.811 89.9997C353.479 87.5095 351.474 86.2644 348.795 86.2644C346.116 86.284 344.103 87.5291 342.756 89.9997C341.409 92.4506 340.735 95.7546 340.735 99.9114C340.735 104.029 341.409 107.313 342.756 109.764C344.118 112.215 346.131 113.441 348.795 113.441Z" fill="#D5FFFA"/>
<path d="M331.449 98.6757V98.7345C333.439 99.3031 334.854 100.235 335.692 101.529C336.53 102.803 336.949 104.44 336.949 106.44C336.949 107.989 336.709 109.313 336.23 110.411C335.766 111.509 335.123 112.401 334.3 113.087C333.477 113.754 332.526 114.244 331.449 114.558C330.371 114.852 329.226 114.999 328.014 114.999H319.618C319.453 114.999 319.371 114.882 319.371 114.646L319.415 98.9698L319.393 85.058C319.393 84.8227 319.483 84.7051 319.662 84.7051H328.036C330.611 84.7051 332.624 85.3325 334.075 86.5874C335.527 87.8423 336.253 89.6953 336.253 92.1463C336.253 94.009 335.826 95.46 334.973 96.4992C334.12 97.5384 332.945 98.2639 331.449 98.6757ZM327.969 86.911H321.638L321.593 97.7345H327.991C329.847 97.7345 331.314 97.3325 332.392 96.5286C333.469 95.7247 334.008 94.3227 334.008 92.3227C334.008 90.5384 333.462 89.1953 332.369 88.2933C331.277 87.3717 329.81 86.911 327.969 86.911ZM321.593 112.793H327.969C329.989 112.793 331.613 112.284 332.841 111.264C334.083 110.225 334.704 108.538 334.704 106.205C334.704 104.735 334.39 103.538 333.761 102.617C333.132 101.676 332.309 100.989 331.291 100.558C330.274 100.127 329.181 99.911 328.014 99.911H321.593V112.793Z" fill="#D5FFFA"/>
<path d="M298.462 114.999C298.282 114.999 298.192 114.882 298.192 114.646L298.237 98.911L298.192 85.058C298.192 84.8227 298.275 84.7051 298.439 84.7051H300.213C300.378 84.7051 300.46 84.8227 300.46 85.058L300.415 98.9404L300.392 111.764L313.256 84.9404C313.316 84.7835 313.421 84.7051 313.571 84.7051H315.793C315.973 84.7051 316.062 84.8227 316.062 85.058L315.995 98.9698L316.062 114.646C316.062 114.882 315.973 114.999 315.793 114.999H314.042C313.877 114.999 313.795 114.882 313.795 114.646L313.84 99.0286L313.862 88.0874L301.088 114.764C301.029 114.921 300.924 114.999 300.774 114.999H298.462Z" fill="#D5FFFA"/>
<path d="M276.598 115.293C276.403 115.293 276.216 115.274 276.037 115.235C275.857 115.215 275.685 115.176 275.52 115.117C275.371 115.097 275.296 114.98 275.296 114.764V113.264C275.296 113.009 275.393 112.901 275.588 112.94C275.722 112.98 275.857 113.009 275.992 113.029C276.127 113.048 276.254 113.058 276.373 113.058C277.301 113.058 277.945 112.617 278.304 111.735C278.678 110.833 278.94 109.176 279.09 106.764C279.165 105.705 279.24 104.323 279.314 102.617C279.389 100.891 279.457 99.0188 279.516 96.9992C279.591 94.96 279.659 92.911 279.719 90.8521C279.793 88.7737 279.853 86.8325 279.898 85.0286C279.898 84.8129 279.98 84.7051 280.145 84.7051H294.423C294.603 84.7051 294.693 84.8129 294.693 85.0286L294.715 99.0286L294.85 114.646C294.85 114.882 294.76 114.999 294.58 114.999H292.829C292.65 114.999 292.56 114.891 292.56 114.676L292.537 99.0286L292.425 86.9404H281.851C281.806 88.2149 281.754 89.7345 281.694 91.4992C281.649 93.2443 281.589 95.0678 281.514 96.9698C281.455 98.8522 281.387 100.627 281.312 102.293C281.253 103.96 281.193 105.362 281.133 106.499C281.013 108.499 280.819 110.146 280.549 111.44C280.28 112.735 279.838 113.705 279.225 114.352C278.611 114.98 277.735 115.293 276.598 115.293Z" fill="#D5FFFA"/>
<path d="M251.944 122.117C251.765 122.117 251.675 121.999 251.675 121.764V113.058C251.675 112.842 251.765 112.735 251.944 112.735H253.336C253.98 111.774 254.459 110.607 254.773 109.235C255.087 107.862 255.334 106.078 255.514 103.882C255.648 102.313 255.768 100.45 255.873 98.2933C255.993 96.1169 256.097 93.8718 256.187 91.558C256.277 89.2443 256.344 87.0776 256.389 85.058C256.404 84.8227 256.494 84.7051 256.659 84.7051H270.735C270.914 84.7051 271.004 84.8227 271.004 85.058L271.116 98.8816L271.363 112.735L273.788 112.705C273.968 112.705 274.057 112.823 274.057 113.058V121.764C274.057 121.999 273.968 122.117 273.788 122.117H272.284C272.104 122.117 272.014 121.999 272.014 121.764L271.947 114.999H253.808L253.74 121.764C253.74 121.999 253.65 122.117 253.471 122.117H251.944ZM255.671 112.735H269.096L268.984 98.8816L268.804 86.9992H258.365C258.26 90.0972 258.133 93.1953 257.983 96.2933C257.834 99.3718 257.669 101.97 257.489 104.087C257.295 106.44 257.04 108.235 256.726 109.47C256.412 110.705 256.06 111.793 255.671 112.735Z" fill="#D5FFFA"/>
<path d="M242.377 115.617C240.147 115.617 238.261 114.96 236.72 113.647C235.193 112.333 234.033 110.5 233.24 108.147C232.447 105.794 232.05 103.039 232.05 99.882C232.05 96.7448 232.447 93.9899 233.24 91.6173C234.033 89.2448 235.193 87.4016 236.72 86.0879C238.261 84.7546 240.147 84.0879 242.377 84.0879C244.592 84.0879 246.471 84.7546 248.012 86.0879C249.554 87.4016 250.721 89.2448 251.514 91.6173C252.308 93.9703 252.704 96.7154 252.704 99.8526C252.704 103.009 252.308 105.774 251.514 108.147C250.721 110.5 249.554 112.333 248.012 113.647C246.471 114.96 244.592 115.617 242.377 115.617ZM242.377 113.441C245.071 113.441 247.084 112.215 248.416 109.764C249.748 107.294 250.414 104 250.414 99.882C250.414 95.784 249.741 92.4899 248.394 89.9997C247.062 87.5095 245.056 86.2644 242.377 86.2644C239.698 86.284 237.685 87.5291 236.338 89.9997C234.991 92.4506 234.318 95.7546 234.318 99.9114C234.318 104.029 234.991 107.313 236.338 109.764C237.7 112.215 239.713 113.441 242.377 113.441Z" fill="#D5FFFA"/>
<path d="M220.99 84.0586C222.996 84.0586 224.687 84.7547 226.064 86.1468C227.441 87.539 228.481 89.4213 229.184 91.7939C229.888 94.1664 230.24 96.8233 230.24 99.7645C230.24 102.666 229.88 105.314 229.162 107.706C228.444 110.098 227.396 112.01 226.019 113.441C224.642 114.872 222.958 115.588 220.968 115.588C217.316 115.588 214.757 113.392 213.29 109L213.357 124.647C213.357 124.882 213.267 125 213.088 125H211.314C211.15 125 211.067 124.882 211.067 124.647L211.157 101L211.067 85.0586C211.067 84.8233 211.15 84.7057 211.314 84.7057H213.043C213.223 84.7057 213.312 84.8233 213.312 85.0586L213.2 90.9998C213.919 88.8625 214.936 87.1762 216.253 85.941C217.585 84.6861 219.164 84.0586 220.99 84.0586ZM220.496 113.382C222.232 113.382 223.647 112.784 224.739 111.588C225.847 110.392 226.663 108.794 227.186 106.794C227.725 104.774 227.995 102.539 227.995 100.088C227.995 97.539 227.733 95.2253 227.209 93.1468C226.685 91.0488 225.877 89.3821 224.784 88.1468C223.692 86.8919 222.277 86.2645 220.541 86.2645C218.326 86.2645 216.538 87.3821 215.176 89.6174C213.829 91.8331 213.14 95.1272 213.11 99.4998C213.095 103.872 213.731 107.284 215.019 109.735C216.321 112.166 218.147 113.382 220.496 113.382Z" fill="#D5FFFA"/>
<path d="M199.444 114.94L190.397 85.0874C190.322 84.8325 190.389 84.7051 190.599 84.7051H192.574C192.724 84.7051 192.821 84.7933 192.866 84.9698L200.522 110.911L207.122 84.9992C207.167 84.8031 207.264 84.7051 207.414 84.7051H209.255C209.479 84.7051 209.554 84.8325 209.479 85.0874L198.883 124.735C198.838 124.911 198.741 124.999 198.591 124.999H197.019C196.795 124.999 196.72 124.872 196.795 124.617L199.444 114.94Z" fill="#D5FFFA"/>
<path d="M435.296 43.7346C435.056 43.7346 435.004 43.5973 435.138 43.3228L440.975 30.411C439.12 30.1169 437.623 29.2934 436.485 27.9404C435.363 26.5679 434.802 24.5483 434.802 21.8816C434.802 19.0777 435.55 16.9698 437.047 15.5581C438.558 14.1463 440.624 13.4404 443.243 13.4404H451.46C451.624 13.4404 451.706 13.5581 451.706 13.7934L451.662 27.8228L451.706 43.3816C451.706 43.6169 451.624 43.7346 451.46 43.7346H449.641C449.476 43.7346 449.394 43.6169 449.394 43.3816L449.461 30.6169H443.086L439.09 39.8522L437.473 43.4993C437.413 43.6561 437.316 43.7346 437.181 43.7346H435.296ZM442.974 28.411H449.484L449.394 15.6463H442.929C441.118 15.6463 439.681 16.2051 438.618 17.3228C437.571 18.4208 437.047 19.9502 437.047 21.911C437.047 24.1267 437.571 25.764 438.618 26.8228C439.681 27.8816 441.133 28.411 442.974 28.411Z" fill="#D5FFFA"/>
<path d="M423.513 44.3527C421.223 44.3527 419.3 43.6958 417.743 42.3821C416.202 41.0488 415.034 39.2154 414.241 36.8821C413.448 34.5291 413.051 31.7938 413.051 28.6762C413.051 25.5782 413.463 22.8429 414.286 20.4703C415.109 18.0781 416.277 16.2056 417.788 14.8527C419.315 13.4997 421.126 12.8232 423.221 12.8232C426.289 12.8232 428.699 14.1566 430.45 16.8232C432.201 19.4899 433.099 23.2448 433.144 28.088C433.144 28.3233 433.054 28.4409 432.875 28.4409H415.319C415.334 33.0095 416.045 36.4409 417.451 38.735C418.858 41.0291 420.879 42.1762 423.513 42.1762C425.638 42.1762 427.299 41.3919 428.497 39.8233C429.694 38.235 430.472 36.0684 430.832 33.3233C430.847 33.1076 430.936 32.9997 431.101 32.9997H432.74C432.949 32.9997 433.039 33.1174 433.009 33.3527C432.74 35.6272 432.209 37.588 431.415 39.235C430.637 40.8625 429.589 42.1272 428.272 43.0292C426.955 43.9115 425.369 44.3527 423.513 44.3527ZM415.409 26.2056H430.742C430.727 24.1272 430.435 22.2448 429.866 20.5585C429.312 18.8527 428.474 17.4997 427.352 16.4997C426.244 15.4997 424.867 14.9997 423.221 14.9997C420.901 14.9997 419.083 16.0095 417.766 18.0291C416.449 20.0487 415.663 22.7742 415.409 26.2056Z" fill="#D5FFFA"/>
<path d="M409.332 35.2065C409.332 33.6378 409.011 32.3731 408.367 31.4124C407.738 30.4516 406.908 29.7555 405.875 29.3241C404.857 28.8927 403.757 28.6771 402.575 28.6771H399.477C399.297 28.6771 399.207 28.5594 399.207 28.3241V26.8241C399.207 26.5888 399.297 26.4712 399.477 26.4712H402.575C404.446 26.4712 405.92 26.03 406.997 25.1476C408.09 24.2653 408.636 22.8339 408.636 20.8535C408.636 18.9908 408.083 17.5496 406.975 16.53C405.882 15.5104 404.401 15.0006 402.53 15.0006C401.318 15.0006 400.203 15.2457 399.185 15.7359C398.167 16.2261 397.344 16.9908 396.715 18.03C396.102 19.0496 395.765 20.3829 395.705 22.03C395.705 22.2457 395.615 22.3535 395.436 22.3535H393.864C393.685 22.3535 393.602 22.2359 393.617 22.0006C393.677 19.8829 394.111 18.1476 394.919 16.7947C395.728 15.4418 396.798 14.4516 398.13 13.8241C399.462 13.177 400.944 12.8535 402.575 12.8535C405.104 12.8535 407.117 13.5104 408.614 14.8241C410.111 16.1378 410.859 18.0888 410.859 20.6771C410.859 22.5202 410.432 24.0006 409.579 25.1182C408.726 26.2359 407.559 27.0006 406.077 27.4124V27.4712C407.993 28.0398 409.385 28.981 410.253 30.2947C411.136 31.5888 411.577 33.2849 411.577 35.3829C411.577 36.8535 411.338 38.1477 410.859 39.2653C410.38 40.383 409.721 41.3143 408.883 42.0594C408.045 42.8045 407.08 43.3633 405.987 43.7359C404.895 44.128 403.727 44.3241 402.485 44.3241C399.522 44.3241 397.209 43.4222 395.548 41.6182C393.902 39.8143 393.049 37.0398 392.989 33.2947C392.989 33.0594 393.079 32.9418 393.258 32.9418H394.875C395.039 32.9418 395.122 33.0594 395.122 33.2947C395.181 36.2947 395.832 38.5202 397.075 39.9712C398.317 41.4026 400.128 42.1182 402.507 42.1182C404.483 42.1182 406.114 41.53 407.402 40.3535C408.689 39.1575 409.332 37.4418 409.332 35.2065Z" fill="#D5FFFA"/>
<path d="M383.033 43.6757L373.986 13.8228C373.911 13.5679 373.979 13.4404 374.188 13.4404H376.164C376.313 13.4404 376.411 13.5287 376.456 13.7051L384.111 39.6463L390.711 13.7345C390.756 13.5385 390.853 13.4404 391.003 13.4404H392.844C393.068 13.4404 393.143 13.5679 393.068 13.8228L382.472 53.4699C382.427 53.6463 382.33 53.7346 382.18 53.7346H380.609C380.384 53.7346 380.309 53.6071 380.384 53.3522L383.033 43.6757Z" fill="#D5FFFA"/>
<path d="M350.398 43.7346C350.234 43.7346 350.151 43.6169 350.151 43.3816L350.196 29.1169L350.174 13.7934C350.174 13.5581 350.264 13.4404 350.443 13.4404H352.711C352.875 13.4404 352.98 13.5287 353.025 13.7051L361.331 40.1463L369.638 13.7051C369.683 13.5287 369.788 13.4404 369.952 13.4404H372.22C372.399 13.4404 372.489 13.5581 372.489 13.7934L372.444 29.1169L372.489 43.3816C372.489 43.6169 372.399 43.7346 372.22 43.7346H370.603C370.424 43.7346 370.334 43.6169 370.334 43.3816L370.379 29.2934L370.401 17.0581L362.14 43.4699C362.08 43.6463 361.975 43.7346 361.825 43.7346H360.613C360.448 43.7346 360.344 43.6463 360.299 43.4699L351.992 17.1169L352.015 29.2934L352.104 43.3816C352.104 43.6169 352.015 43.7346 351.835 43.7346H350.398Z" fill="#D5FFFA"/>
<path d="M323.836 43.7346C323.596 43.7346 323.544 43.5973 323.679 43.3228L329.515 30.411C327.66 30.1169 326.163 29.2934 325.026 27.9404C323.903 26.5679 323.342 24.5483 323.342 21.8816C323.342 19.0777 324.09 16.9698 325.587 15.5581C327.098 14.1463 329.164 13.4404 331.783 13.4404H340C340.164 13.4404 340.247 13.5581 340.247 13.7934L340.202 27.8228L340.247 43.3816C340.247 43.6169 340.164 43.7346 340 43.7346H338.181C338.017 43.7346 337.934 43.6169 337.934 43.3816L338.002 30.6169H331.626L327.63 39.8522L326.013 43.4993C325.953 43.6561 325.856 43.7346 325.721 43.7346H323.836ZM331.514 28.411H338.024L337.934 15.6463H331.469C329.658 15.6463 328.221 16.2051 327.158 17.3228C326.111 18.4208 325.587 19.9502 325.587 21.911C325.587 24.1267 326.111 25.764 327.158 26.8228C328.221 27.8816 329.673 28.411 331.514 28.411Z" fill="#D5FFFA"/>
<path d="M303.46 43.7346C303.28 43.7346 303.19 43.6169 303.19 43.3816L303.235 27.6463L303.19 13.7934C303.19 13.5581 303.273 13.4404 303.437 13.4404H305.211C305.376 13.4404 305.458 13.5581 305.458 13.7934L305.413 27.6757L305.391 40.4993L318.254 13.6757C318.314 13.5189 318.419 13.4404 318.569 13.4404H320.791C320.971 13.4404 321.061 13.5581 321.061 13.7934L320.993 27.7051L321.061 43.3816C321.061 43.6169 320.971 43.7346 320.791 43.7346H319.04C318.875 43.7346 318.793 43.6169 318.793 43.3816L318.838 27.764L318.86 16.8228L306.086 43.4993C306.027 43.6561 305.922 43.7346 305.772 43.7346H303.46Z" fill="#D5FFFA"/>
<path d="M299.627 50.8522C299.447 50.8522 299.357 50.7346 299.357 50.4993L299.29 43.7346H281.689C281.525 43.7346 281.442 43.6169 281.442 43.3816L281.487 27.7051L281.442 13.7934C281.442 13.5581 281.525 13.4404 281.689 13.4404H283.463C283.642 13.4404 283.732 13.5581 283.732 13.7934L283.665 27.7051L283.732 41.4405H296.484L296.529 27.7051L296.461 13.7934C296.461 13.5581 296.551 13.4404 296.731 13.4404H298.504C298.669 13.4404 298.751 13.5581 298.751 13.7934L298.706 27.7051L298.751 41.4405H301.108C301.273 41.4405 301.355 41.5581 301.355 41.7934V50.4993C301.355 50.7346 301.273 50.8522 301.108 50.8522H299.627Z" fill="#D5FFFA"/>
<path d="M260.534 43.7346C260.354 43.7346 260.264 43.6169 260.264 43.3816L260.309 27.6463L260.264 13.7934C260.264 13.5581 260.346 13.4404 260.511 13.4404H262.285C262.449 13.4404 262.532 13.5581 262.532 13.7934L262.487 27.6757L262.464 40.4993L275.328 13.6757C275.388 13.5189 275.493 13.4404 275.642 13.4404H277.865C278.044 13.4404 278.134 13.5581 278.134 13.7934L278.067 27.7051L278.134 43.3816C278.134 43.6169 278.044 43.7346 277.865 43.7346H276.114C275.949 43.7346 275.867 43.6169 275.867 43.3816L275.912 27.764L275.934 16.8228L263.16 43.4993C263.1 43.6561 262.996 43.7346 262.846 43.7346H260.534Z" fill="#D5FFFA"/>
<path d="M255.823 35.2065C255.823 33.6378 255.501 32.3731 254.857 31.4124C254.229 30.4516 253.398 29.7555 252.365 29.3241C251.347 28.8927 250.247 28.6771 249.065 28.6771H245.967C245.787 28.6771 245.698 28.5594 245.698 28.3241V26.8241C245.698 26.5888 245.787 26.4712 245.967 26.4712H249.065C250.936 26.4712 252.41 26.03 253.488 25.1476C254.58 24.2653 255.127 22.8339 255.127 20.8535C255.127 18.9908 254.573 17.5496 253.465 16.53C252.373 15.5104 250.891 15.0006 249.02 15.0006C247.808 15.0006 246.693 15.2457 245.675 15.7359C244.657 16.2261 243.834 16.9908 243.206 18.03C242.592 19.0496 242.255 20.3829 242.195 22.03C242.195 22.2457 242.106 22.3535 241.926 22.3535H240.355C240.175 22.3535 240.093 22.2359 240.108 22.0006C240.167 19.8829 240.601 18.1476 241.41 16.7947C242.218 15.4418 243.288 14.4516 244.62 13.8241C245.952 13.177 247.434 12.8535 249.065 12.8535C251.594 12.8535 253.607 13.5104 255.104 14.8241C256.601 16.1378 257.349 18.0888 257.349 20.6771C257.349 22.5202 256.923 24.0006 256.069 25.1182C255.216 26.2359 254.049 27.0006 252.567 27.4124V27.4712C254.483 28.0398 255.875 28.981 256.743 30.2947C257.626 31.5888 258.067 33.2849 258.067 35.3829C258.067 36.8535 257.828 38.1477 257.349 39.2653C256.87 40.383 256.212 41.3143 255.374 42.0594C254.535 42.8045 253.57 43.3633 252.477 43.7359C251.385 44.128 250.218 44.3241 248.975 44.3241C246.012 44.3241 243.7 43.4222 242.038 41.6182C240.392 39.8143 239.539 37.0398 239.479 33.2947C239.479 33.0594 239.569 32.9418 239.748 32.9418H241.365C241.529 32.9418 241.612 33.0594 241.612 33.2947C241.672 36.2947 242.323 38.5202 243.565 39.9712C244.807 41.4026 246.618 42.1182 248.998 42.1182C250.973 42.1182 252.605 41.53 253.892 40.3535C255.179 39.1575 255.823 37.4418 255.823 35.2065Z" fill="#D5FFFA"/>
<path d="M227.732 44.3527C225.502 44.3527 223.616 43.6958 222.075 42.3821C220.548 41.0684 219.388 39.235 218.595 36.8821C217.802 34.5291 217.405 31.7742 217.405 28.6174C217.405 25.4801 217.802 22.7252 218.595 20.3527C219.388 17.9801 220.548 16.137 222.075 14.8232C223.616 13.4899 225.502 12.8232 227.732 12.8232C229.947 12.8232 231.826 13.4899 233.367 14.8232C234.909 16.137 236.076 17.9801 236.869 20.3527C237.663 22.7056 238.059 25.4507 238.059 28.588C238.059 31.7448 237.663 34.5095 236.869 36.8821C236.076 39.235 234.909 41.0684 233.367 42.3821C231.826 43.6958 229.947 44.3527 227.732 44.3527ZM227.732 42.1762C230.426 42.1762 232.439 40.9507 233.771 38.4997C235.103 36.0291 235.769 32.735 235.769 28.6174C235.769 24.5193 235.096 21.2252 233.749 18.735C232.417 16.2448 230.411 14.9997 227.732 14.9997C225.053 15.0193 223.04 16.2644 221.693 18.735C220.346 21.186 219.673 24.4899 219.673 28.6468C219.673 32.7644 220.346 36.0487 221.693 38.4997C223.055 40.9507 225.068 42.1762 227.732 42.1762Z" fill="#D5FFFA"/>
<path d="M214.69 13.4404C214.855 13.4404 214.937 13.5581 214.937 13.7934L214.892 27.7051L214.937 43.3816C214.937 43.6169 214.855 43.7346 214.69 43.7346H212.917C212.737 43.7346 212.647 43.6169 212.647 43.3816L212.715 27.7051L212.67 15.7346H199.896L199.828 27.7051L199.896 43.3816C199.896 43.6169 199.806 43.7346 199.626 43.7346H197.853C197.688 43.7346 197.606 43.6169 197.606 43.3816L197.651 27.7051L197.606 13.7934C197.606 13.5581 197.688 13.4404 197.853 13.4404H214.69Z" fill="#D5FFFA"/>
<path d="M185.765 44.3527C183.55 44.3527 181.687 43.7056 180.175 42.4115C178.678 41.0978 177.541 39.2742 176.763 36.9409C175.999 34.588 175.618 31.8331 175.618 28.6762C175.618 25.5193 175.999 22.7546 176.763 20.3821C177.541 18.0095 178.686 16.1566 180.197 14.8232C181.724 13.4899 183.595 12.8232 185.81 12.8232C188.609 12.8232 190.801 13.7938 192.388 15.735C193.989 17.6566 194.902 20.1958 195.127 23.3527C195.157 23.588 195.074 23.7056 194.88 23.7056H193.331C193.166 23.7056 193.069 23.5978 193.039 23.3821C192.754 20.7154 191.991 18.6566 190.749 17.2056C189.507 15.7546 187.86 15.0291 185.81 15.0291C183.131 15.0291 181.14 16.2742 179.838 18.7644C178.551 21.235 177.908 24.5389 177.908 28.6762C177.908 32.8135 178.551 36.0978 179.838 38.5291C181.125 40.9409 183.101 42.1566 185.765 42.1762C188.025 42.1762 189.799 41.3527 191.086 39.7056C192.388 38.0389 193.129 35.7742 193.308 32.9115C193.338 32.6958 193.435 32.588 193.6 32.588H195.172C195.351 32.588 195.433 32.686 195.418 32.8821C195.284 35.0978 194.827 37.0684 194.049 38.7939C193.271 40.5193 192.186 41.8821 190.794 42.8821C189.417 43.8625 187.741 44.3527 185.765 44.3527Z" fill="#D5FFFA"/>
<path d="M175.683 13.4404C175.788 13.4404 175.855 13.4796 175.885 13.5581C175.915 13.6365 175.9 13.7345 175.84 13.8522L168.319 26.8228L176.828 43.3228C176.888 43.4208 176.903 43.5189 176.873 43.6169C176.843 43.6954 176.776 43.7346 176.671 43.7346H174.65C174.516 43.7346 174.418 43.6561 174.358 43.4993L172.697 40.0875L166.501 28.3522H162.932L162.976 43.3816C162.976 43.6169 162.887 43.7346 162.707 43.7346H160.933C160.769 43.7346 160.687 43.6169 160.687 43.3816L160.731 27.7051L160.687 13.7934C160.687 13.5581 160.769 13.4404 160.933 13.4404H162.707C162.887 13.4404 162.976 13.5581 162.976 13.7934L162.932 26.0875H166.568L173.573 13.6463C173.648 13.5091 173.76 13.4404 173.909 13.4404H175.683Z" fill="#D5FFFA"/>
<path d="M148.284 12.8232C150.529 12.8232 152.385 13.4899 153.852 14.8232C155.319 16.1566 156.419 18.0095 157.152 20.3821C157.886 22.7546 158.252 25.5193 158.252 28.6762C158.252 31.8331 157.863 34.588 157.085 36.9409C156.322 39.2742 155.184 41.0978 153.672 42.4115C152.176 43.7056 150.327 44.3527 148.127 44.3527C146.152 44.3527 144.468 43.8625 143.076 42.8821C141.684 41.8821 140.599 40.5292 139.821 38.8233C139.058 37.0978 138.601 35.137 138.451 32.9409C138.421 32.7056 138.511 32.588 138.721 32.588H140.292C140.442 32.588 140.532 32.6958 140.562 32.9115C140.756 35.7154 141.482 37.9605 142.739 39.6468C144.012 41.3331 145.807 42.1762 148.127 42.1762C150.657 42.1762 152.587 41.0389 153.919 38.7644C155.266 36.4899 155.947 33.186 155.962 28.8527H144.827C144.648 28.8527 144.558 28.735 144.558 28.4997V26.9997C144.558 26.784 144.648 26.6762 144.827 26.6762H155.917C155.753 23.1076 155.049 20.2742 153.807 18.1762C152.58 16.0781 150.731 15.0291 148.262 15.0291C146.137 15.0291 144.453 15.7742 143.211 17.2644C141.984 18.735 141.22 20.7742 140.921 23.3821C140.891 23.5978 140.794 23.7056 140.629 23.7056H139.058C138.863 23.7056 138.781 23.6076 138.811 23.4115C138.96 21.2938 139.424 19.4409 140.203 17.8527C140.996 16.2644 142.073 15.0291 143.435 14.1468C144.797 13.2644 146.414 12.8232 148.284 12.8232Z" fill="#D5FFFA"/>
<path d="M127.701 13.7934C127.701 13.5581 127.784 13.4404 127.948 13.4404H129.722C129.901 13.4404 129.991 13.5581 129.991 13.7934L129.924 27.7051L129.991 43.3816C129.991 43.6169 129.901 43.7346 129.722 43.7346H127.948C127.784 43.7346 127.701 43.6169 127.701 43.3816L127.746 28.7346H114.546L114.613 43.3816C114.613 43.6169 114.523 43.7346 114.344 43.7346H112.57C112.406 43.7346 112.323 43.6169 112.323 43.3816L112.368 27.7051L112.323 13.7934C112.323 13.5581 112.406 13.4404 112.57 13.4404H114.344C114.523 13.4404 114.613 13.5581 114.613 13.7934L114.546 26.4404H127.746L127.701 13.7934Z" fill="#D5FFFA"/>
<path d="M91.4139 43.7353C91.2343 43.7353 91.1445 43.6177 91.1445 43.3824L91.1894 27.6471L91.1445 13.7941C91.1445 13.5588 91.2268 13.4412 91.3915 13.4412H93.165C93.3296 13.4412 93.412 13.5588 93.412 13.7941L93.3671 27.6765L93.3446 40.5L106.208 13.6765C106.268 13.5196 106.373 13.4412 106.523 13.4412H108.745C108.925 13.4412 109.015 13.5588 109.015 13.7941L108.947 27.7059L109.015 43.3824C109.015 43.6177 108.925 43.7353 108.745 43.7353H106.994C106.83 43.7353 106.747 43.6177 106.747 43.3824L106.792 27.7647L106.815 16.8235L94.0406 43.5C93.9807 43.6569 93.8759 43.7353 93.7263 43.7353H91.4139ZM100.057 10.7647C101.778 10.7647 103.125 10.1177 104.098 8.82353C105.071 7.52942 105.557 5.92157 105.557 4H103.559C103.559 5.33333 103.275 6.46079 102.706 7.38236C102.137 8.30393 101.262 8.76471 100.08 8.76471C98.8523 8.76471 97.9618 8.30393 97.4081 7.38236C96.8693 6.46079 96.5999 5.33333 96.5999 4H94.6018C94.6018 5.92157 95.0807 7.52942 96.0386 8.82353C97.0114 10.1177 98.3509 10.7647 100.057 10.7647Z" fill="#D5FFFA"/>
<path d="M85.5795 13.7947C85.5795 13.5594 85.6619 13.4418 85.8265 13.4418H87.5551C87.7347 13.4418 87.8245 13.5594 87.8245 13.7947L87.7123 28.03L87.8245 43.383C87.8245 43.6182 87.7347 43.7359 87.5551 43.7359H85.8265C85.6619 43.7359 85.5795 43.6182 85.5795 43.383L85.6693 37.4418C84.9659 39.5398 83.9631 41.2065 82.661 42.4418C81.3589 43.6575 79.765 44.2653 77.8792 44.2653C75.8737 44.2653 74.1825 43.579 72.8056 42.2065C71.4286 40.8143 70.3885 38.932 69.685 36.5594C68.9816 34.1869 68.6299 31.5398 68.6299 28.6182C68.6299 25.7163 68.9891 23.079 69.7075 20.7065C70.4259 18.3143 71.4735 16.4123 72.8505 15.0006C74.2274 13.5692 75.9111 12.8535 77.9017 12.8535C81.5984 12.8535 84.1876 15.0986 85.6693 19.5888L85.5795 13.7947ZM78.3282 42.0888C80.5582 42.0888 82.3467 40.9908 83.6937 38.7947C85.0557 36.579 85.7442 33.2751 85.7591 28.8829C85.7891 24.53 85.153 21.1378 83.8509 18.7065C82.5488 16.2751 80.7229 15.0496 78.3731 15.03C76.652 15.03 75.2376 15.628 74.1301 16.8241C73.0226 18.0006 72.1994 19.5986 71.6606 21.6182C71.1368 23.6182 70.8749 25.8437 70.8749 28.2947C70.8749 30.8241 71.1368 33.1378 71.6606 35.2359C72.1844 37.3339 72.9926 39.0006 74.0852 40.2359C75.1927 41.4712 76.6071 42.0888 78.3282 42.0888Z" fill="#D5FFFA"/>
<path d="M47.9779 44.0287C47.7833 44.0287 47.5962 44.0091 47.4166 43.9699C47.237 43.9503 47.0649 43.911 46.9003 43.8522C46.7506 43.8326 46.6758 43.715 46.6758 43.4993V41.9993C46.6758 41.7444 46.7731 41.6365 46.9676 41.6757C47.1023 41.715 47.237 41.7444 47.3717 41.764C47.5064 41.7836 47.6336 41.7934 47.7534 41.7934C48.6813 41.7934 49.3249 41.3522 49.6841 40.4699C50.0582 39.5679 50.3201 37.911 50.4698 35.4993C50.5446 34.4404 50.6195 33.0581 50.6943 31.3522C50.7691 29.6267 50.8365 27.7542 50.8964 25.7346C50.9712 23.6953 51.0385 21.6463 51.0984 19.5875C51.1732 17.5091 51.2331 15.5679 51.278 13.764C51.278 13.5483 51.3603 13.4404 51.5249 13.4404H65.8031C65.9827 13.4404 66.0725 13.5483 66.0725 13.764L66.0949 27.764L66.2296 43.3816C66.2296 43.6169 66.1398 43.7346 65.9602 43.7346H64.2091C64.0295 43.7346 63.9397 43.6267 63.9397 43.411L63.9173 27.764L63.805 15.6757H53.2311C53.1862 16.9502 53.1339 18.4698 53.074 20.2346C53.0291 21.9797 52.9692 23.8032 52.8944 25.7051C52.8345 27.5875 52.7672 29.362 52.6923 31.0287C52.6325 32.6954 52.5726 34.0973 52.5127 35.2346C52.393 37.2346 52.1984 38.8816 51.929 40.1757C51.6596 41.4699 51.2181 42.4405 50.6045 43.0875C49.9909 43.715 49.1153 44.0287 47.9779 44.0287Z" fill="#D5FFFA"/>
<path d="M42.4621 13.7934C42.4621 13.5581 42.5445 13.4404 42.7091 13.4404H44.4826C44.6622 13.4404 44.752 13.5581 44.752 13.7934L44.6847 27.7051L44.752 43.3816C44.752 43.6169 44.6622 43.7346 44.4826 43.7346H42.7091C42.5445 43.7346 42.4621 43.6169 42.4621 43.3816L42.507 28.7346H29.3065L29.3739 43.3816C29.3739 43.6169 29.2841 43.7346 29.1045 43.7346H27.3309C27.1663 43.7346 27.084 43.6169 27.084 43.3816L27.1289 27.7051L27.084 13.7934C27.084 13.5581 27.1663 13.4404 27.3309 13.4404H29.1045C29.2841 13.4404 29.3739 13.5581 29.3739 13.7934L29.3065 26.4404H42.507L42.4621 13.7934Z" fill="#D5FFFA"/>
<path d="M14.3269 44.3527C12.0969 44.3527 10.2111 43.6958 8.66957 42.3821C7.14298 41.0684 5.98307 39.235 5.18984 36.8821C4.39661 34.5291 4 31.7742 4 28.6174C4 25.4801 4.39661 22.7252 5.18984 20.3527C5.98307 17.9801 7.14298 16.137 8.66957 14.8232C10.2111 13.4899 12.0969 12.8232 14.3269 12.8232C16.542 12.8232 18.4203 13.4899 19.9619 14.8232C21.5034 16.137 22.6708 17.9801 23.464 20.3527C24.2573 22.7056 24.6539 25.4507 24.6539 28.588C24.6539 31.7448 24.2573 34.5095 23.464 36.8821C22.6708 39.235 21.5034 41.0684 19.9619 42.3821C18.4203 43.6958 16.542 44.3527 14.3269 44.3527ZM14.3269 42.1762C17.0209 42.1762 19.0339 40.9507 20.366 38.4997C21.698 36.0291 22.364 32.735 22.364 28.6174C22.364 24.5193 21.6905 21.2252 20.3435 18.735C19.0115 16.2448 17.006 14.9997 14.3269 14.9997C11.6479 15.0193 9.63491 16.2644 8.28792 18.735C6.94093 21.186 6.26744 24.4899 6.26744 28.6468C6.26744 32.7644 6.94093 36.0487 8.28792 38.4997C9.64988 40.9507 11.6629 42.1762 14.3269 42.1762Z" fill="#D5FFFA"/>
</g>
<path d="M431.823 114.999C431.658 114.999 431.576 114.891 431.576 114.676L431.621 100.676L431.576 85.0286C431.576 84.8129 431.665 84.7051 431.845 84.7051H433.619C433.783 84.7051 433.866 84.8129 433.866 85.0286L433.821 97.0286H438.737C441.551 97.0286 443.758 97.7345 445.36 99.1463C446.961 100.558 447.762 102.813 447.762 105.911C447.762 109.185 446.939 111.519 445.293 112.911C443.646 114.303 441.461 114.999 438.737 114.999H431.823ZM433.866 112.793H438.692C440.758 112.793 442.411 112.303 443.654 111.323C444.896 110.342 445.517 108.568 445.517 105.999C445.517 103.627 444.926 101.911 443.744 100.852C442.576 99.7737 440.892 99.2345 438.692 99.2345H433.821L433.866 112.793ZM449.67 114.999C449.491 114.999 449.401 114.882 449.401 114.646L449.468 100.735L449.401 85.058C449.401 84.8227 449.491 84.7051 449.67 84.7051H451.444C451.608 84.7051 451.691 84.8227 451.691 85.058L451.646 100.735L451.691 114.646C451.691 114.882 451.608 114.999 451.444 114.999H449.67Z" fill="#11FFE2"/>
<path d="M407.646 122.117C407.467 122.117 407.377 121.999 407.377 121.764V113.058C407.377 112.842 407.467 112.735 407.646 112.735H409.038C409.682 111.774 410.161 110.607 410.475 109.235C410.789 107.862 411.036 106.078 411.216 103.882C411.351 102.313 411.47 100.45 411.575 98.2933C411.695 96.1169 411.8 93.8718 411.889 91.558C411.979 89.2443 412.047 87.0776 412.091 85.058C412.106 84.8227 412.196 84.7051 412.361 84.7051H426.437C426.616 84.7051 426.706 84.8227 426.706 85.058L426.819 98.8816L427.065 112.735L429.49 112.705C429.67 112.705 429.759 112.823 429.759 113.058V121.764C429.759 121.999 429.67 122.117 429.49 122.117H427.986C427.806 122.117 427.717 121.999 427.717 121.764L427.649 114.999H409.51L409.442 121.764C409.442 121.999 409.353 122.117 409.173 122.117H407.646ZM411.373 112.735H424.798L424.686 98.8816L424.506 86.9992H414.067C413.962 90.0972 413.835 93.1953 413.685 96.2933C413.536 99.3718 413.371 101.97 413.191 104.087C412.997 106.44 412.742 108.235 412.428 109.47C412.114 110.705 411.762 111.793 411.373 112.735Z" fill="#11FFE2"/>
<path d="M398.695 115.617C396.405 115.617 394.482 114.96 392.925 113.647C391.384 112.313 390.216 110.48 389.423 108.147C388.63 105.794 388.233 103.058 388.233 99.9408C388.233 96.8428 388.645 94.1075 389.468 91.735C390.291 89.3428 391.459 87.4702 392.97 86.1173C394.497 84.7644 396.308 84.0879 398.403 84.0879C401.471 84.0879 403.881 85.4212 405.632 88.0879C407.383 90.7546 408.281 94.5095 408.326 99.3526C408.326 99.5879 408.236 99.7055 408.057 99.7055H390.501C390.516 104.274 391.227 107.706 392.634 110C394.04 112.294 396.061 113.441 398.695 113.441C400.82 113.441 402.482 112.657 403.679 111.088C404.876 109.5 405.654 107.333 406.014 104.588C406.029 104.372 406.118 104.264 406.283 104.264H407.922C408.131 104.264 408.221 104.382 408.191 104.617C407.922 106.892 407.391 108.853 406.597 110.5C405.819 112.127 404.771 113.392 403.454 114.294C402.137 115.176 400.551 115.617 398.695 115.617ZM390.591 97.4703H405.924C405.909 95.3918 405.617 93.5095 405.048 91.8232C404.495 90.1173 403.656 88.7644 402.534 87.7644C401.426 86.7644 400.05 86.2644 398.403 86.2644C396.083 86.2644 394.265 87.2742 392.948 89.2938C391.631 91.3134 390.845 94.0389 390.591 97.4703Z" fill="#11FFE2"/>
<path d="M361.821 115C361.642 115 361.552 114.882 361.552 114.647L361.597 98.9117L361.552 85.0588C361.552 84.8235 361.634 84.7058 361.799 84.7058H363.572C363.737 84.7058 363.819 84.8235 363.819 85.0588L363.774 98.9411L363.752 111.765L376.616 84.9411C376.676 84.7843 376.78 84.7058 376.93 84.7058H379.152C379.332 84.7058 379.422 84.8235 379.422 85.0588L379.354 98.9706L379.422 114.647C379.422 114.882 379.332 115 379.152 115H377.401C377.237 115 377.154 114.882 377.154 114.647L377.199 99.0294L377.222 88.0882L364.448 114.765C364.388 114.922 364.283 115 364.133 115H361.821ZM370.464 82.0294C372.186 82.0294 373.532 81.3823 374.505 80.0882C375.478 78.7941 375.965 77.1862 375.965 75.2646H373.967C373.967 76.598 373.682 77.7254 373.113 78.647C372.545 79.5686 371.669 80.0294 370.487 80.0294C369.26 80.0294 368.369 79.5686 367.815 78.647C367.276 77.7254 367.007 76.598 367.007 75.2646H365.009C365.009 77.1862 365.488 78.7941 366.446 80.0882C367.419 81.3823 368.758 82.0294 370.464 82.0294Z" fill="#11FFE2"/>
<path d="M348.795 115.617C346.565 115.617 344.679 114.96 343.137 113.647C341.611 112.333 340.451 110.5 339.658 108.147C338.864 105.794 338.468 103.039 338.468 99.882C338.468 96.7448 338.864 93.9899 339.658 91.6173C340.451 89.2448 341.611 87.4016 343.137 86.0879C344.679 84.7546 346.565 84.0879 348.795 84.0879C351.01 84.0879 352.888 84.7546 354.43 86.0879C355.971 87.4016 357.139 89.2448 357.932 91.6173C358.725 93.9703 359.122 96.7154 359.122 99.8526C359.122 103.009 358.725 105.774 357.932 108.147C357.139 110.5 355.971 112.333 354.43 113.647C352.888 114.96 351.01 115.617 348.795 115.617ZM348.795 113.441C351.489 113.441 353.502 112.215 354.834 109.764C356.166 107.294 356.832 104 356.832 99.882C356.832 95.784 356.158 92.4899 354.811 89.9997C353.479 87.5095 351.474 86.2644 348.795 86.2644C346.116 86.284 344.103 87.5291 342.756 89.9997C341.409 92.4506 340.735 95.7546 340.735 99.9114C340.735 104.029 341.409 107.313 342.756 109.764C344.118 112.215 346.131 113.441 348.795 113.441Z" fill="#11FFE2"/>
<path d="M331.449 98.6757V98.7345C333.439 99.3031 334.854 100.235 335.692 101.529C336.53 102.803 336.949 104.44 336.949 106.44C336.949 107.989 336.709 109.313 336.23 110.411C335.766 111.509 335.123 112.401 334.3 113.087C333.477 113.754 332.526 114.244 331.449 114.558C330.371 114.852 329.226 114.999 328.014 114.999H319.618C319.453 114.999 319.371 114.882 319.371 114.646L319.415 98.9698L319.393 85.058C319.393 84.8227 319.483 84.7051 319.662 84.7051H328.036C330.611 84.7051 332.624 85.3325 334.075 86.5874C335.527 87.8423 336.253 89.6953 336.253 92.1463C336.253 94.009 335.826 95.46 334.973 96.4992C334.12 97.5384 332.945 98.2639 331.449 98.6757ZM327.969 86.911H321.638L321.593 97.7345H327.991C329.847 97.7345 331.314 97.3325 332.392 96.5286C333.469 95.7247 334.008 94.3227 334.008 92.3227C334.008 90.5384 333.462 89.1953 332.369 88.2933C331.277 87.3717 329.81 86.911 327.969 86.911ZM321.593 112.793H327.969C329.989 112.793 331.613 112.284 332.841 111.264C334.083 110.225 334.704 108.538 334.704 106.205C334.704 104.735 334.39 103.538 333.761 102.617C333.132 101.676 332.309 100.989 331.291 100.558C330.274 100.127 329.181 99.911 328.014 99.911H321.593V112.793Z" fill="#11FFE2"/>
<path d="M298.462 114.999C298.282 114.999 298.192 114.882 298.192 114.646L298.237 98.911L298.192 85.058C298.192 84.8227 298.275 84.7051 298.439 84.7051H300.213C300.378 84.7051 300.46 84.8227 300.46 85.058L300.415 98.9404L300.392 111.764L313.256 84.9404C313.316 84.7835 313.421 84.7051 313.571 84.7051H315.793C315.973 84.7051 316.062 84.8227 316.062 85.058L315.995 98.9698L316.062 114.646C316.062 114.882 315.973 114.999 315.793 114.999H314.042C313.877 114.999 313.795 114.882 313.795 114.646L313.84 99.0286L313.862 88.0874L301.088 114.764C301.029 114.921 300.924 114.999 300.774 114.999H298.462Z" fill="#11FFE2"/>
<path d="M276.598 115.293C276.403 115.293 276.216 115.274 276.037 115.235C275.857 115.215 275.685 115.176 275.52 115.117C275.371 115.097 275.296 114.98 275.296 114.764V113.264C275.296 113.009 275.393 112.901 275.588 112.94C275.722 112.98 275.857 113.009 275.992 113.029C276.127 113.048 276.254 113.058 276.373 113.058C277.301 113.058 277.945 112.617 278.304 111.735C278.678 110.833 278.94 109.176 279.09 106.764C279.165 105.705 279.24 104.323 279.314 102.617C279.389 100.891 279.457 99.0188 279.516 96.9992C279.591 94.96 279.659 92.911 279.719 90.8521C279.793 88.7737 279.853 86.8325 279.898 85.0286C279.898 84.8129 279.98 84.7051 280.145 84.7051H294.423C294.603 84.7051 294.693 84.8129 294.693 85.0286L294.715 99.0286L294.85 114.646C294.85 114.882 294.76 114.999 294.58 114.999H292.829C292.65 114.999 292.56 114.891 292.56 114.676L292.537 99.0286L292.425 86.9404H281.851C281.806 88.2149 281.754 89.7345 281.694 91.4992C281.649 93.2443 281.589 95.0678 281.514 96.9698C281.455 98.8522 281.387 100.627 281.312 102.293C281.253 103.96 281.193 105.362 281.133 106.499C281.013 108.499 280.819 110.146 280.549 111.44C280.28 112.735 279.838 113.705 279.225 114.352C278.611 114.98 277.735 115.293 276.598 115.293Z" fill="#11FFE2"/>
<path d="M251.944 122.117C251.765 122.117 251.675 121.999 251.675 121.764V113.058C251.675 112.842 251.765 112.735 251.944 112.735H253.336C253.98 111.774 254.459 110.607 254.773 109.235C255.087 107.862 255.334 106.078 255.514 103.882C255.648 102.313 255.768 100.45 255.873 98.2933C255.993 96.1169 256.097 93.8718 256.187 91.558C256.277 89.2443 256.344 87.0776 256.389 85.058C256.404 84.8227 256.494 84.7051 256.659 84.7051H270.735C270.914 84.7051 271.004 84.8227 271.004 85.058L271.116 98.8816L271.363 112.735L273.788 112.705C273.968 112.705 274.057 112.823 274.057 113.058V121.764C274.057 121.999 273.968 122.117 273.788 122.117H272.284C272.104 122.117 272.014 121.999 272.014 121.764L271.947 114.999H253.808L253.74 121.764C253.74 121.999 253.65 122.117 253.471 122.117H251.944ZM255.671 112.735H269.096L268.984 98.8816L268.804 86.9992H258.365C258.26 90.0972 258.133 93.1953 257.983 96.2933C257.834 99.3718 257.669 101.97 257.489 104.087C257.295 106.44 257.04 108.235 256.726 109.47C256.412 110.705 256.06 111.793 255.671 112.735Z" fill="#11FFE2"/>
<path d="M242.377 115.617C240.147 115.617 238.261 114.96 236.72 113.647C235.193 112.333 234.033 110.5 233.24 108.147C232.447 105.794 232.05 103.039 232.05 99.882C232.05 96.7448 232.447 93.9899 233.24 91.6173C234.033 89.2448 235.193 87.4016 236.72 86.0879C238.261 84.7546 240.147 84.0879 242.377 84.0879C244.592 84.0879 246.471 84.7546 248.012 86.0879C249.554 87.4016 250.721 89.2448 251.514 91.6173C252.308 93.9703 252.704 96.7154 252.704 99.8526C252.704 103.009 252.308 105.774 251.514 108.147C250.721 110.5 249.554 112.333 248.012 113.647C246.471 114.96 244.592 115.617 242.377 115.617ZM242.377 113.441C245.071 113.441 247.084 112.215 248.416 109.764C249.748 107.294 250.414 104 250.414 99.882C250.414 95.784 249.741 92.4899 248.394 89.9997C247.062 87.5095 245.056 86.2644 242.377 86.2644C239.698 86.284 237.685 87.5291 236.338 89.9997C234.991 92.4506 234.318 95.7546 234.318 99.9114C234.318 104.029 234.991 107.313 236.338 109.764C237.7 112.215 239.713 113.441 242.377 113.441Z" fill="#11FFE2"/>
<path d="M220.99 84.0586C222.996 84.0586 224.687 84.7547 226.064 86.1468C227.441 87.539 228.481 89.4213 229.184 91.7939C229.888 94.1664 230.24 96.8233 230.24 99.7645C230.24 102.666 229.88 105.314 229.162 107.706C228.444 110.098 227.396 112.01 226.019 113.441C224.642 114.872 222.958 115.588 220.968 115.588C217.316 115.588 214.757 113.392 213.29 109L213.357 124.647C213.357 124.882 213.267 125 213.088 125H211.314C211.15 125 211.067 124.882 211.067 124.647L211.157 101L211.067 85.0586C211.067 84.8233 211.15 84.7057 211.314 84.7057H213.043C213.223 84.7057 213.312 84.8233 213.312 85.0586L213.2 90.9998C213.919 88.8625 214.936 87.1762 216.253 85.941C217.585 84.6861 219.164 84.0586 220.99 84.0586ZM220.496 113.382C222.232 113.382 223.647 112.784 224.739 111.588C225.847 110.392 226.663 108.794 227.186 106.794C227.725 104.774 227.995 102.539 227.995 100.088C227.995 97.539 227.733 95.2253 227.209 93.1468C226.685 91.0488 225.877 89.3821 224.784 88.1468C223.692 86.8919 222.277 86.2645 220.541 86.2645C218.326 86.2645 216.538 87.3821 215.176 89.6174C213.829 91.8331 213.14 95.1272 213.11 99.4998C213.095 103.872 213.731 107.284 215.019 109.735C216.321 112.166 218.147 113.382 220.496 113.382Z" fill="#11FFE2"/>
<path d="M199.444 114.94L190.397 85.0874C190.322 84.8325 190.389 84.7051 190.599 84.7051H192.574C192.724 84.7051 192.821 84.7933 192.866 84.9698L200.522 110.911L207.122 84.9992C207.167 84.8031 207.264 84.7051 207.414 84.7051H209.255C209.479 84.7051 209.554 84.8325 209.479 85.0874L198.883 124.735C198.838 124.911 198.741 124.999 198.591 124.999H197.019C196.795 124.999 196.72 124.872 196.795 124.617L199.444 114.94Z" fill="#11FFE2"/>
<path d="M435.296 43.7346C435.056 43.7346 435.004 43.5973 435.138 43.3228L440.975 30.411C439.12 30.1169 437.623 29.2934 436.485 27.9404C435.363 26.5679 434.802 24.5483 434.802 21.8816C434.802 19.0777 435.55 16.9698 437.047 15.5581C438.558 14.1463 440.624 13.4404 443.243 13.4404H451.46C451.624 13.4404 451.706 13.5581 451.706 13.7934L451.662 27.8228L451.706 43.3816C451.706 43.6169 451.624 43.7346 451.46 43.7346H449.641C449.476 43.7346 449.394 43.6169 449.394 43.3816L449.461 30.6169H443.086L439.09 39.8522L437.473 43.4993C437.413 43.6561 437.316 43.7346 437.181 43.7346H435.296ZM442.974 28.411H449.484L449.394 15.6463H442.929C441.118 15.6463 439.681 16.2051 438.618 17.3228C437.571 18.4208 437.047 19.9502 437.047 21.911C437.047 24.1267 437.571 25.764 438.618 26.8228C439.681 27.8816 441.133 28.411 442.974 28.411Z" fill="#11FFE2"/>
<path d="M423.513 44.3527C421.223 44.3527 419.3 43.6958 417.743 42.3821C416.202 41.0488 415.034 39.2154 414.241 36.8821C413.448 34.5291 413.051 31.7938 413.051 28.6762C413.051 25.5782 413.463 22.8429 414.286 20.4703C415.109 18.0781 416.277 16.2056 417.788 14.8527C419.315 13.4997 421.126 12.8232 423.221 12.8232C426.289 12.8232 428.699 14.1566 430.45 16.8232C432.201 19.4899 433.099 23.2448 433.144 28.088C433.144 28.3233 433.054 28.4409 432.875 28.4409H415.319C415.334 33.0095 416.045 36.4409 417.451 38.735C418.858 41.0291 420.879 42.1762 423.513 42.1762C425.638 42.1762 427.299 41.3919 428.497 39.8233C429.694 38.235 430.472 36.0684 430.832 33.3233C430.847 33.1076 430.936 32.9997 431.101 32.9997H432.74C432.949 32.9997 433.039 33.1174 433.009 33.3527C432.74 35.6272 432.209 37.588 431.415 39.235C430.637 40.8625 429.589 42.1272 428.272 43.0292C426.955 43.9115 425.369 44.3527 423.513 44.3527ZM415.409 26.2056H430.742C430.727 24.1272 430.435 22.2448 429.866 20.5585C429.312 18.8527 428.474 17.4997 427.352 16.4997C426.244 15.4997 424.867 14.9997 423.221 14.9997C420.901 14.9997 419.083 16.0095 417.766 18.0291C416.449 20.0487 415.663 22.7742 415.409 26.2056Z" fill="#11FFE2"/>
<path d="M409.332 35.2065C409.332 33.6378 409.011 32.3731 408.367 31.4124C407.738 30.4516 406.908 29.7555 405.875 29.3241C404.857 28.8927 403.757 28.6771 402.575 28.6771H399.477C399.297 28.6771 399.207 28.5594 399.207 28.3241V26.8241C399.207 26.5888 399.297 26.4712 399.477 26.4712H402.575C404.446 26.4712 405.92 26.03 406.997 25.1476C408.09 24.2653 408.636 22.8339 408.636 20.8535C408.636 18.9908 408.083 17.5496 406.975 16.53C405.882 15.5104 404.401 15.0006 402.53 15.0006C401.318 15.0006 400.203 15.2457 399.185 15.7359C398.167 16.2261 397.344 16.9908 396.715 18.03C396.102 19.0496 395.765 20.3829 395.705 22.03C395.705 22.2457 395.615 22.3535 395.436 22.3535H393.864C393.685 22.3535 393.602 22.2359 393.617 22.0006C393.677 19.8829 394.111 18.1476 394.919 16.7947C395.728 15.4418 396.798 14.4516 398.13 13.8241C399.462 13.177 400.944 12.8535 402.575 12.8535C405.104 12.8535 407.117 13.5104 408.614 14.8241C410.111 16.1378 410.859 18.0888 410.859 20.6771C410.859 22.5202 410.432 24.0006 409.579 25.1182C408.726 26.2359 407.559 27.0006 406.077 27.4124V27.4712C407.993 28.0398 409.385 28.981 410.253 30.2947C411.136 31.5888 411.577 33.2849 411.577 35.3829C411.577 36.8535 411.338 38.1477 410.859 39.2653C410.38 40.383 409.721 41.3143 408.883 42.0594C408.045 42.8045 407.08 43.3633 405.987 43.7359C404.895 44.128 403.727 44.3241 402.485 44.3241C399.522 44.3241 397.209 43.4222 395.548 41.6182C393.902 39.8143 393.049 37.0398 392.989 33.2947C392.989 33.0594 393.079 32.9418 393.258 32.9418H394.875C395.039 32.9418 395.122 33.0594 395.122 33.2947C395.181 36.2947 395.832 38.5202 397.075 39.9712C398.317 41.4026 400.128 42.1182 402.507 42.1182C404.483 42.1182 406.114 41.53 407.402 40.3535C408.689 39.1575 409.332 37.4418 409.332 35.2065Z" fill="#11FFE2"/>
<path d="M383.033 43.6757L373.986 13.8228C373.911 13.5679 373.979 13.4404 374.188 13.4404H376.164C376.313 13.4404 376.411 13.5287 376.456 13.7051L384.111 39.6463L390.711 13.7345C390.756 13.5385 390.853 13.4404 391.003 13.4404H392.844C393.068 13.4404 393.143 13.5679 393.068 13.8228L382.472 53.4699C382.427 53.6463 382.33 53.7346 382.18 53.7346H380.609C380.384 53.7346 380.309 53.6071 380.384 53.3522L383.033 43.6757Z" fill="#11FFE2"/>
<path d="M350.398 43.7346C350.234 43.7346 350.151 43.6169 350.151 43.3816L350.196 29.1169L350.174 13.7934C350.174 13.5581 350.264 13.4404 350.443 13.4404H352.711C352.875 13.4404 352.98 13.5287 353.025 13.7051L361.331 40.1463L369.638 13.7051C369.683 13.5287 369.788 13.4404 369.952 13.4404H372.22C372.399 13.4404 372.489 13.5581 372.489 13.7934L372.444 29.1169L372.489 43.3816C372.489 43.6169 372.399 43.7346 372.22 43.7346H370.603C370.424 43.7346 370.334 43.6169 370.334 43.3816L370.379 29.2934L370.401 17.0581L362.14 43.4699C362.08 43.6463 361.975 43.7346 361.825 43.7346H360.613C360.448 43.7346 360.344 43.6463 360.299 43.4699L351.992 17.1169L352.015 29.2934L352.104 43.3816C352.104 43.6169 352.015 43.7346 351.835 43.7346H350.398Z" fill="#11FFE2"/>
<path d="M323.836 43.7346C323.596 43.7346 323.544 43.5973 323.679 43.3228L329.515 30.411C327.66 30.1169 326.163 29.2934 325.026 27.9404C323.903 26.5679 323.342 24.5483 323.342 21.8816C323.342 19.0777 324.09 16.9698 325.587 15.5581C327.098 14.1463 329.164 13.4404 331.783 13.4404H340C340.164 13.4404 340.247 13.5581 340.247 13.7934L340.202 27.8228L340.247 43.3816C340.247 43.6169 340.164 43.7346 340 43.7346H338.181C338.017 43.7346 337.934 43.6169 337.934 43.3816L338.002 30.6169H331.626L327.63 39.8522L326.013 43.4993C325.953 43.6561 325.856 43.7346 325.721 43.7346H323.836ZM331.514 28.411H338.024L337.934 15.6463H331.469C329.658 15.6463 328.221 16.2051 327.158 17.3228C326.111 18.4208 325.587 19.9502 325.587 21.911C325.587 24.1267 326.111 25.764 327.158 26.8228C328.221 27.8816 329.673 28.411 331.514 28.411Z" fill="#11FFE2"/>
<path d="M303.46 43.7346C303.28 43.7346 303.19 43.6169 303.19 43.3816L303.235 27.6463L303.19 13.7934C303.19 13.5581 303.273 13.4404 303.437 13.4404H305.211C305.376 13.4404 305.458 13.5581 305.458 13.7934L305.413 27.6757L305.391 40.4993L318.254 13.6757C318.314 13.5189 318.419 13.4404 318.569 13.4404H320.791C320.971 13.4404 321.061 13.5581 321.061 13.7934L320.993 27.7051L321.061 43.3816C321.061 43.6169 320.971 43.7346 320.791 43.7346H319.04C318.875 43.7346 318.793 43.6169 318.793 43.3816L318.838 27.764L318.86 16.8228L306.086 43.4993C306.027 43.6561 305.922 43.7346 305.772 43.7346H303.46Z" fill="#11FFE2"/>
<path d="M299.627 50.8522C299.447 50.8522 299.357 50.7346 299.357 50.4993L299.29 43.7346H281.689C281.525 43.7346 281.442 43.6169 281.442 43.3816L281.487 27.7051L281.442 13.7934C281.442 13.5581 281.525 13.4404 281.689 13.4404H283.463C283.642 13.4404 283.732 13.5581 283.732 13.7934L283.665 27.7051L283.732 41.4405H296.484L296.529 27.7051L296.461 13.7934C296.461 13.5581 296.551 13.4404 296.731 13.4404H298.504C298.669 13.4404 298.751 13.5581 298.751 13.7934L298.706 27.7051L298.751 41.4405H301.108C301.273 41.4405 301.355 41.5581 301.355 41.7934V50.4993C301.355 50.7346 301.273 50.8522 301.108 50.8522H299.627Z" fill="#11FFE2"/>
<path d="M260.534 43.7346C260.354 43.7346 260.264 43.6169 260.264 43.3816L260.309 27.6463L260.264 13.7934C260.264 13.5581 260.346 13.4404 260.511 13.4404H262.285C262.449 13.4404 262.532 13.5581 262.532 13.7934L262.487 27.6757L262.464 40.4993L275.328 13.6757C275.388 13.5189 275.493 13.4404 275.642 13.4404H277.865C278.044 13.4404 278.134 13.5581 278.134 13.7934L278.067 27.7051L278.134 43.3816C278.134 43.6169 278.044 43.7346 277.865 43.7346H276.114C275.949 43.7346 275.867 43.6169 275.867 43.3816L275.912 27.764L275.934 16.8228L263.16 43.4993C263.1 43.6561 262.996 43.7346 262.846 43.7346H260.534Z" fill="#11FFE2"/>
<path d="M255.823 35.2065C255.823 33.6378 255.501 32.3731 254.857 31.4124C254.229 30.4516 253.398 29.7555 252.365 29.3241C251.347 28.8927 250.247 28.6771 249.065 28.6771H245.967C245.787 28.6771 245.698 28.5594 245.698 28.3241V26.8241C245.698 26.5888 245.787 26.4712 245.967 26.4712H249.065C250.936 26.4712 252.41 26.03 253.488 25.1476C254.58 24.2653 255.127 22.8339 255.127 20.8535C255.127 18.9908 254.573 17.5496 253.465 16.53C252.373 15.5104 250.891 15.0006 249.02 15.0006C247.808 15.0006 246.693 15.2457 245.675 15.7359C244.657 16.2261 243.834 16.9908 243.206 18.03C242.592 19.0496 242.255 20.3829 242.195 22.03C242.195 22.2457 242.106 22.3535 241.926 22.3535H240.355C240.175 22.3535 240.093 22.2359 240.108 22.0006C240.167 19.8829 240.601 18.1476 241.41 16.7947C242.218 15.4418 243.288 14.4516 244.62 13.8241C245.952 13.177 247.434 12.8535 249.065 12.8535C251.594 12.8535 253.607 13.5104 255.104 14.8241C256.601 16.1378 257.349 18.0888 257.349 20.6771C257.349 22.5202 256.923 24.0006 256.069 25.1182C255.216 26.2359 254.049 27.0006 252.567 27.4124V27.4712C254.483 28.0398 255.875 28.981 256.743 30.2947C257.626 31.5888 258.067 33.2849 258.067 35.3829C258.067 36.8535 257.828 38.1477 257.349 39.2653C256.87 40.383 256.212 41.3143 255.374 42.0594C254.535 42.8045 253.57 43.3633 252.477 43.7359C251.385 44.128 250.218 44.3241 248.975 44.3241C246.012 44.3241 243.7 43.4222 242.038 41.6182C240.392 39.8143 239.539 37.0398 239.479 33.2947C239.479 33.0594 239.569 32.9418 239.748 32.9418H241.365C241.529 32.9418 241.612 33.0594 241.612 33.2947C241.672 36.2947 242.323 38.5202 243.565 39.9712C244.807 41.4026 246.618 42.1182 248.998 42.1182C250.973 42.1182 252.605 41.53 253.892 40.3535C255.179 39.1575 255.823 37.4418 255.823 35.2065Z" fill="#11FFE2"/>
<path d="M227.732 44.3527C225.502 44.3527 223.616 43.6958 222.075 42.3821C220.548 41.0684 219.388 39.235 218.595 36.8821C217.802 34.5291 217.405 31.7742 217.405 28.6174C217.405 25.4801 217.802 22.7252 218.595 20.3527C219.388 17.9801 220.548 16.137 222.075 14.8232C223.616 13.4899 225.502 12.8232 227.732 12.8232C229.947 12.8232 231.826 13.4899 233.367 14.8232C234.909 16.137 236.076 17.9801 236.869 20.3527C237.663 22.7056 238.059 25.4507 238.059 28.588C238.059 31.7448 237.663 34.5095 236.869 36.8821C236.076 39.235 234.909 41.0684 233.367 42.3821C231.826 43.6958 229.947 44.3527 227.732 44.3527ZM227.732 42.1762C230.426 42.1762 232.439 40.9507 233.771 38.4997C235.103 36.0291 235.769 32.735 235.769 28.6174C235.769 24.5193 235.096 21.2252 233.749 18.735C232.417 16.2448 230.411 14.9997 227.732 14.9997C225.053 15.0193 223.04 16.2644 221.693 18.735C220.346 21.186 219.673 24.4899 219.673 28.6468C219.673 32.7644 220.346 36.0487 221.693 38.4997C223.055 40.9507 225.068 42.1762 227.732 42.1762Z" fill="#11FFE2"/>
<path d="M214.69 13.4404C214.855 13.4404 214.937 13.5581 214.937 13.7934L214.892 27.7051L214.937 43.3816C214.937 43.6169 214.855 43.7346 214.69 43.7346H212.917C212.737 43.7346 212.647 43.6169 212.647 43.3816L212.715 27.7051L212.67 15.7346H199.896L199.828 27.7051L199.896 43.3816C199.896 43.6169 199.806 43.7346 199.626 43.7346H197.853C197.688 43.7346 197.606 43.6169 197.606 43.3816L197.651 27.7051L197.606 13.7934C197.606 13.5581 197.688 13.4404 197.853 13.4404H214.69Z" fill="#11FFE2"/>
<path d="M185.765 44.3527C183.55 44.3527 181.687 43.7056 180.175 42.4115C178.678 41.0978 177.541 39.2742 176.763 36.9409C175.999 34.588 175.618 31.8331 175.618 28.6762C175.618 25.5193 175.999 22.7546 176.763 20.3821C177.541 18.0095 178.686 16.1566 180.197 14.8232C181.724 13.4899 183.595 12.8232 185.81 12.8232C188.609 12.8232 190.801 13.7938 192.388 15.735C193.989 17.6566 194.902 20.1958 195.127 23.3527C195.157 23.588 195.074 23.7056 194.88 23.7056H193.331C193.166 23.7056 193.069 23.5978 193.039 23.3821C192.754 20.7154 191.991 18.6566 190.749 17.2056C189.507 15.7546 187.86 15.0291 185.81 15.0291C183.131 15.0291 181.14 16.2742 179.838 18.7644C178.551 21.235 177.908 24.5389 177.908 28.6762C177.908 32.8135 178.551 36.0978 179.838 38.5291C181.125 40.9409 183.101 42.1566 185.765 42.1762C188.025 42.1762 189.799 41.3527 191.086 39.7056C192.388 38.0389 193.129 35.7742 193.308 32.9115C193.338 32.6958 193.435 32.588 193.6 32.588H195.172C195.351 32.588 195.433 32.686 195.418 32.8821C195.284 35.0978 194.827 37.0684 194.049 38.7939C193.271 40.5193 192.186 41.8821 190.794 42.8821C189.417 43.8625 187.741 44.3527 185.765 44.3527Z" fill="#11FFE2"/>
<path d="M175.683 13.4404C175.788 13.4404 175.855 13.4796 175.885 13.5581C175.915 13.6365 175.9 13.7345 175.84 13.8522L168.319 26.8228L176.828 43.3228C176.888 43.4208 176.903 43.5189 176.873 43.6169C176.843 43.6954 176.776 43.7346 176.671 43.7346H174.65C174.516 43.7346 174.418 43.6561 174.358 43.4993L172.697 40.0875L166.501 28.3522H162.932L162.976 43.3816C162.976 43.6169 162.887 43.7346 162.707 43.7346H160.933C160.769 43.7346 160.687 43.6169 160.687 43.3816L160.731 27.7051L160.687 13.7934C160.687 13.5581 160.769 13.4404 160.933 13.4404H162.707C162.887 13.4404 162.976 13.5581 162.976 13.7934L162.932 26.0875H166.568L173.573 13.6463C173.648 13.5091 173.76 13.4404 173.909 13.4404H175.683Z" fill="#11FFE2"/>
<path d="M148.284 12.8232C150.529 12.8232 152.385 13.4899 153.852 14.8232C155.319 16.1566 156.419 18.0095 157.152 20.3821C157.886 22.7546 158.252 25.5193 158.252 28.6762C158.252 31.8331 157.863 34.588 157.085 36.9409C156.322 39.2742 155.184 41.0978 153.672 42.4115C152.176 43.7056 150.327 44.3527 148.127 44.3527C146.152 44.3527 144.468 43.8625 143.076 42.8821C141.684 41.8821 140.599 40.5292 139.821 38.8233C139.058 37.0978 138.601 35.137 138.451 32.9409C138.421 32.7056 138.511 32.588 138.721 32.588H140.292C140.442 32.588 140.532 32.6958 140.562 32.9115C140.756 35.7154 141.482 37.9605 142.739 39.6468C144.012 41.3331 145.807 42.1762 148.127 42.1762C150.657 42.1762 152.587 41.0389 153.919 38.7644C155.266 36.4899 155.947 33.186 155.962 28.8527H144.827C144.648 28.8527 144.558 28.735 144.558 28.4997V26.9997C144.558 26.784 144.648 26.6762 144.827 26.6762H155.917C155.753 23.1076 155.049 20.2742 153.807 18.1762C152.58 16.0781 150.731 15.0291 148.262 15.0291C146.137 15.0291 144.453 15.7742 143.211 17.2644C141.984 18.735 141.22 20.7742 140.921 23.3821C140.891 23.5978 140.794 23.7056 140.629 23.7056H139.058C138.863 23.7056 138.781 23.6076 138.811 23.4115C138.96 21.2938 139.424 19.4409 140.203 17.8527C140.996 16.2644 142.073 15.0291 143.435 14.1468C144.797 13.2644 146.414 12.8232 148.284 12.8232Z" fill="#11FFE2"/>
<path d="M127.701 13.7934C127.701 13.5581 127.784 13.4404 127.948 13.4404H129.722C129.901 13.4404 129.991 13.5581 129.991 13.7934L129.924 27.7051L129.991 43.3816C129.991 43.6169 129.901 43.7346 129.722 43.7346H127.948C127.784 43.7346 127.701 43.6169 127.701 43.3816L127.746 28.7346H114.546L114.613 43.3816C114.613 43.6169 114.523 43.7346 114.344 43.7346H112.57C112.406 43.7346 112.323 43.6169 112.323 43.3816L112.368 27.7051L112.323 13.7934C112.323 13.5581 112.406 13.4404 112.57 13.4404H114.344C114.523 13.4404 114.613 13.5581 114.613 13.7934L114.546 26.4404H127.746L127.701 13.7934Z" fill="#11FFE2"/>
<path d="M91.4139 43.7353C91.2343 43.7353 91.1445 43.6177 91.1445 43.3824L91.1894 27.6471L91.1445 13.7941C91.1445 13.5588 91.2268 13.4412 91.3915 13.4412H93.165C93.3296 13.4412 93.412 13.5588 93.412 13.7941L93.3671 27.6765L93.3446 40.5L106.208 13.6765C106.268 13.5196 106.373 13.4412 106.523 13.4412H108.745C108.925 13.4412 109.015 13.5588 109.015 13.7941L108.947 27.7059L109.015 43.3824C109.015 43.6177 108.925 43.7353 108.745 43.7353H106.994C106.83 43.7353 106.747 43.6177 106.747 43.3824L106.792 27.7647L106.815 16.8235L94.0406 43.5C93.9807 43.6569 93.8759 43.7353 93.7263 43.7353H91.4139ZM100.057 10.7647C101.778 10.7647 103.125 10.1177 104.098 8.82353C105.071 7.52942 105.557 5.92157 105.557 4H103.559C103.559 5.33333 103.275 6.46079 102.706 7.38236C102.137 8.30393 101.262 8.76471 100.08 8.76471C98.8523 8.76471 97.9618 8.30393 97.4081 7.38236C96.8693 6.46079 96.5999 5.33333 96.5999 4H94.6018C94.6018 5.92157 95.0807 7.52942 96.0386 8.82353C97.0114 10.1177 98.3509 10.7647 100.057 10.7647Z" fill="#11FFE2"/>
<path d="M85.5795 13.7947C85.5795 13.5594 85.6619 13.4418 85.8265 13.4418H87.5551C87.7347 13.4418 87.8245 13.5594 87.8245 13.7947L87.7123 28.03L87.8245 43.383C87.8245 43.6182 87.7347 43.7359 87.5551 43.7359H85.8265C85.6619 43.7359 85.5795 43.6182 85.5795 43.383L85.6693 37.4418C84.9659 39.5398 83.9631 41.2065 82.661 42.4418C81.3589 43.6575 79.765 44.2653 77.8792 44.2653C75.8737 44.2653 74.1825 43.579 72.8056 42.2065C71.4286 40.8143 70.3885 38.932 69.685 36.5594C68.9816 34.1869 68.6299 31.5398 68.6299 28.6182C68.6299 25.7163 68.9891 23.079 69.7075 20.7065C70.4259 18.3143 71.4735 16.4123 72.8505 15.0006C74.2274 13.5692 75.9111 12.8535 77.9017 12.8535C81.5984 12.8535 84.1876 15.0986 85.6693 19.5888L85.5795 13.7947ZM78.3282 42.0888C80.5582 42.0888 82.3467 40.9908 83.6937 38.7947C85.0557 36.579 85.7442 33.2751 85.7591 28.8829C85.7891 24.53 85.153 21.1378 83.8509 18.7065C82.5488 16.2751 80.7229 15.0496 78.3731 15.03C76.652 15.03 75.2376 15.628 74.1301 16.8241C73.0226 18.0006 72.1994 19.5986 71.6606 21.6182C71.1368 23.6182 70.8749 25.8437 70.8749 28.2947C70.8749 30.8241 71.1368 33.1378 71.6606 35.2359C72.1844 37.3339 72.9926 39.0006 74.0852 40.2359C75.1927 41.4712 76.6071 42.0888 78.3282 42.0888Z" fill="#11FFE2"/>
<path d="M47.9779 44.0287C47.7833 44.0287 47.5962 44.0091 47.4166 43.9699C47.237 43.9503 47.0649 43.911 46.9003 43.8522C46.7506 43.8326 46.6758 43.715 46.6758 43.4993V41.9993C46.6758 41.7444 46.7731 41.6365 46.9676 41.6757C47.1023 41.715 47.237 41.7444 47.3717 41.764C47.5064 41.7836 47.6336 41.7934 47.7534 41.7934C48.6813 41.7934 49.3249 41.3522 49.6841 40.4699C50.0582 39.5679 50.3201 37.911 50.4698 35.4993C50.5446 34.4404 50.6195 33.0581 50.6943 31.3522C50.7691 29.6267 50.8365 27.7542 50.8964 25.7346C50.9712 23.6953 51.0385 21.6463 51.0984 19.5875C51.1732 17.5091 51.2331 15.5679 51.278 13.764C51.278 13.5483 51.3603 13.4404 51.5249 13.4404H65.8031C65.9827 13.4404 66.0725 13.5483 66.0725 13.764L66.0949 27.764L66.2296 43.3816C66.2296 43.6169 66.1398 43.7346 65.9602 43.7346H64.2091C64.0295 43.7346 63.9397 43.6267 63.9397 43.411L63.9173 27.764L63.805 15.6757H53.2311C53.1862 16.9502 53.1339 18.4698 53.074 20.2346C53.0291 21.9797 52.9692 23.8032 52.8944 25.7051C52.8345 27.5875 52.7672 29.362 52.6923 31.0287C52.6325 32.6954 52.5726 34.0973 52.5127 35.2346C52.393 37.2346 52.1984 38.8816 51.929 40.1757C51.6596 41.4699 51.2181 42.4405 50.6045 43.0875C49.9909 43.715 49.1153 44.0287 47.9779 44.0287Z" fill="#11FFE2"/>
<path d="M42.4621 13.7934C42.4621 13.5581 42.5445 13.4404 42.7091 13.4404H44.4826C44.6622 13.4404 44.752 13.5581 44.752 13.7934L44.6847 27.7051L44.752 43.3816C44.752 43.6169 44.6622 43.7346 44.4826 43.7346H42.7091C42.5445 43.7346 42.4621 43.6169 42.4621 43.3816L42.507 28.7346H29.3065L29.3739 43.3816C29.3739 43.6169 29.2841 43.7346 29.1045 43.7346H27.3309C27.1663 43.7346 27.084 43.6169 27.084 43.3816L27.1289 27.7051L27.084 13.7934C27.084 13.5581 27.1663 13.4404 27.3309 13.4404H29.1045C29.2841 13.4404 29.3739 13.5581 29.3739 13.7934L29.3065 26.4404H42.507L42.4621 13.7934Z" fill="#11FFE2"/>
<path d="M14.3269 44.3527C12.0969 44.3527 10.2111 43.6958 8.66957 42.3821C7.14298 41.0684 5.98307 39.235 5.18984 36.8821C4.39661 34.5291 4 31.7742 4 28.6174C4 25.4801 4.39661 22.7252 5.18984 20.3527C5.98307 17.9801 7.14298 16.137 8.66957 14.8232C10.2111 13.4899 12.0969 12.8232 14.3269 12.8232C16.542 12.8232 18.4203 13.4899 19.9619 14.8232C21.5034 16.137 22.6708 17.9801 23.464 20.3527C24.2573 22.7056 24.6539 25.4507 24.6539 28.588C24.6539 31.7448 24.2573 34.5095 23.464 36.8821C22.6708 39.235 21.5034 41.0684 19.9619 42.3821C18.4203 43.6958 16.542 44.3527 14.3269 44.3527ZM14.3269 42.1762C17.0209 42.1762 19.0339 40.9507 20.366 38.4997C21.698 36.0291 22.364 32.735 22.364 28.6174C22.364 24.5193 21.6905 21.2252 20.3435 18.735C19.0115 16.2448 17.006 14.9997 14.3269 14.9997C11.6479 15.0193 9.63491 16.2644 8.28792 18.735C6.94093 21.186 6.26744 24.4899 6.26744 28.6468C6.26744 32.7644 6.94093 36.0487 8.28792 38.4997C9.64988 40.9507 11.6629 42.1762 14.3269 42.1762Z" fill="#11FFE2"/>
<defs>
<filter id="filter0_f_204_14871" x="0" y="0" width="455.707" height="129" filterUnits="userSpaceOnUse" color-interpolation-filters="sRGB">
<feFlood flood-opacity="0" result="BackgroundImageFix"/>
<feBlend mode="normal" in="SourceGraphic" in2="BackgroundImageFix" result="shape"/>
<feGaussianBlur stdDeviation="2" result="effect1_foregroundBlur_204_14871"/>
</filter>
</defs>
</svg>
