<svg width="141" height="280" viewBox="0 0 141 280" fill="none" xmlns="http://www.w3.org/2000/svg">
<path d="M140.491 22.3126C138.332 13.448 133.466 6.99909 125.129 3.22277C118.368 -1.12972 111.169 -0.442488 103.97 1.59839C92.0376 4.99292 82.1733 12.1499 72.6978 19.7303C67.7761 23.6732 63.6388 28.588 59.1544 33.0654C63.3681 32.6212 67.5887 32.1769 71.8023 31.7326L71.9064 31.6285C72.3646 31.2328 72.8227 30.8302 73.2809 30.4345C74.2666 29.664 75.2524 28.9004 76.2312 28.1298L76.6615 27.7064C77.4182 26.9567 78.1679 26.2 78.9246 25.4503C79.1675 25.0546 79.5216 24.8325 79.9797 24.777L80.2504 24.4993C80.7086 24.1592 81.1668 23.819 81.6249 23.4789L81.7082 23.4233C82.2011 23.0138 82.694 22.6111 83.1868 22.2016C83.1868 22.2016 83.1868 22.2085 83.1868 22.2155C84.3392 21.3408 85.4984 20.4731 86.6508 19.5984L87.0187 19.6539L87.2269 19.3485C90.2119 17.5714 93.1899 15.7943 96.1679 14.0242C96.5289 14.1699 96.7927 14.0658 96.9662 13.7187C99.1182 13.0662 101.319 12.5456 103.401 11.7334C111.981 8.38745 119.277 10.588 125.719 16.7106L126.149 17.2243C126.205 17.6131 126.42 17.8838 126.781 18.0296C127.42 18.814 128.058 19.5984 128.697 20.3759C128.69 20.7091 128.843 20.9173 129.176 20.9937C129.53 22.2363 129.884 23.4858 130.245 24.7284C130.453 25.3323 130.669 25.9432 130.877 26.5471C132.814 31.33 131.481 35.863 130.287 40.4029C130.099 41.104 129.919 41.7982 129.759 42.4993C129.926 41.7982 130.106 41.104 130.287 40.4029C131.481 35.863 132.814 31.33 130.877 26.5471C129.842 32.5032 128.815 38.4661 127.788 44.4222L127.642 44.6651C127.566 45.0747 127.35 45.3871 127.003 45.6092C126.788 46.5672 126.566 47.5321 126.351 48.4901C124.476 54.0921 122.089 59.583 120.832 65.3169C117.937 78.6104 112.127 90.1407 103.422 100.685C95.085 110.792 88.3862 122.073 87.9628 135.873C87.9003 137.72 87.8447 139.566 87.7823 141.406C87.8378 141.558 87.9072 141.718 87.9628 141.871C87.9003 141.718 87.8378 141.558 87.7823 141.406C87.7406 141.857 87.699 142.308 87.6573 142.766C87.4907 148.396 87.3241 154.019 87.1575 159.649C87.22 165.417 87.3449 171.186 87.338 176.955C87.338 171.186 87.22 165.417 87.1575 159.649C85.3874 171.575 85.3179 183.508 87.7892 195.329C89.483 203.43 92.0167 211.358 93.5231 219.487C95.7028 231.246 95.9666 243.089 89.6149 253.8C87.0811 258.069 83.5408 261.956 79.7576 265.205C75.4676 268.891 70.0044 268.961 64.6384 267.399C62.4379 266.76 60.279 265.955 58.0993 265.226C58.127 266.455 58.1548 267.683 58.1825 268.919L58.0993 265.226C57.3773 264.608 56.6623 263.99 55.9404 263.373L55.5308 262.984C53.4552 261.283 51.3796 259.589 49.304 257.889C48.8945 257.68 48.589 257.368 48.3738 256.958L45.3125 253.821C43.0564 250.669 40.7448 247.559 38.5582 244.366C30.7001 232.87 24.7926 220.375 19.8015 207.422C17.7398 202.07 15.7961 196.669 13.8038 191.296C13.2554 188.561 12.707 185.826 12.1655 183.091C11.9989 182.175 11.8393 181.258 11.6727 180.342C11.3464 178.523 11.0201 176.705 10.6939 174.893C10.5759 173.921 10.4509 172.949 10.3329 171.977C8.74324 171.665 8.30591 170.776 8.21567 169.721C8.19484 169.513 8.1879 169.291 8.1879 169.069C8.1879 169.291 8.1879 169.506 8.21567 169.721C8.31285 170.776 8.74324 171.665 10.3329 171.97C10.3607 171.464 10.3954 170.957 10.4232 170.45C10.562 166.896 11.5685 163.21 8.74324 160.142C8.52111 161.308 8.29203 162.474 8.06989 163.633C8.29203 162.467 8.52111 161.308 8.74324 160.142C8.71548 154.012 8.68077 147.882 8.653 141.753C10.4717 135.04 12.2905 128.327 14.1023 121.615C14.609 121.615 14.9908 121.393 15.2546 120.955C16.0668 119.428 16.8859 117.908 17.6981 116.381C17.358 116.429 17.0178 116.457 16.6707 116.464C17.0109 116.457 17.358 116.429 17.6981 116.381C28.3746 98.3667 39.0719 80.3597 49.6858 62.3111C50.5952 60.7701 50.9215 58.8888 51.5184 57.1673L51.4699 57.084C52.1918 56.0566 52.9207 55.0362 53.6426 54.0088C53.9758 53.738 54.1286 53.384 54.1147 52.9606C54.4826 52.3913 54.8505 51.8152 55.2115 51.2459C60.7371 44.7415 66.2628 38.2371 71.7954 31.7326C67.5817 32.1769 63.3611 32.6212 59.1475 33.0654C57.773 34.2525 56.1833 35.259 55.0588 36.6474C47.6935 45.7411 41.8555 55.7373 37.7321 66.7122C34.8096 71.7033 31.8941 76.6945 28.9716 81.6856C25.2924 87.2182 21.3981 92.6189 17.9966 98.3181C15.1991 103.011 12.9916 108.05 10.5203 112.937C6.3761 117.346 4.65454 122.836 3.50221 128.584C3.01628 130.542 2.53036 132.506 2.04443 134.464C1.32249 138.046 -0.0797487 141.628 0.00355259 145.175C0.274282 155.963 0.8921 166.764 1.87089 177.51C2.23186 181.446 3.9673 185.264 5.07799 189.13C5.48061 200.536 10.9577 210.344 15.1852 220.507C16.9207 224.679 19.6002 228.455 21.8493 232.412C24.5427 237.688 26.7849 243.248 30.0198 248.163C36.2327 257.583 43.1258 266.51 53.3164 272.154C65.9435 283.226 79.2508 281.282 88.4209 272.348C97.0357 263.963 101.423 253.619 103.603 242.124C105.158 233.94 105.31 225.79 102.173 217.855C101.284 214.593 100.402 211.33 99.5139 208.061C99.4861 206.915 99.6805 205.707 99.3889 204.631C97.0356 195.933 96.0638 187.117 96.279 178.093C96.5497 166.819 96.4872 155.532 96.5567 144.252C96.6122 134.894 98.5559 126.016 103.575 118.012C106.851 112.785 110.378 107.71 113.793 102.566C118.416 96.3397 123.47 90.3628 125.108 82.4562C126.566 78.6104 128.253 74.8341 129.44 70.905C132.626 60.3744 135.833 49.8437 138.568 39.195C139.971 33.7319 141.942 28.2756 140.491 22.3126ZM13.6025 191.511C13.6025 191.511 13.6719 191.449 13.7066 191.414C13.658 191.456 13.6441 191.477 13.6025 191.511ZM5.81382 181.696C5.93183 181.481 6.0776 181.293 6.23726 181.133C6.07066 181.293 5.93183 181.481 5.81382 181.696ZM10.9716 187.228C11.4089 188.631 11.8532 190.033 12.2905 191.435L12.2835 191.449V191.435C11.8532 190.033 11.4158 188.631 10.9716 187.228ZM126.767 51.4056C126.733 51.7943 126.67 52.1761 126.587 52.551C126.67 52.1692 126.733 51.7874 126.767 51.4056Z" fill="#11FFE2"/>
<path d="M127.628 44.6846C127.413 44.997 127.204 45.3163 126.989 45.6287C127.336 45.4065 127.552 45.0941 127.628 44.6846Z" fill="#11FFE2"/>
<path d="M125.657 17.1897L126.143 17.2383L125.712 16.7246L125.657 17.1897Z" fill="#11FFE2"/>
<path d="M76.2242 28.151L76.6963 28.1996L76.6546 27.7275C76.6546 27.7275 76.2242 28.151 76.2173 28.151H76.2242Z" fill="#11FFE2"/>
<path d="M78.9238 25.4635C79.2779 25.2414 79.6249 25.0123 79.979 24.7832C79.5208 24.8387 79.1668 25.0678 78.9238 25.4635Z" fill="#11FFE2"/>
<path d="M49.2954 257.925C48.9831 257.613 48.6776 257.307 48.3652 256.995C48.5804 257.405 48.8859 257.71 49.2954 257.925Z" fill="#11FFE2"/>
<path d="M55.9811 262.962L55.5229 263.017C55.5229 263.017 55.9325 263.406 55.9395 263.406L55.9811 262.962Z" fill="#11FFE2"/>
<path d="M8.84073 160.05C8.81296 153.921 8.77826 147.791 8.75049 141.661C10.5692 134.949 12.388 128.229 14.1998 121.516C14.7065 121.516 15.0953 121.294 15.3521 120.857C16.1643 119.33 16.9834 117.809 17.7956 116.282C28.4721 98.2683 39.1763 80.2614 49.7833 62.2128C50.6927 60.6717 51.0189 58.7905 51.6159 57.0689C51.6159 57.0689 51.5743 56.9925 51.5673 56.9856C52.2893 55.9582 53.0182 54.9378 53.7471 53.9104C54.0803 53.6397 54.233 53.2856 54.2191 52.8552C54.587 52.2791 54.9549 51.7099 55.3159 51.1406C60.8416 44.6362 66.3672 38.1318 71.8998 31.6273L72.0039 31.5232C72.4621 31.1275 72.9202 30.7249 73.3784 30.3292C74.3641 29.5587 75.3499 28.7951 76.3286 28.0315L76.8007 28.0801L76.759 27.608C77.5157 26.8583 78.2654 26.1017 79.0221 25.3519C79.3761 25.1298 79.7232 24.9007 80.0772 24.6717L80.3479 24.394C80.8061 24.0538 81.2642 23.7137 81.7224 23.3735L81.8057 23.318C82.3055 22.9015 82.8053 22.4919 83.3051 22.0754L83.2774 22.1101C84.4297 21.2355 85.589 20.3678 86.7413 19.4931L87.1092 19.5486L87.3175 19.2432C90.3024 17.4661 93.2805 15.689 96.2585 13.9188C96.6194 14.0646 96.8832 13.9605 97.0568 13.6134C99.2087 12.9609 101.409 12.4403 103.492 11.6281C112.072 8.28213 119.368 10.4827 125.81 16.6053L125.754 17.0704L126.24 17.119C126.296 17.5077 126.511 17.7785 126.872 17.9243C127.51 18.7087 128.149 19.4931 128.795 20.2775C128.788 20.6107 128.94 20.819 129.267 20.8953C129.621 22.1379 129.982 23.3874 130.336 24.6369C130.544 25.2409 130.759 25.8518 130.967 26.4557C129.933 32.4117 128.906 38.3747 127.878 44.3308L127.732 44.5737C127.517 44.8861 127.309 45.2054 127.094 45.5178C126.879 46.4758 126.656 47.4407 126.441 48.3986C124.567 54.0006 122.179 59.4916 120.923 65.2255C118.028 78.519 112.218 90.0493 103.513 100.594C95.1756 110.701 88.4767 121.981 88.0533 135.782C87.9908 137.628 87.9353 139.475 87.8728 141.314C87.8312 141.765 87.7895 142.217 87.7479 142.675C87.5813 148.305 87.4147 153.927 87.2481 159.557C85.4779 171.49 85.4085 183.416 87.8798 195.238C89.5735 203.339 92.1073 211.267 93.6137 219.395C95.7934 231.155 96.0572 242.997 89.7054 253.709C87.1717 257.978 83.6314 261.865 79.8481 265.114C75.5581 268.8 70.0949 268.869 64.7289 267.307C62.5284 266.669 60.3695 265.864 58.1898 265.135C57.4678 264.517 56.7528 263.899 56.0309 263.281L56.0726 262.837L55.6144 262.892C53.5388 261.192 51.4632 259.498 49.3876 257.797C49.0752 257.485 48.7698 257.179 48.4574 256.867C47.437 255.819 46.4165 254.778 45.3961 253.729C43.14 250.578 40.8284 247.468 38.6418 244.275C30.7837 232.779 24.8762 220.284 19.8851 207.331C17.8234 201.978 15.8797 196.578 13.8874 191.205C13.339 188.47 12.7906 185.735 12.2491 183C12.0825 182.083 11.9229 181.167 11.7563 180.251C11.43 178.432 11.1037 176.613 10.7775 174.801C10.6595 173.83 10.5345 172.858 10.4165 171.886C10.4443 171.379 10.479 170.872 10.5068 170.366C10.6456 166.818 11.6521 163.125 8.82685 160.057L8.84073 160.05Z" fill="#11FFE2"/>
</svg>
