<svg width="135" height="267" viewBox="0 0 135 267" fill="none" xmlns="http://www.w3.org/2000/svg">
<path d="M133.734 21.2395C131.679 12.8012 127.047 6.66245 119.111 3.06776C112.674 -1.07539 105.822 -0.421206 98.9697 1.52151C87.6108 4.75277 78.221 11.5655 69.2012 18.7813C64.5162 22.5346 60.5779 27.213 56.3092 31.4751C60.3202 31.0522 64.3378 30.6293 68.3488 30.2064L68.4479 30.1072C68.884 29.7306 69.3201 29.3473 69.7563 28.9707C70.6946 28.2372 71.6329 27.5103 72.5646 26.7769L72.9743 26.3738C73.6946 25.6601 74.4082 24.9399 75.1285 24.2262C75.3597 23.8496 75.6967 23.6381 76.1329 23.5853L76.3906 23.3209C76.8267 22.9972 77.2628 22.6734 77.6989 22.3496L77.7782 22.2967C78.2474 21.9069 78.7166 21.5236 79.1857 21.1337C79.1857 21.1337 79.1857 21.1403 79.1857 21.1469C80.2826 20.3143 81.3861 19.4884 82.4831 18.6558L82.8333 18.7086L83.0315 18.4179C85.8729 16.7263 88.7077 15.0346 91.5425 13.3496C91.8861 13.4884 92.1372 13.3893 92.3024 13.0589C94.3508 12.4377 96.4455 11.9422 98.4279 11.169C106.595 7.98403 113.54 10.0787 119.672 15.9069L120.082 16.3959C120.135 16.7659 120.34 17.0236 120.683 17.1624C121.291 17.9091 121.899 18.6558 122.507 19.3959C122.5 19.713 122.646 19.9113 122.963 19.984C123.3 21.1668 123.637 22.3562 123.981 23.539C124.179 24.1139 124.384 24.6954 124.582 25.2703C126.426 29.8231 125.157 34.1381 124.02 38.4596C123.842 39.127 123.67 39.7878 123.518 40.4552C123.677 39.7878 123.848 39.127 124.02 38.4596C125.157 34.1381 126.426 29.8231 124.582 25.2703C123.597 30.9398 122.619 36.616 121.641 42.2856L121.503 42.5168C121.43 42.9067 121.225 43.2041 120.895 43.4155C120.69 44.3274 120.478 45.2459 120.274 46.1578C118.489 51.4904 116.216 56.7172 115.02 62.1753C112.265 74.8294 106.734 85.8051 98.4477 95.8425C90.5116 105.464 84.135 116.201 83.7319 129.338C83.6725 131.096 83.6196 132.853 83.5601 134.604C83.613 134.75 83.6791 134.902 83.7319 135.047C83.6725 134.902 83.613 134.75 83.5601 134.604C83.5205 135.034 83.4808 135.463 83.4412 135.9C83.2826 141.259 83.124 146.611 82.9654 151.97C83.0249 157.461 83.1438 162.952 83.1372 168.443C83.1372 162.952 83.0249 157.461 82.9654 151.97C81.2804 163.322 81.2143 174.681 83.5667 185.934C85.1791 193.646 87.591 201.192 89.0249 208.93C91.0997 220.124 91.3508 231.397 85.3046 241.593C82.8927 245.657 79.5227 249.357 75.9214 252.449C71.8377 255.958 66.6373 256.024 61.5294 254.538C59.4347 253.93 57.3797 253.163 55.3048 252.469C55.3312 253.639 55.3577 254.808 55.3841 255.985L55.3048 252.469C54.6176 251.881 53.937 251.293 53.2498 250.705L52.8599 250.335C50.8841 248.716 48.9084 247.104 46.9326 245.485C46.5427 245.287 46.252 244.989 46.0472 244.599L43.1331 241.613C40.9855 238.613 38.7851 235.652 36.7036 232.613C29.2235 221.67 23.6002 209.776 18.8491 197.445C16.8865 192.351 15.0363 187.21 13.1399 182.095C12.6178 179.492 12.0958 176.888 11.5804 174.285C11.4218 173.413 11.2698 172.54 11.1112 171.668C10.8007 169.937 10.4901 168.206 10.1795 166.481C10.0672 165.556 9.94825 164.631 9.83592 163.706C8.32271 163.408 7.90642 162.562 7.82051 161.558C7.80069 161.36 7.79408 161.148 7.79408 160.937C7.79408 161.148 7.79408 161.353 7.82051 161.558C7.91302 162.562 8.32271 163.408 9.83592 163.699C9.86235 163.217 9.89539 162.734 9.92182 162.252C10.054 158.869 11.0121 155.36 8.32271 152.439C8.11126 153.549 7.8932 154.659 7.68175 155.763C7.8932 154.653 8.11126 153.549 8.32271 152.439C8.29628 146.604 8.26324 140.77 8.23681 134.935C9.96808 128.545 11.6993 122.155 13.424 115.765C13.9064 115.765 14.2698 115.554 14.5209 115.138C15.294 113.684 16.0738 112.237 16.8469 110.783C16.5231 110.829 16.1993 110.856 15.8689 110.862C16.1927 110.856 16.5231 110.829 16.8469 110.783C27.0098 93.6355 37.1926 76.4946 47.296 59.3141C48.1617 57.8472 48.4722 56.0564 49.0405 54.4177L48.9943 54.3384C49.6815 53.3604 50.3753 52.389 51.0625 51.4111C51.3797 51.1534 51.5251 50.8164 51.5119 50.4133C51.8621 49.8714 52.2123 49.323 52.5559 48.7811C57.8158 42.5895 63.0757 36.3979 68.3422 30.2064C64.3312 30.6293 60.3136 31.0522 56.3026 31.4751C54.9942 32.605 53.481 33.5632 52.4105 34.8847C45.3996 43.5411 39.8423 53.0564 35.9173 63.5035C33.1353 68.2546 30.36 73.0056 27.5781 77.7567C24.0759 83.0232 20.3689 88.1642 17.131 93.5892C14.4681 98.0562 12.3667 102.853 10.0143 107.505C6.06942 111.701 4.43067 116.928 3.33376 122.4C2.87121 124.263 2.40865 126.133 1.9461 127.996C1.25888 131.406 -0.075913 134.816 0.00338171 138.192C0.261089 148.461 0.849192 158.743 1.7809 168.972C2.12451 172.719 3.77649 176.353 4.83375 180.034C5.21701 190.89 10.4306 200.227 14.4548 209.901C16.1068 213.873 18.6575 217.467 20.7984 221.234C23.3623 226.256 25.4966 231.549 28.5759 236.227C34.49 245.194 41.0516 253.692 50.752 259.064C62.7717 269.604 75.439 267.753 84.1681 259.249C92.3685 251.267 96.5446 241.421 98.6195 230.478C100.1 222.688 100.245 214.93 97.2583 207.377C96.4125 204.271 95.5733 201.166 94.7275 198.053C94.701 196.963 94.8861 195.813 94.6085 194.789C92.3684 186.509 91.4433 178.117 91.6482 169.527C91.9059 158.796 91.8464 148.051 91.9125 137.314C91.9654 128.406 93.8156 119.955 98.5931 112.336C101.712 107.36 105.069 102.53 108.32 97.6333C112.721 91.706 117.531 86.0166 119.091 78.4902C120.478 74.8294 122.084 71.2347 123.214 67.4947C126.247 57.4705 129.3 47.4463 131.903 37.3098C133.238 32.1094 135.115 26.9156 133.734 21.2395ZM12.9482 182.3C12.9482 182.3 13.0143 182.241 13.0474 182.208C13.0011 182.247 12.9879 182.267 12.9482 182.3ZM5.53418 172.957C5.64652 172.752 5.78528 172.573 5.93727 172.421C5.77868 172.573 5.64652 172.752 5.53418 172.957ZM10.4438 178.223C10.8601 179.558 11.283 180.893 11.6993 182.227L11.6927 182.241V182.227C11.283 180.893 10.8668 179.558 10.4438 178.223ZM120.67 48.9331C120.637 49.3032 120.578 49.6666 120.498 50.0234C120.578 49.66 120.637 49.2965 120.67 48.9331Z" fill="#11FFE2"/>
<path d="M121.489 42.5352C121.284 42.8325 121.086 43.1365 120.881 43.4338C121.212 43.2224 121.417 42.925 121.489 42.5352Z" fill="#11FFE2"/>
<path d="M119.613 16.3627L120.075 16.4089L119.666 15.9199L119.613 16.3627Z" fill="#11FFE2"/>
<path d="M72.5579 26.7966L73.0072 26.8429L72.9676 26.3936C72.9676 26.3936 72.5579 26.7966 72.5513 26.7966H72.5579Z" fill="#11FFE2"/>
<path d="M75.1279 24.2384C75.4649 24.0269 75.7953 23.8089 76.1323 23.5908C75.6962 23.6437 75.3592 23.8617 75.1279 24.2384Z" fill="#11FFE2"/>
<path d="M46.9245 245.519C46.6272 245.222 46.3364 244.931 46.0391 244.634C46.2439 245.024 46.5347 245.314 46.9245 245.519Z" fill="#11FFE2"/>
<path d="M53.2887 250.314L52.8525 250.367C52.8525 250.367 53.2424 250.737 53.249 250.737L53.2887 250.314Z" fill="#11FFE2"/>
<path d="M8.41549 152.352C8.38906 146.517 8.35602 140.682 8.32959 134.848C10.0609 128.458 11.7921 122.061 13.5168 115.671C13.9992 115.671 14.3692 115.46 14.6137 115.044C15.3868 113.59 16.1665 112.143 16.9397 110.689C27.1026 93.5416 37.292 76.4008 47.3888 59.2203C48.2545 57.7533 48.565 55.9626 49.1333 54.3238C49.1333 54.3238 49.0937 54.2511 49.087 54.2445C49.7743 53.2665 50.4681 52.2952 51.1619 51.3172C51.4791 51.0595 51.6245 50.7225 51.6113 50.3128C51.9615 49.7644 52.3117 49.2225 52.6553 48.6807C57.9152 42.4891 63.1751 36.2975 68.4416 30.1059L68.5407 30.0068C68.9768 29.6301 69.4129 29.2469 69.849 28.8702C70.7874 28.1368 71.7257 27.4099 72.6574 26.683L73.1067 26.7293L73.0671 26.2799C73.7873 25.5663 74.501 24.846 75.2213 24.1324C75.5583 23.9209 75.8886 23.7029 76.2256 23.4848L76.4834 23.2205C76.9195 22.8967 77.3556 22.5729 77.7917 22.2491L77.871 22.1963C78.3468 21.7998 78.8225 21.4099 79.2983 21.0134L79.2719 21.0465C80.3688 20.2139 81.4723 19.3879 82.5692 18.5553L82.9194 18.6082L83.1177 18.3174C85.9591 16.6258 88.7939 14.9342 91.6286 13.2492C91.9722 13.3879 92.2234 13.2888 92.3885 12.9584C94.437 12.3373 96.5317 11.8417 98.5141 11.0686C106.681 7.88357 113.626 9.97827 119.758 15.8064L119.706 16.2492L120.168 16.2954C120.221 16.6655 120.426 16.9232 120.769 17.0619C121.377 17.8086 121.985 18.5553 122.6 19.302C122.593 19.6192 122.739 19.8174 123.049 19.8901C123.386 21.0729 123.73 22.2623 124.067 23.4518C124.265 24.0266 124.47 24.6081 124.668 25.183C123.684 30.8526 122.706 36.5288 121.728 42.1983L121.589 42.4296C121.384 42.727 121.186 43.0309 120.981 43.3283C120.776 44.2402 120.565 45.1587 120.36 46.0706C118.576 51.4031 116.302 56.63 115.106 62.0881C112.351 74.7422 106.82 85.7179 98.5339 95.7553C90.5978 105.376 84.2212 116.114 83.8181 129.251C83.7586 131.008 83.7058 132.766 83.6463 134.517C83.6067 134.947 83.567 135.376 83.5274 135.812C83.3688 141.171 83.2102 146.524 83.0516 151.883C81.3666 163.242 81.3005 174.594 83.6529 185.847C85.2652 193.559 87.6771 201.105 89.111 208.843C91.1859 220.036 91.437 231.31 85.3908 241.505C82.9789 245.569 79.6089 249.27 76.0076 252.362C71.9239 255.871 66.7235 255.937 61.6156 254.45C59.5209 253.842 57.4659 253.076 55.391 252.382C54.7038 251.794 54.0231 251.206 53.3359 250.618L53.3756 250.195L52.9394 250.248C50.9637 248.629 48.9879 247.016 47.0122 245.398C46.7148 245.1 46.4241 244.809 46.1267 244.512C45.1554 243.514 44.184 242.523 43.2126 241.525C41.0651 238.525 38.8646 235.565 36.7832 232.525C29.303 221.583 23.6797 209.689 18.9286 197.358C16.9661 192.264 15.1159 187.123 13.2194 182.008C12.6974 179.405 12.1754 176.801 11.66 174.198C11.5014 173.325 11.3494 172.453 11.1908 171.581C10.8802 169.85 10.5697 168.118 10.2591 166.394C10.1468 165.468 10.0278 164.543 9.91548 163.618C9.94191 163.136 9.97495 162.654 10.0014 162.171C10.1335 158.795 11.0917 155.279 8.40228 152.358L8.41549 152.352Z" fill="#EBFF17"/>
</svg>
