<svg width="387" height="300" viewBox="0 0 387 300" fill="none" xmlns="http://www.w3.org/2000/svg">
<path d="M381.618 172.264C373.292 160.885 361.701 159.904 349.73 162.178C333.268 165.298 319.336 161.108 305.906 151.69C291.941 141.893 276.471 138.382 259.763 144.679C251.114 147.934 242.387 150.987 233.761 154.286C210.076 163.326 188.822 159.837 170.142 142.316C166.13 138.549 161.905 134.982 157.782 131.327C158.105 137.624 158.428 143.921 158.751 150.218L158.985 150.051C159.944 151.378 160.902 152.704 161.861 154.03C162.608 154.732 163.354 155.446 164.09 156.148L164.235 156.237C164.892 156.739 165.55 157.24 166.208 157.753C185.813 175.753 208.093 179.676 232.891 170.481C242.254 167.015 251.46 162.98 261.034 160.249C270.385 157.586 280.082 157.285 289.154 161.988C294.08 164.54 298.973 167.204 303.655 170.169C313.206 176.221 323.349 180.233 334.806 180.657C337.348 180.746 340.011 181.214 342.363 182.15C352.962 186.363 356.117 197.832 348.694 206.526C342.474 213.793 335.486 220.413 328.843 227.312C315.981 241.846 303.108 256.369 290.246 270.902C285.287 273.444 280.338 275.985 275.378 278.526C273.829 278.838 272.269 279.15 270.719 279.451C251.103 282.583 231.509 285.447 211.615 281.535C206.254 280.476 200.736 280.198 195.286 279.551C193.759 279.373 192.232 279.184 190.705 279.005C187.607 279.328 184.509 279.83 181.41 280.086C184.509 279.83 187.607 279.34 190.705 279.005C177.119 274.335 163.41 270.011 149.98 264.928C128.045 256.625 108.54 244.153 90.7076 228.995C89.6042 228.059 88.1775 227.524 86.8958 226.811C85.1237 225.284 83.3404 223.757 81.5571 222.219C81.4456 221.539 81.0555 221.071 80.4091 220.825C61.6288 202.268 45.2226 181.816 34.69 157.508C27.8132 141.636 20.8584 125.319 17.5259 108.489C11.1172 76.2007 20.981 47.9356 44.6542 24.7529C45.947 23.4823 46.9947 21.9553 48.1539 20.551C50.6393 19.8154 53.2139 19.3138 55.5768 18.3107C67.0902 13.4513 77.4109 16.7726 86.8178 23.4042C101.608 33.8253 109.31 48.3703 111.26 66.4261C112.118 74.384 114.871 82.1413 116.755 89.9878C123.464 96.207 128.959 103.909 137.296 108.11C128.959 103.909 123.453 96.207 116.755 89.9989C121.068 109.938 133.908 124.851 146.536 139.775C149.946 143.81 154.65 146.763 158.751 150.218C158.428 143.921 158.105 137.624 157.782 131.327C153.145 125.542 148.508 119.758 143.883 113.962C143.237 113.081 142.579 112.201 141.933 111.309C141.899 110.629 141.609 110.083 141.063 109.671C138.054 103.73 135.056 97.7785 132.046 91.838C130.274 83.6906 128.569 75.5209 126.697 67.3958C125.638 62.8038 124.311 58.2898 123.097 53.7313C121.269 36.7789 113.69 23.2371 99.3788 13.6853C87.2636 -1.09368 60.2356 -2.69864 46.7272 3.17507C45.1557 3.85495 43.9966 5.45991 42.648 6.64134C39.3266 9.01534 36.0052 11.3893 32.6838 13.7745C22.1178 22.3008 14.929 32.956 12.1649 46.3975C8.79891 55.2248 4.36298 63.8069 2.39022 72.9351C0.395167 82.1413 -0.752825 92.1054 0.56235 101.334C3.41561 121.485 10.2813 140.711 18.4955 159.313C21.5829 166.301 26.186 172.621 30.0981 179.23C30.1204 178.55 30.1649 177.882 30.2095 177.202C30.1538 177.882 30.1204 178.561 30.0981 179.23C36.5402 194.477 47.396 206.581 58.2294 218.708L58.5192 219.588L59.4332 219.733C61.3948 221.628 63.3452 223.534 65.3069 225.44C66.1539 226.276 66.9898 227.123 67.8369 227.959C75.271 234.133 82.7162 240.319 90.1503 246.494C87.9992 240.23 85.8481 233.966 83.7082 227.702C85.8593 233.966 87.9992 240.23 90.1503 246.505C90.6741 246.995 91.1868 247.474 91.7107 247.965C93.5386 249.369 95.3776 250.774 97.2054 252.167C97.172 251.732 97.1163 251.331 97.0383 250.963C96.7819 249.871 96.2915 249.091 95.5782 248.6C96.2804 249.102 96.7819 249.871 97.0383 250.963C97.1274 251.331 97.1831 251.732 97.2054 252.167C98.4426 252.969 99.6909 253.772 100.928 254.574C102.656 255.811 104.383 257.06 106.111 258.297C111.305 261.406 116.498 264.527 121.692 267.648C123.186 268.361 124.668 269.086 126.162 269.799L126.73 270.245H127.454C132.972 273.031 138.477 275.818 143.994 278.604C145.109 278.86 146.235 279.128 147.36 279.384C150.169 281.023 152.811 283.185 155.831 284.233C172.928 290.117 190.382 294.609 208.405 296.637C218.246 297.741 228.155 300.271 237.896 299.714C250.691 298.989 263.475 296.381 276.025 293.539C281.508 292.291 286.39 288.434 291.55 285.759C296.087 285.603 299.219 283.463 300.835 279.195C304.624 276.386 309.027 274.123 312.069 270.668C319.069 262.722 325.411 254.184 332.02 245.892C345.506 233.375 359.115 220.981 372.4 208.276C376.636 204.23 380.548 199.638 383.691 194.711C388.684 186.898 387.213 179.921 381.629 172.287L381.618 172.264ZM68.1044 225.072C67.1682 225.194 66.2431 225.317 65.3069 225.44C66.2431 225.317 67.1682 225.194 68.1044 225.061C69.5979 219.867 73.1756 220.636 76.5862 220.981C73.1645 220.636 69.5979 219.867 68.1044 225.061V225.072ZM77.032 221.037C77.3218 221.06 77.6116 221.082 77.8902 221.093C77.6116 221.093 77.3218 221.06 77.032 221.037ZM78.3472 221.104C78.4921 221.104 78.6369 221.104 78.7707 221.104C78.6258 221.104 78.4921 221.104 78.3472 221.104ZM262.795 284.801C262.226 284.979 261.647 285.124 261.056 285.258C261.647 285.135 262.226 284.99 262.795 284.801Z" fill="#11FFE2"/>
<path d="M295.753 275.369C290.604 278.029 285.466 280.69 280.317 283.35C278.697 283.677 277.089 284.004 275.48 284.319C255.116 287.598 234.774 290.596 214.12 286.501C208.554 285.392 202.827 285.1 197.168 284.424C195.583 284.237 193.998 284.039 192.413 283.852C178.308 278.963 164.075 274.435 150.132 269.114C127.361 260.421 107.112 247.364 88.5982 231.494C87.4526 230.514 85.9716 229.954 84.6409 229.207C82.8011 227.609 80.9498 225.998 79.11 224.4C78.9827 223.688 78.5893 223.198 77.9182 222.929C58.4212 203.501 41.4003 182.089 30.4542 156.639C23.3149 140.023 16.0947 122.94 12.6349 105.32C5.95851 71.5273 16.2104 41.9237 40.787 17.6527C42.1293 16.3224 43.2169 14.7238 44.4203 13.2536C47.0006 12.4834 49.6735 11.9583 52.1266 10.9081C64.0794 5.82057 74.794 9.29786 84.5599 16.2408C99.9146 27.1511 107.91 42.3788 109.935 61.2821C110.826 69.6136 113.684 77.7351 115.639 85.9499C120.117 106.837 133.447 122.438 146.557 138.063C150.098 142.287 154.981 145.379 159.239 148.996C159.239 148.996 159.482 148.833 159.482 148.821C160.488 150.233 161.495 151.633 162.502 153.045L162.444 152.964C163.231 153.71 164.006 154.457 164.793 155.216L164.943 155.309C165.626 155.834 166.309 156.359 166.991 156.896C187.345 175.741 210.475 175.848 236.22 166.222C245.94 162.593 255.497 158.369 265.437 155.51C275.145 152.721 285.212 152.406 294.63 157.33C299.745 160.002 304.824 162.791 309.684 165.895C319.6 172.231 334.13 176.432 346.013 176.875C348.652 176.969 351.417 177.459 353.858 178.439C364.862 182.85 368.137 194.857 360.431 203.958C353.974 211.566 346.719 218.498 339.823 225.721C326.47 240.925 309.106 260.141 295.753 275.345V275.369Z" fill="#EBFF17"/>
</svg>
