<svg width="381" height="293" viewBox="0 0 381 293" fill="none" xmlns="http://www.w3.org/2000/svg">
<path d="M365.859 67.7245C373.125 78.2931 372.307 89.6399 368.298 100.791C365.382 108.913 361.15 116.591 357.278 124.347C352.19 134.543 349.241 144.981 352.609 156.367C352.786 156.969 353.204 157.505 353.511 158.074C353.61 158.99 353.708 159.905 353.812 160.821C354.159 162.927 354.512 165.039 354.859 167.145C354.97 168.061 355.081 168.976 355.192 169.892C356.369 170.166 356.853 170.781 357.056 171.533C356.853 170.781 356.376 170.166 355.192 169.892C354.63 179.362 354.525 188.89 353.361 198.288C352.419 205.92 350.202 213.402 348.554 220.949C350.771 222.735 352.995 224.513 355.212 226.299C356.363 224.546 357.965 222.937 358.58 221.008C361.157 212.912 362.903 204.645 362.393 196.052C363.191 191.402 364.799 186.726 364.61 182.115C364.224 172.848 363.524 163.483 361.699 154.412C359.881 145.341 361.771 137.297 365.46 129.324C367.553 124.805 370.012 120.45 372.131 115.937C376.009 107.677 379.462 99.2405 380.659 90.1173C382.137 78.7966 378.749 68.8755 371.562 60.1447C368.913 56.3188 367.173 51.695 362.419 49.7069C361.523 52.4013 360.62 55.0958 359.724 57.7838C361.758 61.0995 363.661 64.5068 365.859 67.7114L365.859 67.7245ZM357.187 172.436C357.193 172.547 357.2 172.665 357.207 172.782C357.207 172.665 357.2 172.553 357.187 172.436ZM355.67 165.791C355.918 165.209 356.023 164.647 355.99 164.11C356.023 164.647 355.918 165.203 355.67 165.791ZM355.938 163.718C355.951 163.77 355.951 163.823 355.957 163.881C355.951 163.829 355.944 163.77 355.938 163.718Z" fill="#11FFE2"/>
<path d="M147.008 0.480564C132.927 -1.24598 119.559 1.89973 106.401 6.42538C106.041 6.54964 105.793 7.00743 105.492 7.31481C98.9716 8.47238 93.5761 11.5985 89.2597 16.6146C84.7341 19.1848 81.1437 22.6641 78.8939 27.4187C74.7868 33.128 70.32 38.4843 67.7956 45.3185C65.9579 50.2889 63.0345 55.1219 59.5814 59.1505C55.1408 64.3367 48.6924 64.389 43.1988 60.1969C40.7921 58.3592 38.6536 56.1683 36.43 54.0951C32.1463 50.0927 28.1242 45.7632 23.5724 42.1074C18.6544 38.1638 13.0954 38.4058 8.73979 42.7222C2.25215 49.1509 -0.71699 57.4174 0.146285 66.3118C1.2777 77.9398 7.41872 87.3901 15.6394 95.4996C16.7316 97.3766 17.608 99.4301 18.9552 101.104C25.9922 109.835 25.5475 118.939 20.9041 128.533C17.5033 135.563 14.0045 142.6 11.395 149.938C5.27362 167.171 5.581 184.018 16.1103 199.786C18.6609 203.324 21.2115 206.862 23.7686 210.4C27.3656 214.658 30.7337 219.138 34.6119 223.12C40.452 229.117 46.6585 234.775 52.7014 240.575C55.2324 242.963 57.7568 245.35 60.2877 247.737C64.6041 251.543 68.9205 255.349 73.2434 259.149C73.2434 259.136 73.2434 259.123 73.2369 259.116C73.2369 259.084 73.2238 259.038 73.2238 259.038C73.8124 259.692 74.4075 260.339 74.9961 260.993C77.3963 263.106 79.6002 265.519 82.2489 267.265C87.7229 270.875 93.4257 274.125 99.037 277.52C105.355 282.143 112.339 285.171 120.083 286.401C121.155 286.905 122.234 287.402 123.307 287.905C124.595 288.128 125.89 288.35 127.178 288.572C134.157 289.9 141.141 292.359 148.093 292.28C161.5 292.13 174.933 290.881 188.275 289.409C194.638 288.71 200.831 286.466 207.097 284.923C207.868 284.753 208.634 284.589 209.405 284.419C210.321 284.053 211.236 283.687 212.152 283.321C212.047 283.216 211.943 283.124 211.845 283.046C211.943 283.124 212.047 283.223 212.152 283.321C212.996 283.092 213.839 282.856 214.683 282.627C215.736 282.137 216.782 281.64 217.835 281.149C225.925 279.266 232.845 275.021 239.594 270.417C240.333 269.973 241.065 269.528 241.804 269.077C242.844 268.357 243.884 267.638 244.93 266.918C254.047 262.733 263.164 258.547 272.28 254.362C284.052 252.413 295.85 250.595 307.596 248.476C314.175 247.285 320.663 245.605 327.196 244.146C328.04 243.97 328.884 243.793 329.727 243.617C330.872 243.172 332.016 242.734 333.167 242.289C342.847 240.17 350.073 234.67 355.214 226.292C352.997 224.507 350.773 222.728 348.556 220.943C347.163 222.303 345.691 223.591 344.39 225.03C339.426 230.517 333.475 234.186 326.144 235.677C322.324 236.455 318.609 237.731 314.842 238.784C314.228 238.875 313.613 238.967 312.998 239.058L312.73 239.137C312.305 239.222 311.873 239.307 311.442 239.392C311.906 239.751 312.37 240.105 312.841 240.464C316.013 240.517 319.29 240.163 322.259 241.001C323.148 241.249 324.012 241.609 324.842 242.119C324.018 241.609 323.155 241.256 322.259 241.001C319.29 240.163 316.013 240.517 312.841 240.464C312.377 240.105 311.913 239.751 311.442 239.392C310.631 239.516 309.826 239.634 309.015 239.758C307.047 240.02 305.085 240.281 303.116 240.543C302.011 240.739 300.899 240.935 299.794 241.131C295.589 242.086 291.39 243.048 287.185 244.002C286.152 244.055 285.118 244.107 284.085 244.159C281.129 245.271 278.206 246.553 275.263 247.73C278.206 246.553 281.129 245.265 284.085 244.159C269.834 244.584 257.369 250.235 245.257 257.154C235.689 262.615 226.187 268.338 216.128 272.746C208.28 276.186 199.622 277.775 191.322 280.188L191.322 280.639C191.322 280.639 191.322 280.188 191.322 280.181C189.615 280.502 187.915 280.829 186.208 281.149C183.468 281.293 180.728 281.437 177.987 281.581C176.509 282.065 175.025 282.549 173.547 283.039C166.778 283.334 160.016 283.621 153.247 283.916C152.678 283.648 152.109 283.138 151.54 283.144C138.237 283.249 125.609 280.195 113.359 275.218C112.392 274.825 111.293 274.773 110.253 274.564C109.841 274.446 109.436 274.335 109.023 274.217C106.865 274.276 104.687 274.269 102.726 274.923C104.687 274.263 106.865 274.269 109.023 274.21C109.023 274.21 109.076 274.21 109.102 274.21C109.102 274.21 109.095 274.21 109.089 274.21C109.089 274.21 109.095 274.21 109.102 274.21C105.852 272.255 102.431 270.515 99.3705 268.292C90.862 262.105 82.5105 255.715 74.087 249.411C72.7202 248.391 71.3206 247.41 69.9342 246.403C67.9002 244.428 65.8663 242.452 63.8324 240.477C63.2307 239.954 62.629 239.438 62.0274 238.914C61.9947 239.222 61.962 239.536 61.9358 239.843C61.9685 239.536 62.0012 239.222 62.0274 238.914C58.5743 235.442 55.1146 231.962 51.6615 228.49L51.5831 228.45C51.158 228.038 50.7394 227.62 50.3143 227.208C49.9088 226.73 49.5033 226.253 49.0913 225.782L48.8559 225.481C48.7251 225.05 48.4439 224.775 48.0122 224.657L48.058 224.284L47.7049 224.35C47.2601 223.977 46.8089 223.598 46.3642 223.225C45.9391 222.82 45.514 222.414 45.0889 222.009L45.0039 221.884C43.8397 221.374 42.3683 221.139 41.4396 220.419C42.3683 221.132 43.8397 221.374 45.0039 221.878C43.807 220.367 42.6691 218.804 41.3938 217.365C36.9205 212.316 32.2313 207.451 27.9411 202.251C18.0396 190.264 14.8154 176.504 17.6407 161.259C17.9938 159.349 18.1443 157.394 18.3862 155.464C22.4018 146.577 26.2669 137.617 30.4786 128.821C35.9787 117.323 35.5732 106.722 26.9339 96.7684C22.8269 92.0334 18.9879 87.0173 15.5217 81.7984C13.3962 78.6004 11.8986 74.8857 10.6822 71.2102C9.16489 66.6322 10.7214 62.7279 14.4296 59.6018C18.4647 56.1945 20.9106 55.7236 25.5671 58.66C29.7723 61.3152 33.6047 64.5395 37.7183 67.3516C40.7398 69.4183 43.8659 71.3475 47.0836 73.1002C55.991 77.9594 64.094 73.6234 68.8028 67.2797C72.6548 62.0935 74.6756 56.1945 75.055 49.7395C76.2583 47.032 77.4617 44.3179 78.6585 41.6103L78.7566 41.4207C78.7827 41.1329 78.8874 40.8975 79.0639 40.7013C78.8808 40.891 78.7827 41.1329 78.7566 41.4207C78.9266 41.1199 79.1032 40.8256 79.2732 40.5247C79.6329 39.7072 79.9861 38.8832 80.3458 38.0657C81.124 37.0847 81.9023 36.0972 82.6805 35.1162L82.7394 35.0573C85.702 31.977 88.6188 28.8574 91.6272 25.8294C101.241 16.1699 113.595 12.671 126.479 10.3166C128.513 9.94387 130.468 9.13291 132.463 8.51816C133.758 8.46584 135.059 8.40698 136.354 8.35466C139.467 8.44622 142.58 8.53779 145.7 8.62935C146.955 8.97596 148.217 9.32258 149.473 9.6692C150.434 9.87847 151.402 10.0812 152.364 10.2905C153.096 10.5848 153.822 10.8856 154.555 11.1799C155.039 11.3369 155.516 11.4938 156 11.6508C159.054 13.24 162.115 14.8292 165.169 16.4119C164.423 15.045 163.475 14.0706 162.383 13.3708C161.605 12.8738 160.755 12.5141 159.852 12.259C160.755 12.5206 161.605 12.8738 162.383 13.3708C163.475 14.0706 164.423 15.045 165.169 16.4119C165.404 16.8174 165.758 17.0005 166.228 16.9678C167.223 17.6545 168.217 18.3477 169.204 19.0344C169.25 19.3353 169.427 19.4661 169.727 19.4203L169.747 19.8846L170.205 19.8715C171.519 20.6302 172.834 21.3888 174.148 22.154C176.385 23.7497 178.615 25.3389 180.852 26.9347C181.022 27.3205 181.316 27.5102 181.735 27.4971C182.742 28.2231 183.749 28.9425 184.756 29.6684L185.142 29.9627L185.332 30.5251L185.92 30.6036C185.803 30.3551 185.626 30.172 185.397 30.0543C185.626 30.172 185.803 30.3485 185.92 30.6036C197.751 38.0134 210.229 44.1806 223.505 48.3988C227.357 49.6218 232.269 49.2359 236.232 48.0457C243.89 45.7371 251.143 42.1205 258.697 39.4391C263.968 37.5687 269.475 36.3457 274.877 34.8284C276.185 34.7303 277.499 34.6322 278.807 34.5276C283.529 34.6257 288.258 34.7957 292.979 34.8153C303.515 34.8611 314.051 34.835 324.587 34.835C336.928 38.7328 347.379 45.5736 356.162 55.05C357.156 56.1291 358.529 56.8615 359.72 57.751C360.616 55.0565 361.518 52.362 362.414 49.6741C353.991 39.7203 344.155 31.8396 331.271 28.4323C330.329 28.1315 329.394 27.8306 328.452 27.5298C321.448 24.6588 314.084 24.7438 306.733 24.9792C296.524 25.3062 286.289 25.4697 276.119 26.3461C271.568 26.7385 266.551 26.3984 262.627 29.7469C254.178 30.2897 247.095 34.6126 239.672 38.0003C238.377 38.1049 236.965 37.9022 235.801 38.3535C229.895 40.649 224.225 39.0925 218.685 37.2286C213.787 35.5805 209.072 33.4027 204.278 31.4603C204.01 31.1857 203.689 31.1006 203.323 31.1922C202.793 30.8652 202.264 30.5447 201.734 30.2177C192.493 24.2075 183.278 18.1581 174.011 12.2002C165.653 6.82431 157.275 1.44193 147.001 0.447852C146.923 3.43661 145.503 4.75114 143.169 5.08468C145.51 4.75768 146.923 3.43661 147.001 0.447852L147.008 0.480564ZM309.074 240.144L309.074 240.19C309.074 240.19 309.074 240.17 309.074 240.144ZM211.066 282.582C211.217 282.627 211.38 282.712 211.563 282.83C211.38 282.706 211.217 282.627 211.066 282.582C210.988 282.555 210.916 282.542 210.851 282.536C210.923 282.536 210.995 282.555 211.066 282.582ZM191.362 281.117C190.126 282.157 188.883 282.569 187.627 282.091C188.883 282.562 190.125 282.157 191.355 281.117C195.972 280.685 200.419 280.96 204.409 283.111C200.419 280.953 195.972 280.678 191.355 281.117L191.362 281.117ZM135.883 284.851C137.374 284.753 138.865 284.668 140.35 284.589C138.859 284.668 137.368 284.759 135.883 284.851ZM48.0188 224.683C48.0188 224.683 47.8487 224.513 47.7637 224.428C47.8487 224.513 48.0188 224.683 48.0253 224.683L48.0188 224.683ZM170.198 19.9108C170.048 19.7538 169.891 19.6034 169.727 19.4595C169.891 19.6034 170.041 19.7538 170.192 19.9108L170.198 19.9108ZM148.231 7.92957C148.231 7.92957 148.204 7.91649 148.191 7.90995C148.204 7.90995 148.217 7.92303 148.231 7.92957ZM136.478 7.07938C136.701 6.11801 137.224 5.62097 137.897 5.36591C137.224 5.62097 136.707 6.11801 136.478 7.07938Z" fill="#11FFE2"/>
<path d="M49.2557 225.5L48.8633 225.513C48.8633 225.513 49.0987 225.814 49.1053 225.82L49.2557 225.506L49.2557 225.5Z" fill="#11FFE2"/>
<path d="M63.2159 240.404C59.761 236.897 56.2996 233.384 52.8447 229.877L52.7662 229.837C52.3409 229.421 51.9221 228.998 51.4968 228.582C51.0911 228.1 50.6854 227.618 50.2797 227.143L50.4302 226.826L50.0376 226.839C49.9068 226.403 49.6254 226.126 49.1935 226.007L49.2393 225.63L48.886 225.696C48.4411 225.32 47.9896 224.937 47.5446 224.56C47.1193 224.151 46.694 223.741 46.2687 223.332L46.1836 223.206C44.9796 221.681 43.8477 220.102 42.5717 218.649C38.0961 213.551 33.4045 208.637 29.1121 203.387C19.2055 191.281 15.9797 177.385 18.8064 161.99C19.1597 160.061 19.3102 158.087 19.5523 156.138C23.5699 147.163 27.437 138.115 31.6509 129.232C37.1538 117.621 36.7481 106.916 28.1044 96.8637C23.9952 92.0821 20.1543 87.0165 16.6863 81.7462C14.5598 78.5166 13.0613 74.7653 11.8443 71.0536C10.3262 66.4305 11.8835 62.4877 15.5936 59.3308C19.6308 55.8899 22.078 55.4143 26.7369 58.3797C30.9442 61.0611 34.7786 64.3171 38.8944 67.1504C41.9174 69.2374 45.0451 71.1857 48.2644 72.9557C57.1764 77.8628 65.2836 73.484 69.9948 67.0778C73.8488 61.8404 75.8707 55.8832 76.2502 49.3647C77.4541 46.6304 78.6581 43.8896 79.8555 41.1554L79.9537 40.9638C80.1238 40.66 80.3005 40.3628 80.4706 40.059C80.8305 39.2335 81.1838 38.4013 81.5437 37.5758C82.3224 36.5851 83.101 35.5878 83.8797 34.5972L83.9386 34.5377C86.9027 31.427 89.821 28.2767 92.8309 25.2189C102.45 15.4642 114.81 11.9308 127.7 9.55319C129.735 9.17674 131.692 8.35779 133.687 7.73697C134.983 7.68414 136.285 7.6247 137.581 7.57186C140.695 7.66433 143.81 7.75678 146.931 7.84924C148.187 8.19927 149.45 8.54933 150.707 8.89936C151.668 9.1107 152.637 9.31543 153.599 9.52677C154.332 9.82397 155.064 10.1278 155.791 10.425C156.275 10.5835 156.753 10.742 157.237 10.9005C160.293 12.5054 163.355 14.1102 166.411 15.7085C166.646 16.118 166.999 16.3029 167.471 16.2699C168.465 16.9633 169.46 17.6634 170.448 18.3569C170.494 18.6673 170.67 18.7928 170.971 18.7465L170.991 19.2221L171.449 19.2089C172.764 19.975 174.079 20.7411 175.395 21.5138C177.632 23.1253 179.864 24.7302 182.101 26.3416C182.272 26.7313 182.566 26.9228 182.985 26.9096C183.992 27.6427 185 28.3692 186.008 29.1023C186.008 29.1023 186.394 29.4061 186.394 29.3995L186.584 29.9675L187.173 30.0467C199.009 37.5295 211.494 43.7575 224.777 48.0174C228.631 49.2524 233.545 48.8627 237.51 47.6607C245.172 45.3294 252.429 41.6771 259.987 38.9693C265.26 37.0804 270.77 35.8454 276.175 34.3132C277.483 34.2141 278.799 34.115 280.107 34.0094C284.838 34.1084 289.562 34.2802 294.293 34.3C304.834 34.3462 315.376 34.3198 325.917 34.3198C338.264 38.256 348.721 45.1643 357.508 54.7341C358.503 55.8238 359.877 56.5635 361.068 57.4617C363.103 60.8101 365.007 64.251 367.205 67.4872C374.475 78.16 373.657 89.6186 369.646 100.879C366.728 109.082 362.494 116.835 358.621 124.668C353.53 134.965 350.579 145.505 353.949 157.004C354.125 157.611 354.544 158.153 354.852 158.727C354.95 159.652 355.048 160.577 355.153 161.501C355.499 163.628 355.853 165.761 356.2 167.888C356.311 168.812 356.422 169.737 356.533 170.662C355.971 180.225 355.866 189.847 354.701 199.338C353.759 207.045 351.541 214.601 349.892 222.222C348.498 223.596 347.026 224.897 345.724 226.357C340.757 231.898 334.803 235.603 327.468 237.109C323.647 237.895 319.93 239.182 316.168 240.246C315.552 240.338 314.937 240.431 314.316 240.53L314.047 240.609C313.622 240.695 313.19 240.781 312.758 240.873C311.947 240.999 311.142 241.118 310.331 241.243C308.361 241.507 306.398 241.771 304.429 242.036C303.323 242.234 302.211 242.432 301.105 242.63C296.897 243.594 292.697 244.565 288.489 245.529C287.455 245.582 286.422 245.635 285.388 245.688C271.13 246.111 258.658 251.823 246.54 258.811C236.967 264.326 227.46 270.104 217.396 274.556C209.544 278.03 200.881 279.635 192.577 282.072C190.87 282.395 189.168 282.725 187.46 283.049C184.719 283.194 181.977 283.34 179.235 283.485C177.757 283.974 176.271 284.462 174.793 284.958C168.02 285.255 161.254 285.546 154.482 285.843C153.913 285.572 153.344 285.057 152.774 285.063C139.465 285.169 126.83 282.085 114.574 277.059C113.606 276.663 112.507 276.61 111.466 276.398C111.054 276.28 110.642 276.161 110.23 276.048L110.315 276.048C107.063 274.067 103.641 272.317 100.585 270.071C92.0719 263.824 83.7161 257.371 75.2883 251.004C73.9207 249.968 72.5205 248.983 71.1333 247.966C69.0983 245.972 67.0634 243.971 65.0284 241.976C64.4264 241.448 63.8244 240.926 63.2224 240.398L63.2159 240.404Z" fill="#11FFE2" stroke="#11FFE2" stroke-width="2"/>
</svg>
