<svg width="239" height="295" viewBox="0 0 239 295" fill="none" xmlns="http://www.w3.org/2000/svg">
<path d="M236.061 174.36C234.854 162.179 229.274 151.487 224.56 140.504C223.442 140.528 222.324 140.545 221.206 140.569C222.324 140.545 223.442 140.528 224.568 140.504C221.644 125.253 218.582 110.026 215.845 94.7498C213.099 79.4011 209.932 64.1821 203.185 50.016C198.439 40.0535 192.656 30.7552 183.568 24.0083C165.919 7.60669 144.034 1.59682 120.958 0.146999C104.338 -0.897844 88.4466 3.65411 74.321 12.9443C70.3684 15.5443 66.8613 18.8246 63.1517 21.7971C50.0872 29.9858 41.129 41.4628 35.8643 55.8881C31.7498 63.7933 29.5548 72.2978 29.3361 81.1101C29.0769 91.2589 28.9554 101.367 26.072 111.2C21.7711 118.805 17.3488 126.33 13.2342 134.025C10.8772 138.431 9.02241 143.104 6.94083 147.656C0.388285 157.837 -0.899544 169.136 0.517879 180.751C2.84245 199.728 8.26105 217.92 15.3077 235.682C21.7468 251.93 32.4463 264.427 47.2199 273.58C49.2772 275.273 51.1563 277.265 53.4161 278.602C69.761 288.289 87.7663 292.703 106.46 294.104C125.85 295.562 144.666 292.217 162.396 284.206C174.65 278.674 186.589 272.397 195.685 261.997C198.754 259.244 201.832 256.49 204.91 253.736C211.495 247.686 218.023 241.595 221.198 232.88C221.733 232.305 222.267 231.721 222.802 231.146H222.786C222.081 226.611 221.377 222.075 220.672 217.547C215.885 223.97 211.212 230.474 206.271 236.775C202.634 241.408 198.649 245.766 194.81 250.245C193.87 251.063 192.923 251.889 191.983 252.707C191.57 253.047 191.157 253.396 190.744 253.736C187.14 256.465 183.535 259.203 179.939 261.933C179.105 262.613 178.271 263.293 177.436 263.966C175.93 264.889 174.423 265.82 172.909 266.752C168.851 268.777 164.85 270.939 160.719 272.802C144.601 280.076 127.729 284.077 110 283.364C103.876 283.121 97.8097 281.639 91.7108 280.74C89.3295 280.392 86.9401 280.092 84.5508 279.768C80.4362 278.618 75.6251 279.549 72.4095 275.71C71.5591 275.418 70.7086 275.127 69.8501 274.827C63.7754 271.029 57.644 267.319 51.6423 263.415C37.873 254.457 28.599 241.886 23.2776 226.513C17.7537 210.573 13.1937 194.342 10.5856 177.624C11.4037 172.376 12.1002 167.111 13.056 161.895C15.5345 148.304 23.7717 137.426 30.2513 125.722C34.7952 117.501 40.0194 109.515 39.7521 99.5447C39.8574 96.4993 39.9627 93.4539 40.068 90.4084C40.1004 89.2826 40.1247 88.1487 40.1571 87.0228C40.4001 81.9606 40.4568 76.8741 40.7808 71.82C40.4568 76.8741 40.4001 81.9525 40.1571 87.0147C41.2181 80.5027 42.101 73.9663 43.3645 67.4948C46.6124 50.7773 57.4011 39.195 69.9797 28.8518C72.2151 27.0132 74.2643 24.9397 76.3945 22.9715C83.1333 19.7641 89.7912 16.3542 96.6434 13.3979C111.125 7.15311 125.729 8.23035 140.535 12.6203C151.421 15.852 161.318 20.9953 171.103 26.5191C174.326 29.435 177.55 32.3508 180.773 35.2667C181.778 35.3072 182.515 35.5745 183.033 36.0361C182.523 35.5745 181.778 35.3153 180.773 35.2748C181.786 36.4492 182.806 37.6236 183.819 38.7981C184.135 39.2759 184.451 39.7619 184.775 40.2398L184.88 40.904L185.544 41.0255C186.297 41.7625 187.051 42.5077 187.804 43.2447C187.804 43.7793 187.609 44.4354 187.852 44.8241C198.463 61.9304 202.383 81.0939 205.59 100.606C208.247 116.789 210.296 133.174 216.46 148.588C220.032 157.521 223.653 166.447 227.249 175.373C229.063 188.04 226.212 200.117 222.616 212.096C222.073 213.586 221.53 215.077 220.988 216.567C220.704 216.842 220.607 217.166 220.712 217.547C221.417 222.083 222.122 226.619 222.826 231.146C231.388 222.172 235.518 211.343 236.288 199.096C240.313 190.819 239.528 182.573 236.093 174.352L236.061 174.36ZM176.505 266.144C176.578 266.088 176.643 266.023 176.707 265.958C176.643 266.031 176.57 266.088 176.505 266.144ZM176.465 266.185C175.849 266.663 175.015 266.784 174.108 266.792C175.015 266.784 175.849 266.671 176.465 266.185ZM57.5468 272.673C56.8341 272.268 56.1456 271.814 55.4815 271.28C56.1456 271.814 56.8422 272.276 57.5468 272.673ZM61.1916 274.179C61.062 274.139 60.9244 274.106 60.7867 274.066C60.9163 274.106 61.054 274.139 61.1916 274.179ZM59.1506 273.466C59.0615 273.426 58.9643 273.394 58.8752 273.345C58.9643 273.385 59.0615 273.426 59.1506 273.466ZM9.233 174.514C9.2816 174.725 9.34639 174.927 9.42739 175.138C9.35449 174.935 9.2816 174.725 9.233 174.514Z" fill="#11FFE2"/>
<path d="M84.5577 279.785C80.5161 278.433 76.4663 277.08 72.4165 275.728C75.632 279.575 80.4432 278.635 84.5577 279.785Z" fill="#11FFE2"/>
<path d="M190.687 254.435C187.082 257.165 183.478 259.903 179.882 262.632C179.048 263.312 178.213 263.993 177.379 264.665C175.873 265.588 174.366 266.52 172.851 267.451C168.794 269.476 164.792 271.639 160.662 273.502C144.544 280.775 127.672 284.776 109.942 284.064C103.819 283.821 97.7524 282.338 91.6534 281.439C89.2722 281.091 86.8828 280.791 84.5015 280.467C80.4599 279.115 76.4101 277.762 72.3603 276.409C71.5099 276.118 70.6594 275.826 69.8009 275.527C63.7262 271.728 57.5867 268.018 51.585 264.114C37.8157 255.156 28.5498 242.586 23.2203 227.213C17.6964 211.273 13.1364 195.041 10.5283 178.324C11.3464 173.075 12.0429 167.811 12.9987 162.595C15.4771 149.003 23.7144 138.126 30.194 126.422C34.7379 118.201 39.9621 110.215 39.6948 100.244C39.8001 97.1987 39.9054 94.1533 40.0107 91.1079C40.0431 89.982 40.0674 88.8481 40.0998 87.7223C41.1608 81.2102 42.0518 74.6658 43.3072 68.1942C46.5551 51.4768 57.3437 39.8944 69.9223 29.5513C72.1578 27.7127 74.207 25.6392 76.3372 23.671C83.0841 20.4636 89.7339 17.0537 96.5861 14.0973C111.068 7.85256 125.672 8.9298 140.478 13.3198C151.363 16.5515 161.261 21.6947 171.045 27.2186C174.269 30.1344 177.493 33.0503 180.716 35.9661C181.729 37.1405 182.749 38.315 183.762 39.4894C184.077 39.9673 184.393 40.4533 184.709 40.9311L184.815 41.5953L185.479 41.7168C186.232 42.4539 186.985 43.199 187.738 43.9361C187.738 44.4706 187.544 45.1267 187.787 45.5155C198.397 62.6217 202.318 81.7853 205.525 101.297C208.182 117.48 210.231 133.865 216.395 149.279C219.967 158.213 223.587 167.138 227.183 176.064C228.998 188.732 226.147 200.808 222.55 212.779C222.008 214.27 221.465 215.76 220.914 217.258C220.631 217.534 220.534 217.858 220.639 218.238C215.852 224.661 211.179 231.165 206.23 237.467C202.593 242.1 198.6 246.457 194.769 250.944C193.829 251.763 192.882 252.581 191.942 253.399C191.529 253.739 191.116 254.087 190.703 254.435H190.687Z" fill="#11FFE2" stroke="#11FFE2" stroke-width="2"/>
</svg>
