<svg width="381" height="293" viewBox="0 0 381 293" fill="none" xmlns="http://www.w3.org/2000/svg">
<path d="M365.859 68.0067C373.125 78.5753 372.307 89.9221 368.298 101.073C365.382 109.195 361.15 116.873 357.278 124.63C352.19 134.825 349.241 145.263 352.609 156.649C352.786 157.251 353.204 157.787 353.511 158.356C353.61 159.272 353.708 160.187 353.812 161.103C354.159 163.209 354.512 165.321 354.859 167.427C354.97 168.343 355.081 169.258 355.192 170.174C356.369 170.449 356.853 171.063 357.056 171.815C356.853 171.063 356.376 170.449 355.192 170.174C354.63 179.644 354.525 189.172 353.361 198.57C352.419 206.203 350.202 213.684 348.554 221.231C350.771 223.017 352.995 224.796 355.212 226.581C356.363 224.828 357.965 223.22 358.58 221.29C361.157 213.194 362.903 204.927 362.393 196.334C363.191 191.684 364.799 187.008 364.61 182.397C364.224 173.13 363.524 163.765 361.699 154.694C359.881 145.623 361.771 137.579 365.46 129.607C367.553 125.087 370.012 120.732 372.131 116.219C376.009 107.959 379.462 99.5228 380.659 90.3995C382.137 79.0789 378.749 69.1577 371.562 60.4269C368.913 56.601 367.173 51.9773 362.419 49.9891C361.523 52.6836 360.62 55.3781 359.724 58.066C361.758 61.3817 363.661 64.789 365.859 67.9936L365.859 68.0067ZM357.187 172.718C357.193 172.829 357.2 172.947 357.207 173.065C357.207 172.947 357.2 172.836 357.187 172.718ZM355.67 166.073C355.918 165.491 356.023 164.929 355.99 164.393C356.023 164.929 355.918 165.485 355.67 166.073ZM355.938 164C355.951 164.053 355.951 164.105 355.957 164.164C355.951 164.111 355.944 164.053 355.938 164Z" fill="#11FFE2"/>
<path d="M147.008 0.762791C132.927 -0.963758 119.559 2.18196 106.401 6.70761C106.041 6.83187 105.793 7.28966 105.492 7.59704C98.9716 8.75461 93.5761 11.8807 89.2597 16.8969C84.7341 19.4671 81.1437 22.9463 78.8939 27.7009C74.7868 33.4103 70.32 38.7665 67.7956 45.6007C65.9579 50.5711 63.0345 55.4041 59.5814 59.4327C55.1408 64.6189 48.6924 64.6713 43.1988 60.4791C40.7921 58.6414 38.6536 56.4505 36.43 54.3774C32.1463 50.3749 28.1242 46.0455 23.5724 42.3896C18.6544 38.446 13.0954 38.688 8.73979 43.0044C2.25215 49.4332 -0.71699 57.6997 0.146285 66.594C1.2777 78.2221 7.41872 87.6723 15.6394 95.7818C16.7316 97.6588 17.608 99.7123 18.9552 101.387C25.9922 110.117 25.5475 119.221 20.9041 128.815C17.5033 135.846 14.0045 142.883 11.395 150.22C5.27362 167.453 5.581 184.3 16.1103 200.068C18.6609 203.606 21.2115 207.144 23.7686 210.682C27.3656 214.94 30.7337 219.42 34.6119 223.403C40.452 229.4 46.6585 235.057 52.7014 240.858C55.2324 243.245 57.7568 245.632 60.2877 248.019C64.6041 251.825 68.9205 255.631 73.2434 259.431C73.2434 259.418 73.2434 259.405 73.2369 259.398C73.2369 259.366 73.2238 259.32 73.2238 259.32C73.8124 259.974 74.4075 260.621 74.9961 261.275C77.3963 263.388 79.6002 265.801 82.2489 267.547C87.7229 271.157 93.4257 274.408 99.037 277.802C105.355 282.426 112.339 285.454 120.083 286.683C121.155 287.187 122.234 287.684 123.307 288.187C124.595 288.41 125.89 288.632 127.178 288.854C134.157 290.182 141.141 292.641 148.093 292.563C161.5 292.412 174.933 291.163 188.275 289.692C194.638 288.992 200.831 286.749 207.097 285.205C207.868 285.035 208.634 284.872 209.405 284.702C210.321 284.335 211.236 283.969 212.152 283.603C212.047 283.498 211.943 283.407 211.845 283.328C211.943 283.407 212.047 283.505 212.152 283.603C212.996 283.374 213.839 283.139 214.683 282.91C215.736 282.419 216.782 281.922 217.835 281.432C225.925 279.548 232.845 275.304 239.594 270.7C240.333 270.255 241.065 269.81 241.804 269.359C242.844 268.639 243.884 267.92 244.93 267.201C254.047 263.015 263.164 258.83 272.28 254.644C284.052 252.695 295.85 250.877 307.596 248.758C314.175 247.568 320.663 245.887 327.196 244.429C328.04 244.252 328.884 244.075 329.727 243.899C330.872 243.454 332.016 243.016 333.167 242.571C342.847 240.452 350.073 234.952 355.214 226.574C352.997 224.789 350.773 223.01 348.556 221.225C347.163 222.585 345.691 223.873 344.39 225.312C339.426 230.799 333.475 234.468 326.144 235.959C322.324 236.738 318.609 238.013 314.842 239.066C314.228 239.157 313.613 239.249 312.998 239.34L312.73 239.419C312.305 239.504 311.873 239.589 311.442 239.674C311.906 240.034 312.37 240.387 312.841 240.747C316.013 240.799 319.29 240.446 322.259 241.283C323.148 241.531 324.012 241.891 324.842 242.401C324.018 241.891 323.155 241.538 322.259 241.283C319.29 240.446 316.013 240.799 312.841 240.747C312.377 240.387 311.913 240.034 311.442 239.674C310.631 239.798 309.826 239.916 309.015 240.04C307.047 240.302 305.085 240.563 303.116 240.825C302.011 241.021 300.899 241.217 299.794 241.414C295.589 242.368 291.39 243.33 287.185 244.285C286.152 244.337 285.118 244.389 284.085 244.442C281.129 245.553 278.206 246.835 275.263 248.012C278.206 246.835 281.129 245.547 284.085 244.442C269.834 244.867 257.369 250.517 245.257 257.436C235.689 262.897 226.187 268.62 216.128 273.028C208.28 276.468 199.622 278.057 191.322 280.47L191.322 280.921C191.322 280.921 191.322 280.47 191.322 280.464C189.615 280.784 187.915 281.111 186.208 281.432C183.468 281.575 180.728 281.719 177.987 281.863C176.509 282.347 175.025 282.831 173.547 283.322C166.778 283.616 160.016 283.904 153.247 284.198C152.678 283.93 152.109 283.42 151.54 283.426C138.237 283.531 125.609 280.477 113.359 275.5C112.392 275.107 111.293 275.055 110.253 274.846C109.841 274.728 109.436 274.617 109.023 274.499C106.865 274.558 104.687 274.552 102.726 275.206C104.687 274.545 106.865 274.552 109.023 274.493C109.023 274.493 109.076 274.493 109.102 274.493C109.102 274.493 109.095 274.493 109.089 274.493C109.089 274.493 109.095 274.493 109.102 274.493C105.852 272.537 102.431 270.798 99.3705 268.574C90.862 262.387 82.5105 255.998 74.087 249.693C72.7202 248.673 71.3206 247.692 69.9342 246.685C67.9002 244.71 65.8663 242.735 63.8324 240.76C63.2307 240.236 62.629 239.72 62.0274 239.197C61.9947 239.504 61.962 239.818 61.9358 240.125C61.9685 239.818 62.0012 239.504 62.0274 239.197C58.5743 235.724 55.1146 232.245 51.6615 228.772L51.5831 228.733C51.158 228.321 50.7394 227.902 50.3143 227.49C49.9088 227.013 49.5033 226.535 49.0913 226.064L48.8559 225.763C48.7251 225.332 48.4439 225.057 48.0122 224.939L48.058 224.567L47.7049 224.632C47.2601 224.259 46.8089 223.88 46.3642 223.507C45.9391 223.102 45.514 222.696 45.0889 222.291L45.0039 222.167C43.8397 221.656 42.3683 221.421 41.4396 220.702C42.3683 221.414 43.8397 221.656 45.0039 222.16C43.807 220.649 42.6691 219.086 41.3938 217.647C36.9205 212.599 32.2313 207.733 27.9411 202.534C18.0396 190.546 14.8154 176.786 17.6407 161.541C17.9938 159.631 18.1443 157.676 18.3862 155.747C22.4018 146.859 26.2669 137.899 30.4786 129.103C35.9787 117.606 35.5732 107.004 26.9339 97.0506C22.8269 92.3156 18.9879 87.2995 15.5217 82.0806C13.3962 78.8826 11.8986 75.1679 10.6822 71.4924C9.16489 66.9145 10.7214 63.0101 14.4296 59.884C18.4647 56.4767 20.9106 56.0058 25.5671 58.9423C29.7723 61.5975 33.6047 64.8217 37.7183 67.6339C40.7398 69.7005 43.8659 71.6298 47.0836 73.3825C55.991 78.2417 64.094 73.9057 68.8028 67.5619C72.6548 62.3757 74.6756 56.4767 75.055 50.0218C76.2583 47.3142 77.4617 44.6001 78.6585 41.8926L78.7566 41.7029C78.7827 41.4152 78.8874 41.1797 79.0639 40.9835C78.8808 41.1732 78.7827 41.4152 78.7566 41.7029C78.9266 41.4021 79.1032 41.1078 79.2732 40.8069C79.6329 39.9894 79.9861 39.1654 80.3458 38.3479C81.124 37.3669 81.9023 36.3794 82.6805 35.3984L82.7394 35.3395C85.702 32.2592 88.6188 29.1397 91.6272 26.1117C101.241 16.4521 113.595 12.9533 126.479 10.5989C128.513 10.2261 130.468 9.41514 132.463 8.80038C133.758 8.74806 135.059 8.68921 136.354 8.63689C139.467 8.72844 142.58 8.82001 145.7 8.91157C146.955 9.25819 148.217 9.60481 149.473 9.95142C150.434 10.1607 151.402 10.3634 152.364 10.5727C153.096 10.867 153.822 11.1679 154.555 11.4622C155.039 11.6191 155.516 11.7761 156 11.933C159.054 13.5222 162.115 15.1114 165.169 16.6941C164.423 15.3273 163.475 14.3528 162.383 13.653C161.605 13.156 160.755 12.7963 159.852 12.5412C160.755 12.8028 161.605 13.156 162.383 13.653C163.475 14.3528 164.423 15.3273 165.169 16.6941C165.404 17.0996 165.758 17.2827 166.228 17.25C167.223 17.9367 168.217 18.63 169.204 19.3166C169.25 19.6175 169.427 19.7483 169.727 19.7025L169.747 20.1668L170.205 20.1538C171.519 20.9124 172.834 21.671 174.148 22.4362C176.385 24.0319 178.615 25.6212 180.852 27.2169C181.022 27.6028 181.316 27.7924 181.735 27.7794C182.742 28.5053 183.749 29.2247 184.756 29.9506L185.142 30.2449L185.332 30.8074L185.92 30.8858C185.803 30.6373 185.626 30.4542 185.397 30.3365C185.626 30.4542 185.803 30.6308 185.92 30.8858C197.751 38.2956 210.229 44.4628 223.505 48.681C227.357 49.904 232.269 49.5182 236.232 48.3279C243.89 46.0193 251.143 42.4027 258.697 39.7213C263.968 37.8509 269.475 36.6279 274.877 35.1106C276.185 35.0125 277.499 34.9144 278.807 34.8098C283.529 34.9079 288.258 35.0779 292.979 35.0976C303.515 35.1433 314.051 35.1172 324.587 35.1172C336.928 39.015 347.379 45.8558 356.162 55.3322C357.156 56.4113 358.529 57.1438 359.72 58.0332C360.616 55.3387 361.518 52.6443 362.414 49.9563C353.991 40.0025 344.155 32.1219 331.271 28.7146C330.329 28.4137 329.394 28.1129 328.452 27.812C321.448 24.941 314.084 25.026 306.733 25.2615C296.524 25.5885 286.289 25.752 276.119 26.6283C271.568 27.0207 266.551 26.6806 262.627 30.0291C254.178 30.5719 247.095 34.8948 239.672 38.2825C238.377 38.3872 236.965 38.1844 235.801 38.6357C229.895 40.9312 224.225 39.3747 218.685 37.5108C213.787 35.8627 209.072 33.6849 204.278 31.7426C204.01 31.4679 203.689 31.3829 203.323 31.4744C202.793 31.1474 202.264 30.827 201.734 30.5C192.493 24.4898 183.278 18.4403 174.011 12.4824C165.653 7.10654 157.275 1.72415 147.001 0.730079C146.923 3.71884 145.503 5.03337 143.169 5.36691C145.51 5.03991 146.923 3.71884 147.001 0.730079L147.008 0.762791ZM309.074 240.426L309.074 240.472C309.074 240.472 309.074 240.452 309.074 240.426ZM211.066 282.864C211.217 282.91 211.38 282.995 211.563 283.112C211.38 282.988 211.217 282.91 211.066 282.864C210.988 282.838 210.916 282.825 210.851 282.818C210.923 282.818 210.995 282.838 211.066 282.864ZM191.362 281.399C190.126 282.439 188.883 282.851 187.627 282.373C188.883 282.844 190.125 282.439 191.355 281.399C195.972 280.967 200.419 281.242 204.409 283.394C200.419 281.235 195.972 280.961 191.355 281.399L191.362 281.399ZM135.883 285.133C137.374 285.035 138.865 284.95 140.35 284.872C138.859 284.95 137.368 285.042 135.883 285.133ZM48.0188 224.966C48.0188 224.966 47.8487 224.796 47.7637 224.711C47.8487 224.796 48.0188 224.966 48.0253 224.966L48.0188 224.966ZM170.198 20.193C170.048 20.036 169.891 19.8856 169.727 19.7417C169.891 19.8856 170.041 20.036 170.192 20.193L170.198 20.193ZM148.231 8.21179C148.231 8.21179 148.204 8.19871 148.191 8.19217C148.204 8.19217 148.217 8.20525 148.231 8.21179ZM136.478 7.36161C136.701 6.40023 137.224 5.9032 137.897 5.64814C137.224 5.9032 136.707 6.40023 136.478 7.36161Z" fill="#11FFE2"/>
<path d="M49.2557 225.782L48.8633 225.795C48.8633 225.795 49.0987 226.096 49.1053 226.103L49.2557 225.789L49.2557 225.782Z" fill="#11FFE2"/>
<path d="M61.2742 240.687C57.7977 237.18 54.3146 233.666 50.838 230.159L50.759 230.119C50.331 229.703 49.9096 229.281 49.4816 228.865C49.0734 228.382 48.6652 227.9 48.2569 227.425L48.4084 227.108L48.0133 227.121C47.8816 226.685 47.5985 226.408 47.1639 226.289L47.21 225.912L46.8545 225.978C46.4067 225.602 45.9524 225.219 45.5047 224.843C45.0767 224.433 44.6487 224.024 44.2207 223.614L44.1351 223.489C42.9236 221.963 41.7845 220.385 40.5005 218.932C35.9968 213.833 31.2758 208.919 26.9565 203.669C16.9877 191.563 13.7416 177.667 16.5861 162.272C16.9416 160.344 17.0931 158.369 17.3367 156.421C21.3795 147.445 25.2709 138.397 29.5112 129.514C35.0487 117.904 34.6404 107.198 25.9425 97.1459C21.8075 92.3643 17.9425 87.2987 14.4528 82.0284C12.3128 78.7988 10.805 75.0475 9.58031 71.3358C8.05274 66.7127 9.61982 62.7699 13.3532 59.613C17.4157 56.1721 19.8783 55.6966 24.5663 58.6619C28.8001 61.3433 32.6585 64.5993 36.8001 67.4326C39.8421 69.5196 42.9894 71.4679 46.2289 73.2379C55.1969 78.145 63.3549 73.7663 68.0956 67.36C71.9738 62.1227 74.0084 56.1655 74.3903 49.6469C75.6018 46.9127 76.8134 44.1718 78.0183 41.4376L78.1171 41.2461C78.2883 40.9423 78.466 40.6451 78.6372 40.3413C78.9994 39.5157 79.3549 38.6836 79.7171 37.858C80.5006 36.8673 81.2841 35.8701 82.0677 34.8794L82.1269 34.82C85.1097 31.7093 88.0463 28.559 91.0751 25.5011C100.754 15.7464 113.192 12.213 126.163 9.83542C128.211 9.45897 130.18 8.64002 132.188 8.0192C133.492 7.96637 134.802 7.90693 136.106 7.85409C139.24 7.94655 142.374 8.039 145.515 8.13146C146.779 8.4815 148.05 8.83155 149.314 9.18159C150.282 9.39293 151.256 9.59765 152.224 9.80899C152.962 10.1062 153.699 10.41 154.43 10.7072C154.917 10.8657 155.398 11.0242 155.885 11.1827C158.96 12.7876 162.041 14.3925 165.116 15.9907C165.353 16.4002 165.709 16.5851 166.183 16.5521C167.184 17.2456 168.185 17.9456 169.179 18.6391C169.225 18.9495 169.403 19.075 169.706 19.0288L169.725 19.5043L170.186 19.4911C171.51 20.2572 172.833 21.0233 174.157 21.796C176.409 23.4075 178.654 25.0124 180.906 26.6239C181.077 27.0135 181.373 27.2051 181.795 27.1918C182.809 27.9249 183.823 28.6514 184.837 29.3845C184.837 29.3845 185.225 29.6883 185.225 29.6817L185.416 30.2497L186.009 30.329C197.92 37.8118 210.483 44.0397 223.849 48.2996C227.727 49.5346 232.672 49.1449 236.662 47.9429C244.372 45.6116 251.675 41.9593 259.28 39.2515C264.587 37.3627 270.131 36.1276 275.569 34.5954C276.886 34.4963 278.21 34.3973 279.526 34.2916C284.287 34.3907 289.041 34.5624 293.801 34.5822C304.409 34.6284 315.016 34.602 325.624 34.602C338.048 38.5382 348.57 45.4465 357.413 55.0163C358.414 56.106 359.797 56.8457 360.995 57.7439C363.043 61.0924 364.959 64.5333 367.171 67.7694C374.486 78.4422 373.663 89.9009 369.627 101.161C366.69 109.364 362.43 117.118 358.532 124.951C353.41 135.247 350.44 145.788 353.831 157.286C354.009 157.893 354.43 158.435 354.74 159.01C354.839 159.934 354.937 160.859 355.043 161.783C355.392 163.91 355.747 166.043 356.096 168.17C356.208 169.095 356.32 170.019 356.432 170.944C355.866 180.507 355.76 190.13 354.588 199.62C353.64 207.328 351.408 214.883 349.749 222.505C348.346 223.878 346.865 225.179 345.555 226.639C340.557 232.18 334.565 235.885 327.184 237.391C323.339 238.177 319.599 239.465 315.813 240.528C315.194 240.62 314.575 240.713 313.95 240.812L313.68 240.891C313.252 240.977 312.817 241.063 312.382 241.155C311.566 241.281 310.756 241.4 309.94 241.525C307.958 241.789 305.982 242.054 304.001 242.318C302.888 242.516 301.768 242.714 300.656 242.912C296.422 243.876 292.195 244.847 287.961 245.812C286.921 245.864 285.88 245.917 284.84 245.97C270.493 246.393 257.943 252.106 245.749 259.093C236.116 264.608 226.549 270.387 216.422 274.838C208.521 278.312 199.803 279.917 191.447 282.354C189.729 282.677 188.017 283.008 186.298 283.331C183.539 283.477 180.781 283.622 178.022 283.767C176.534 284.256 175.039 284.745 173.551 285.24C166.736 285.537 159.928 285.828 153.113 286.125C152.54 285.854 151.967 285.339 151.395 285.346C138.002 285.451 125.288 282.367 112.955 277.341C111.981 276.945 110.874 276.892 109.827 276.681C109.413 276.562 108.998 276.443 108.583 276.331L108.669 276.331C105.396 274.349 101.952 272.599 98.8776 270.354C90.3113 264.106 81.9031 257.653 73.4224 251.287C72.0463 250.25 70.6372 249.266 69.2413 248.249C67.1936 246.254 65.1458 244.253 63.0981 242.258C62.4923 241.73 61.8866 241.208 61.2808 240.68L61.2742 240.687Z" fill="#11FFE2" stroke="#11FFE2" stroke-width="2"/>
</svg>
