<svg width="301" height="384" viewBox="0 0 301 384" fill="none" xmlns="http://www.w3.org/2000/svg">
<path d="M300.703 213.697C299.793 208.37 299.367 202.899 297.837 197.76C296.458 193.125 293.874 188.852 291.824 184.413C291.059 183.107 290.294 181.807 289.522 180.501C289.125 179.93 288.72 179.367 288.323 178.797L288.432 178.898C287.97 177.823 287.508 176.754 287.046 175.679C283.668 171.492 280.282 167.299 276.897 163.112C273.201 157.07 267.556 153.273 261.594 149.838C257.516 150.444 253.437 151.05 249.359 151.649C254.787 155.655 260.215 159.662 265.644 163.661C270.458 169.897 275.612 175.903 280.008 182.421C287.984 194.259 291.629 207.511 291.528 221.804C291.514 223.428 292.019 225.059 292.279 226.683C292.257 227.643 292.236 228.596 292.221 229.556C292.098 231.743 291.969 233.93 291.846 236.117C292.467 248.085 293.044 260.039 292.098 271.985C293.044 260.039 292.467 248.078 291.846 236.117C291.268 239.091 290.243 242.051 290.186 245.032C289.846 262.796 287.789 280.293 282.722 297.379C277.879 306.633 273.143 315.951 268.156 325.133C262.886 334.82 256.007 343.265 247.656 350.483C241.347 353.775 235.024 357.052 228.744 360.401C228.188 360.697 227.907 361.506 227.502 362.076C226.954 362.242 226.405 362.401 225.857 362.567C224.658 362.942 223.467 363.317 222.269 363.7C215.809 365.858 209.348 368.017 202.888 370.175C198.146 371.395 193.396 372.615 188.654 373.835C184.763 373.806 180.872 373.777 176.989 373.748L158.554 364.949L158.705 364.732L158.503 364.913C158.503 364.913 158.546 364.949 158.554 364.949L158.51 364.913L157.24 363.895C156.229 363.224 155.211 362.552 154.201 361.881C153.789 361.448 153.371 361.015 152.959 360.575L152.57 360.228C152.454 359.795 152.187 359.521 151.761 359.384C150.751 358.849 149.69 358.38 148.65 357.875C149.682 358.38 150.751 358.849 151.754 359.384C143.98 350.584 136.495 341.605 132.091 330.482C126.44 316.211 120.391 302.099 114.977 287.742C109.946 274.396 102.229 262.536 95.4082 250.164C92.4054 244.714 89.6769 239.113 86.8257 233.577C86.5298 232.458 86.2338 231.346 85.9379 230.227C86.075 229.91 85.9812 229.686 85.6564 229.563C82.603 231.274 82.7691 233.447 83.3898 235.699C82.7618 233.439 82.603 231.267 85.6564 229.563C85.1078 225.781 84.4004 222.02 84.0539 218.223C83.2238 209.229 85.0933 200.474 87.8218 192.072C90.7669 182.991 94.506 174.134 98.4399 165.429C100.071 161.813 103.06 158.803 105.521 155.576C106.95 153.707 108.538 151.96 110.054 150.162L110.422 150.097L110.552 149.744C111.635 149.029 112.718 148.315 113.793 147.6C123.855 142.092 133.795 136.354 144.002 131.142C161.195 122.358 179.176 120.394 197.698 126.393C205.205 128.825 212.532 131.835 219.938 134.585L221.785 135.639L221.901 135.704C222.045 135.711 222.197 135.711 222.356 135.704C222.204 135.704 222.053 135.704 221.901 135.704C230.996 140.959 240.091 146.214 249.179 151.476L249.395 151.628C253.474 151.021 257.552 150.415 261.63 149.816C260.028 148.43 258.591 146.755 256.787 145.702C244.364 138.462 232.021 131.063 219.338 124.292C208.944 118.741 197.575 115.111 186.005 113.624C171.337 111.74 156.901 113.97 143.417 120.835C134.069 125.591 124.534 129.98 115.085 134.528C108.704 135.055 102.54 133.965 96.9602 130.94C80.0622 121.78 63.6551 111.819 49.8105 98.2848C34.2335 83.0615 25.3767 64.7993 25.1168 42.6681C25.0158 34.0423 24.6477 25.3804 23.7021 16.8123C23.2762 12.9289 21.7315 8.85783 19.6526 5.52299C15.7981 -0.583652 10.702 -0.655835 5.34605 4.15152C0.271612 8.69902 -0.248102 14.5314 0.0767193 20.6019C0.8202 34.4971 1.48428 48.3994 2.74747 62.2513C3.49095 70.3501 5.56259 78.2686 10.0957 85.2775C15.0402 97.5991 23.6732 107.25 32.8332 116.511C33.1363 116.814 33.6994 116.865 34.1397 117.031C41.0981 125.628 50.1786 131.72 58.9416 138.209C66.1671 143.55 73.2337 149.109 80.3726 154.566C83.8879 159.784 83.7002 165.941 84.7252 171.796C81.8884 180.948 79.0517 190.094 76.2077 199.247C75.3343 205.281 73.5658 211.359 73.8401 217.343C74.1288 223.745 74.6485 230.523 78.6474 236.168C79.6941 243.458 83.6353 249.406 87.5764 255.354C89.0056 257.808 90.4348 260.262 91.8641 262.717C92.3766 263.648 92.8891 264.586 93.4016 265.517C93.6758 266.073 93.9501 266.629 94.2172 267.185C94.8091 267.899 95.4082 268.614 96.0001 269.336L96.0795 269.892C96.5487 270.585 97.0107 271.285 97.4799 271.985C97.7975 272.793 98.1223 273.602 98.4399 274.41C98.7142 274.634 98.9091 274.908 99.039 275.226C99.0823 275.334 99.1184 275.442 99.1401 275.558C99.335 276.078 99.5371 276.59 99.732 277.11C100.425 278.221 101.125 279.333 101.818 280.452C101.739 280.849 101.847 281.195 102.136 281.484C102.504 282.177 102.872 282.87 103.247 283.563C103.471 284.299 103.695 285.028 103.919 285.765C104.388 286.003 105.001 286.147 105.427 286.414C105.009 286.14 104.395 286.003 103.919 285.765C105.795 290.904 107.492 296.116 109.578 301.176C115.121 314.63 120.463 328.179 126.569 341.374C132.25 353.645 140.313 364.22 152.223 371.323C164.559 382.662 178.938 386.373 195.078 382.121C204.519 379.631 213.881 376.693 223.041 373.315C232.122 369.973 241.874 367.829 249.273 360.87C252.716 358.012 256.152 355.146 259.595 352.288C259.984 351.898 260.374 351.501 260.771 351.111C261.284 350.483 261.803 349.863 262.316 349.235C263.254 347.957 264.193 346.679 265.131 345.395C265.651 344.752 266.163 344.102 266.683 343.453C275.258 334.56 280.607 323.689 285.616 312.609C289.962 306.257 292.322 299.14 293.701 291.647C295.08 285.635 297.13 279.687 297.714 273.595C299.151 258.66 300.024 243.668 300.898 228.69C301.186 223.716 300.782 218.707 300.695 213.712L300.703 213.697ZM224.167 135.697C224.016 135.697 223.872 135.69 223.713 135.697C223.864 135.697 224.016 135.697 224.167 135.697ZM101.724 155.186C103.399 153.569 104.85 151.491 107.015 150.595C104.842 151.491 103.392 153.562 101.724 155.186ZM167.598 372.723C168.089 372.947 168.572 373.163 169.071 373.358C168.58 373.163 168.089 372.954 167.598 372.723ZM170.853 373.943C170.622 373.878 170.391 373.813 170.168 373.741C170.399 373.813 170.622 373.878 170.853 373.943ZM201.3 372.384C200.557 372.708 199.669 372.73 198.81 372.773C199.661 372.73 200.557 372.701 201.3 372.384Z" fill="#11FFE2"/>
<path d="M98.4473 274.409C98.6782 274.792 98.9165 275.174 99.1474 275.557C99.1186 275.441 99.0897 275.333 99.0464 275.225C98.9165 274.907 98.7216 274.64 98.4473 274.409Z" fill="#11FFE2"/>
<path d="M153.046 360.178L152.555 360.25C152.555 360.25 152.944 360.596 152.944 360.604L153.046 360.178Z" fill="#11FFE2"/>
<path d="M247.531 350.263C241.222 353.554 234.899 356.831 228.619 360.181C228.063 360.477 227.782 361.285 227.378 361.855C226.829 362.021 226.28 362.18 225.732 362.346C224.541 362.722 223.343 363.097 222.144 363.479C215.684 365.638 209.224 367.796 202.763 369.954C198.021 371.174 193.271 372.394 188.529 373.614C184.638 373.585 180.748 373.556 176.864 373.527C170.714 370.589 164.572 367.659 158.429 364.728L158.58 364.512L158.378 364.692C157.952 364.353 157.527 364.014 157.108 363.682C156.097 363.01 155.08 362.339 154.069 361.668C153.658 361.235 153.239 360.802 152.835 360.368L152.936 359.943L152.445 360.015C152.329 359.582 152.062 359.307 151.636 359.17C143.855 350.371 136.377 341.392 131.967 330.268C126.315 315.998 120.266 301.886 114.852 287.529C109.821 274.182 102.105 262.323 95.2835 249.951C92.2807 244.501 89.5522 238.9 86.7082 233.37C86.4123 232.252 86.1163 231.133 85.8131 230.014C85.9503 229.696 85.8565 229.473 85.5316 229.35C84.983 225.568 84.2757 221.807 83.9292 218.01C83.0991 209.016 84.9686 200.26 87.6971 191.851C90.6422 182.77 94.3812 173.914 98.3152 165.208C99.9465 161.592 102.935 158.582 105.396 155.356C106.825 153.486 108.414 151.739 109.929 149.942L110.297 149.877L110.427 149.523C111.51 148.809 112.593 148.094 113.668 147.372C123.731 141.865 133.67 136.126 143.877 130.915C161.056 122.137 179.037 120.174 197.552 126.172C205.059 128.605 212.385 131.615 219.791 134.365C220.405 134.719 221.026 135.065 221.639 135.419L221.755 135.484C230.85 140.739 239.945 145.993 249.032 151.256L249.249 151.407C254.677 155.413 260.105 159.419 265.533 163.426C270.341 169.662 275.502 175.668 279.89 182.186C287.867 194.024 291.512 207.276 291.411 221.569C291.396 223.193 291.902 224.824 292.161 226.448C292.14 227.408 292.118 228.361 292.104 229.321C291.981 231.508 291.851 233.695 291.728 235.882C291.151 238.856 290.119 241.816 290.068 244.797C289.729 262.568 287.672 280.058 282.597 297.144C277.754 306.398 273.019 315.716 268.031 324.898C262.761 334.585 255.882 343.03 247.531 350.248V350.263Z" fill="#ECFF16"/>
</svg>
