<svg width="301" height="384" viewBox="0 0 301 384" fill="none" xmlns="http://www.w3.org/2000/svg">
<path d="M300.703 212.971C299.793 207.644 299.367 202.172 297.837 197.033C296.458 192.399 293.874 188.126 291.824 183.686C291.059 182.38 290.294 181.081 289.522 179.774C289.125 179.204 288.72 178.641 288.323 178.071L288.432 178.172C287.97 177.096 287.508 176.028 287.046 174.952C283.668 170.766 280.282 166.572 276.897 162.385C273.201 156.344 267.556 152.547 261.594 149.111C257.516 149.717 253.437 150.324 249.359 150.923C254.787 154.929 260.215 158.935 265.644 162.934C270.458 169.171 275.612 175.176 280.008 181.694C287.984 193.532 291.629 206.785 291.528 221.077C291.514 222.701 292.019 224.332 292.279 225.957C292.257 226.917 292.236 227.869 292.221 228.829C292.098 231.017 291.969 233.204 291.846 235.391C292.467 247.359 293.044 259.312 292.098 271.258C293.044 259.312 292.467 247.351 291.846 235.391C291.268 238.365 290.243 241.324 290.186 244.305C289.846 262.069 287.789 279.567 282.722 296.652C277.879 305.906 273.143 315.225 268.156 324.406C262.886 334.093 256.007 342.539 247.656 349.757C241.347 353.048 235.024 356.325 228.744 359.675C228.188 359.971 227.907 360.779 227.502 361.349C226.954 361.515 226.405 361.674 225.857 361.84C224.658 362.216 223.467 362.591 222.269 362.973C215.809 365.132 209.348 367.29 202.888 369.448C198.146 370.668 193.396 371.888 188.654 373.108C184.763 373.079 180.872 373.05 176.989 373.021L158.554 364.222L158.705 364.006L158.503 364.186C158.503 364.186 158.546 364.222 158.554 364.222L158.51 364.186L157.24 363.168C156.229 362.497 155.211 361.826 154.201 361.154C153.789 360.721 153.371 360.288 152.959 359.848L152.57 359.502C152.454 359.068 152.187 358.794 151.761 358.657C150.751 358.123 149.69 357.654 148.65 357.148C149.682 357.654 150.751 358.123 151.754 358.657C143.98 349.858 136.495 340.878 132.091 329.755C126.44 315.485 120.391 301.373 114.977 287.016C109.946 273.669 102.229 261.81 95.4082 249.438C92.4054 243.988 89.6769 238.386 86.8257 232.85C86.5298 231.731 86.2338 230.62 85.9379 229.501C86.075 229.183 85.9812 228.959 85.6564 228.837C82.603 230.547 82.7691 232.72 83.3898 234.972C82.7618 232.713 82.603 230.54 85.6564 228.837C85.1078 225.054 84.4004 221.294 84.0539 217.497C83.2238 208.503 85.0933 199.747 87.8218 191.345C90.7669 182.264 94.506 173.408 98.4399 164.702C100.071 161.086 103.06 158.076 105.521 154.85C106.95 152.98 108.538 151.233 110.054 149.436L110.422 149.371L110.552 149.017C111.635 148.303 112.718 147.588 113.793 146.873C123.855 141.366 133.795 135.627 144.002 130.416C161.195 121.631 179.176 119.668 197.698 125.666C205.205 128.099 212.532 131.109 219.938 133.859L221.785 134.913L221.901 134.978C222.045 134.985 222.197 134.985 222.356 134.978C222.204 134.978 222.053 134.978 221.901 134.978C230.996 140.233 240.091 145.487 249.179 150.75L249.395 150.901C253.474 150.295 257.552 149.688 261.63 149.089C260.028 147.703 258.591 146.029 256.787 144.975C244.364 137.735 232.021 130.336 219.338 123.566C208.944 118.015 197.575 114.384 186.005 112.897C171.337 111.013 156.901 113.243 143.417 120.108C134.069 124.865 124.534 129.254 115.085 133.801C108.704 134.328 102.54 133.238 96.9602 130.214C80.0622 121.054 63.6551 111.092 49.8105 97.5582C34.2335 82.3349 25.3767 64.0727 25.1168 41.9416C25.0158 33.3158 24.6477 24.6539 23.7021 16.0858C23.2762 12.2024 21.7315 8.13126 19.6526 4.79643C15.7981 -1.31021 10.702 -1.3824 5.34605 3.42496C0.271612 7.97246 -0.248102 13.8048 0.0767193 19.8754C0.8202 33.7705 1.48428 47.6729 2.74747 61.5247C3.49095 69.6236 5.56259 77.542 10.0957 84.5509C15.0402 96.8725 23.6732 106.523 32.8332 115.784C33.1363 116.087 33.6994 116.138 34.1397 116.304C41.0981 124.901 50.1786 130.993 58.9416 137.482C66.1671 142.824 73.2337 148.382 80.3726 153.839C83.8879 159.058 83.7002 165.215 84.7252 171.069C81.8884 180.222 79.0517 189.367 76.2077 198.52C75.3343 204.554 73.5658 210.632 73.8401 216.616C74.1288 223.019 74.6485 229.797 78.6474 235.441C79.6941 242.732 83.6353 248.68 87.5764 254.627C89.0056 257.082 90.4348 259.536 91.8641 261.99C92.3766 262.921 92.8891 263.86 93.4016 264.791C93.6758 265.347 93.9501 265.902 94.2172 266.458C94.8091 267.173 95.4082 267.887 96.0001 268.609L96.0795 269.165C96.5487 269.858 97.0107 270.558 97.4799 271.258C97.7975 272.067 98.1223 272.875 98.4399 273.684C98.7142 273.907 98.9091 274.182 99.039 274.499C99.0823 274.608 99.1184 274.716 99.1401 274.831C99.335 275.351 99.5371 275.864 99.732 276.383C100.425 277.495 101.125 278.606 101.818 279.725C101.739 280.122 101.847 280.469 102.136 280.758C102.504 281.451 102.872 282.143 103.247 282.836C103.471 283.573 103.695 284.302 103.919 285.038C104.388 285.276 105.001 285.421 105.427 285.688C105.009 285.413 104.395 285.276 103.919 285.038C105.795 290.177 107.492 295.389 109.578 300.449C115.121 313.904 120.463 327.452 126.569 340.647C132.25 352.918 140.313 363.493 152.223 370.596C164.559 381.936 178.938 385.646 195.078 381.394C204.519 378.904 213.881 375.966 223.041 372.588C232.122 369.246 241.874 367.102 249.273 360.144C252.716 357.285 256.152 354.42 259.595 351.561C259.984 351.172 260.374 350.775 260.771 350.385C261.284 349.757 261.803 349.136 262.316 348.508C263.254 347.23 264.193 345.953 265.131 344.668C265.651 344.026 266.163 343.376 266.683 342.726C275.258 333.833 280.607 322.963 285.616 311.883C289.962 305.531 292.322 298.413 293.701 290.921C295.08 284.908 297.13 278.96 297.714 272.868C299.151 257.933 300.024 242.941 300.898 227.963C301.186 222.99 300.782 217.98 300.695 212.985L300.703 212.971ZM224.167 134.97C224.016 134.97 223.872 134.963 223.713 134.97C223.864 134.97 224.016 134.97 224.167 134.97ZM101.724 154.46C103.399 152.843 104.85 150.764 107.015 149.869C104.842 150.764 103.392 152.836 101.724 154.46ZM167.598 371.996C168.089 372.22 168.572 372.437 169.071 372.632C168.58 372.437 168.089 372.227 167.598 371.996ZM170.853 373.216C170.622 373.151 170.391 373.086 170.168 373.014C170.399 373.086 170.622 373.151 170.853 373.216ZM201.3 371.657C200.557 371.982 199.669 372.004 198.81 372.047C199.661 372.004 200.557 371.975 201.3 371.657Z" fill="#11FFE2"/>
<path d="M98.4473 273.683C98.6782 274.065 98.9165 274.448 99.1474 274.83C99.1186 274.715 99.0897 274.607 99.0464 274.498C98.9165 274.181 98.7216 273.914 98.4473 273.683Z" fill="#11FFE2"/>
<path d="M153.046 359.451L152.555 359.523C152.555 359.523 152.944 359.87 152.944 359.877L153.046 359.451Z" fill="#11FFE2"/>
<path d="M247.531 349.536C241.222 352.828 234.899 356.105 228.619 359.454C228.063 359.75 227.782 360.559 227.378 361.129C226.829 361.295 226.28 361.454 225.732 361.62C224.541 361.995 223.343 362.37 222.144 362.753C215.684 364.911 209.224 367.069 202.763 369.228C198.021 370.448 193.271 371.667 188.529 372.887C184.638 372.858 180.748 372.83 176.864 372.801C170.714 369.863 164.572 366.932 158.429 364.002L158.58 363.785L158.378 363.966C157.952 363.626 157.527 363.287 157.108 362.955C156.097 362.284 155.08 361.612 154.069 360.941C153.658 360.508 153.239 360.075 152.835 359.642L152.936 359.216L152.445 359.288C152.329 358.855 152.062 358.581 151.636 358.444C143.855 349.645 136.377 340.665 131.967 329.542C126.315 315.271 120.266 301.16 114.852 286.802C109.821 273.456 102.105 261.596 95.2835 249.224C92.2807 243.774 89.5522 238.173 86.7082 232.644C86.4123 231.525 86.1163 230.406 85.8131 229.287C85.9503 228.97 85.8565 228.746 85.5316 228.623C84.983 224.841 84.2757 221.08 83.9292 217.283C83.0991 208.289 84.9686 199.534 87.6971 191.124C90.6422 182.044 94.3812 173.187 98.3152 164.482C99.9465 160.866 102.935 157.856 105.396 154.629C106.825 152.759 108.414 151.013 109.929 149.215L110.297 149.15L110.427 148.797C111.51 148.082 112.593 147.367 113.668 146.646C123.731 141.138 133.67 135.4 143.877 130.188C161.056 121.411 179.037 119.447 197.552 125.446C205.059 127.878 212.385 130.888 219.791 133.638C220.405 133.992 221.026 134.338 221.639 134.692L221.755 134.757C230.85 140.012 239.945 145.267 249.032 150.529L249.249 150.681C254.677 154.687 260.105 158.693 265.533 162.699C270.341 168.936 275.502 174.941 279.89 181.459C287.867 193.297 291.512 206.55 291.411 220.842C291.396 222.466 291.902 224.097 292.161 225.722C292.14 226.682 292.118 227.634 292.104 228.594C291.981 230.782 291.851 232.969 291.728 235.156C291.151 238.13 290.119 241.089 290.068 244.07C289.729 261.842 287.672 279.332 282.597 296.417C277.754 305.671 273.019 314.99 268.031 324.171C262.761 333.858 255.882 342.304 247.531 349.522V349.536Z" fill="#11FFE2"/>
</svg>
