<svg width="444" height="35" viewBox="0 0 444 35" fill="none" xmlns="http://www.w3.org/2000/svg">
<g filter="url(#filter0_f_289_5522)">
<path d="M424.195 24.0007C423.97 24.0007 423.921 23.9121 424.047 23.7349L429.525 15.4006C427.783 15.2107 426.379 14.6791 425.312 13.8058C424.258 12.9199 423.731 11.6162 423.731 9.89495C423.731 8.08505 424.434 6.72447 425.838 5.8132C427.257 4.90193 429.195 4.44629 431.653 4.44629H439.364C439.518 4.44629 439.595 4.52223 439.595 4.67411L439.553 13.7299L439.595 23.7729C439.595 23.9248 439.518 24.0007 439.364 24.0007H437.657C437.503 24.0007 437.425 23.9248 437.425 23.7729L437.489 15.5334H431.505L427.755 21.4947L426.238 23.8488C426.182 23.9501 426.091 24.0007 425.965 24.0007H424.195ZM431.4 14.1096H437.51L437.425 5.87015H431.358C429.658 5.87015 428.31 6.23087 427.313 6.95229C426.33 7.66106 425.838 8.64827 425.838 9.91393C425.838 11.3441 426.33 12.4009 427.313 13.0844C428.31 13.7679 429.673 14.1096 431.4 14.1096Z" fill="#11FFE2"/>
<path d="M413.137 24.3986C410.988 24.3986 409.184 23.9747 407.723 23.1267C406.276 22.266 405.181 21.0826 404.436 19.5765C403.692 18.0577 403.32 16.2921 403.32 14.2797C403.32 12.28 403.706 10.5144 404.479 8.98294C405.251 7.43884 406.347 6.23013 407.765 5.35683C409.198 4.48353 410.897 4.04688 412.863 4.04688C415.743 4.04688 418.004 4.90752 419.647 6.62882C421.291 8.35011 422.133 10.7738 422.175 13.9C422.175 14.0519 422.091 14.1278 421.923 14.1278H405.448C405.462 17.0768 406.129 19.2917 407.449 20.7725C408.769 22.2534 410.665 22.9938 413.137 22.9938C415.132 22.9938 416.691 22.4875 417.814 21.475C418.938 20.4498 419.668 19.0512 420.005 17.2793C420.019 17.1401 420.104 17.0705 420.258 17.0705H421.796C421.993 17.0705 422.077 17.1464 422.049 17.2983C421.796 18.7665 421.298 20.0321 420.553 21.0953C419.823 22.1458 418.84 22.9621 417.604 23.5443C416.368 24.1139 414.879 24.3986 413.137 24.3986ZM405.532 12.685H419.921C419.907 11.3434 419.633 10.1284 419.1 9.03989C418.58 7.93877 417.793 7.06547 416.74 6.41998C415.701 5.7745 414.408 5.45175 412.863 5.45175C410.687 5.45175 408.98 6.10357 407.744 7.4072C406.508 8.71082 405.771 10.4701 405.532 12.685Z" fill="#11FFE2"/>
<path d="M399.829 18.4949C399.829 17.4824 399.527 16.666 398.924 16.0459C398.334 15.4257 397.554 14.9764 396.585 14.6979C395.63 14.4195 394.598 14.2803 393.488 14.2803H390.581C390.412 14.2803 390.328 14.2043 390.328 14.0524V13.0842C390.328 12.9323 390.412 12.8564 390.581 12.8564H393.488C395.244 12.8564 396.627 12.5716 397.638 12.0021C398.664 11.4325 399.176 10.5086 399.176 9.23029C399.176 8.02791 398.657 7.09766 397.617 6.43951C396.592 5.78137 395.202 5.4523 393.446 5.4523C392.308 5.4523 391.262 5.61051 390.307 5.92692C389.352 6.24334 388.579 6.73694 387.989 7.40774C387.414 8.06588 387.098 8.92653 387.041 9.98968C387.041 10.1289 386.957 10.1985 386.789 10.1985H385.314C385.145 10.1985 385.068 10.1226 385.082 9.9707C385.138 8.60379 385.546 7.48368 386.304 6.61038C387.062 5.73707 388.067 5.09792 389.317 4.69291C390.567 4.27524 391.957 4.06641 393.488 4.06641C395.862 4.06641 397.751 4.4904 399.155 5.33839C400.56 6.18638 401.262 7.44571 401.262 9.11638C401.262 10.3061 400.862 11.2617 400.061 11.9831C399.261 12.7045 398.165 13.1981 396.775 13.4639V13.5019C398.572 13.8689 399.879 14.4764 400.693 15.3244C401.522 16.1598 401.936 17.2546 401.936 18.6088C401.936 19.5581 401.711 20.3934 401.262 21.1148C400.813 21.8362 400.195 22.4374 399.408 22.9184C398.622 23.3993 397.716 23.76 396.69 24.0005C395.665 24.2536 394.57 24.3802 393.404 24.3802C390.623 24.3802 388.453 23.798 386.894 22.6336C385.349 21.4692 384.548 19.6783 384.492 17.2609C384.492 17.109 384.576 17.0331 384.745 17.0331H386.262C386.416 17.0331 386.494 17.109 386.494 17.2609C386.55 19.1973 387.161 20.6339 388.326 21.5704C389.492 22.4944 391.192 22.9563 393.425 22.9563C395.279 22.9563 396.81 22.5766 398.018 21.8173C399.225 21.0452 399.829 19.9378 399.829 18.4949Z" fill="#11FFE2"/>
<path d="M375.15 23.9627L366.66 4.69309C366.589 4.52856 366.653 4.44629 366.849 4.44629H368.703C368.844 4.44629 368.935 4.50324 368.977 4.61715L376.161 21.3618L382.355 4.63614C382.397 4.50957 382.488 4.44629 382.629 4.44629H384.356C384.567 4.44629 384.637 4.52856 384.567 4.69309L374.623 30.2847C374.581 30.3986 374.49 30.4556 374.349 30.4556H372.875C372.664 30.4556 372.594 30.3733 372.664 30.2087L375.15 23.9627Z" fill="#11FFE2"/>
<path d="M344.524 24.0007C344.37 24.0007 344.292 23.9248 344.292 23.7729L344.335 14.5652L344.314 4.67411C344.314 4.52223 344.398 4.44629 344.566 4.44629H346.694C346.849 4.44629 346.947 4.50324 346.989 4.61715L354.784 21.6845L362.579 4.61715C362.621 4.50324 362.72 4.44629 362.874 4.44629H365.002C365.171 4.44629 365.255 4.52223 365.255 4.67411L365.213 14.5652L365.255 23.7729C365.255 23.9248 365.171 24.0007 365.002 24.0007H363.485C363.317 24.0007 363.232 23.9248 363.232 23.7729L363.274 14.6791L363.296 6.78143L355.543 23.8298C355.486 23.9437 355.388 24.0007 355.248 24.0007H354.11C353.956 24.0007 353.857 23.9437 353.815 23.8298L346.02 6.8194L346.041 14.6791L346.125 23.7729C346.125 23.9248 346.041 24.0007 345.873 24.0007H344.524Z" fill="#11FFE2"/>
<path d="M319.597 24.0007C319.372 24.0007 319.323 23.9121 319.449 23.7349L324.927 15.4006C323.185 15.2107 321.781 14.6791 320.713 13.8058C319.66 12.9199 319.133 11.6162 319.133 9.89495C319.133 8.08505 319.836 6.72447 321.24 5.8132C322.659 4.90193 324.597 4.44629 327.055 4.44629H334.766C334.92 4.44629 334.997 4.52223 334.997 4.67411L334.955 13.7299L334.997 23.7729C334.997 23.9248 334.92 24.0007 334.766 24.0007H333.059C332.905 24.0007 332.827 23.9248 332.827 23.7729L332.89 15.5334H326.907L323.157 21.4947L321.64 23.8488C321.584 23.9501 321.493 24.0007 321.366 24.0007H319.597ZM326.802 14.1096H332.912L332.827 5.87015H326.76C325.06 5.87015 323.712 6.23087 322.715 6.95229C321.732 7.66106 321.24 8.64827 321.24 9.91393C321.24 11.3441 321.732 12.4009 322.715 13.0844C323.712 13.7679 325.074 14.1096 326.802 14.1096Z" fill="#11FFE2"/>
<path d="M300.476 24.0007C300.307 24.0007 300.223 23.9248 300.223 23.7729L300.265 13.616L300.223 4.67411C300.223 4.52223 300.3 4.44629 300.455 4.44629H302.119C302.274 4.44629 302.351 4.52223 302.351 4.67411L302.309 13.635L302.288 21.9124L314.36 4.59817C314.416 4.49692 314.514 4.44629 314.655 4.44629H316.74C316.909 4.44629 316.993 4.52223 316.993 4.67411L316.93 13.6539L316.993 23.7729C316.993 23.9248 316.909 24.0007 316.74 24.0007H315.097C314.942 24.0007 314.865 23.9248 314.865 23.7729L314.907 13.6919L314.928 6.62955L302.941 23.8488C302.885 23.9501 302.786 24.0007 302.646 24.0007H300.476Z" fill="#11FFE2"/>
<path d="M294.986 4.67411C294.986 4.52223 295.063 4.44629 295.217 4.44629H296.882C297.05 4.44629 297.134 4.52223 297.134 4.67411L297.071 13.6539L297.134 23.7729C297.134 23.9248 297.05 24.0007 296.882 24.0007H295.217C295.063 24.0007 294.986 23.9248 294.986 23.7729L295.028 14.3184H282.64L282.703 23.7729C282.703 23.9248 282.619 24.0007 282.45 24.0007H280.786C280.631 24.0007 280.554 23.9248 280.554 23.7729L280.596 13.6539L280.554 4.67411C280.554 4.52223 280.631 4.44629 280.786 4.44629H282.45C282.619 4.44629 282.703 4.52223 282.703 4.67411L282.64 12.8376H295.028L294.986 4.67411Z" fill="#11FFE2"/>
<path d="M269.202 24.3986C267.053 24.3986 265.249 23.9747 263.788 23.1267C262.341 22.266 261.246 21.0826 260.501 19.5765C259.757 18.0577 259.385 16.2921 259.385 14.2797C259.385 12.28 259.771 10.5144 260.543 8.98294C261.316 7.43884 262.411 6.23013 263.83 5.35683C265.263 4.48353 266.962 4.04688 268.928 4.04688C271.808 4.04688 274.069 4.90752 275.712 6.62882C277.355 8.35011 278.198 10.7738 278.24 13.9C278.24 14.0519 278.156 14.1278 277.988 14.1278H261.513C261.527 17.0768 262.194 19.2917 263.514 20.7725C264.834 22.2534 266.73 22.9938 269.202 22.9938C271.197 22.9938 272.756 22.4875 273.879 21.475C275.003 20.4498 275.733 19.0512 276.07 17.2793C276.084 17.1401 276.169 17.0705 276.323 17.0705H277.861C278.058 17.0705 278.142 17.1464 278.114 17.2983C277.861 18.7665 277.363 20.0321 276.618 21.0953C275.888 22.1458 274.905 22.9621 273.669 23.5443C272.433 24.1139 270.944 24.3986 269.202 24.3986ZM261.597 12.685H275.986C275.972 11.3434 275.698 10.1284 275.164 9.03989C274.645 7.93877 273.858 7.06547 272.805 6.41998C271.766 5.7745 270.473 5.45175 268.928 5.45175C266.751 5.45175 265.045 6.10357 263.809 7.4072C262.573 8.71082 261.836 10.4701 261.597 12.685Z" fill="#11FFE2"/>
<path d="M256.867 22.5199H259.058C259.226 22.5199 259.311 22.5958 259.311 22.7477V28.3672C259.311 28.5191 259.226 28.595 259.058 28.595H257.689C257.52 28.595 257.436 28.5191 257.436 28.3672L257.351 24.0007H230.174C230.02 24.0007 229.942 23.9248 229.942 23.7729L229.985 14.793L229.942 4.67411C229.942 4.52223 230.02 4.44629 230.174 4.44629H231.838C232.007 4.44629 232.091 4.52223 232.091 4.67411L232.028 14.793L232.091 22.5199H242.33L242.372 14.793L242.33 4.67411C242.33 4.52223 242.414 4.44629 242.583 4.44629H244.226C244.395 4.44629 244.479 4.52223 244.479 4.67411L244.416 14.793L244.479 22.5199H254.718L254.76 14.793L254.718 4.67411C254.718 4.52223 254.802 4.44629 254.971 4.44629H256.614C256.783 4.44629 256.867 4.52223 256.867 4.67411L256.825 14.793L256.867 22.5199Z" fill="#11FFE2"/>
<path d="M218.59 24.3986C216.442 24.3986 214.637 23.9747 213.176 23.1267C211.729 22.266 210.634 21.0826 209.89 19.5765C209.145 18.0577 208.773 16.2921 208.773 14.2797C208.773 12.28 209.159 10.5144 209.932 8.98294C210.704 7.43884 211.8 6.23013 213.218 5.35683C214.651 4.48353 216.35 4.04688 218.317 4.04688C221.196 4.04688 223.457 4.90752 225.1 6.62882C226.744 8.35011 227.586 10.7738 227.629 13.9C227.629 14.0519 227.544 14.1278 227.376 14.1278H210.901C210.915 17.0768 211.582 19.2917 212.902 20.7725C214.222 22.2534 216.119 22.9938 218.59 22.9938C220.585 22.9938 222.144 22.4875 223.268 21.475C224.391 20.4498 225.121 19.0512 225.459 17.2793C225.473 17.1401 225.557 17.0705 225.711 17.0705H227.249C227.446 17.0705 227.53 17.1464 227.502 17.2983C227.249 18.7665 226.751 20.0321 226.006 21.0953C225.276 22.1458 224.293 22.9621 223.057 23.5443C221.821 24.1139 220.332 24.3986 218.59 24.3986ZM210.985 12.685H225.374C225.36 11.3434 225.086 10.1284 224.553 9.03989C224.033 7.93877 223.246 7.06547 222.193 6.41998C221.154 5.7745 219.862 5.45175 218.317 5.45175C216.14 5.45175 214.433 6.10357 213.197 7.4072C211.961 8.71082 211.224 10.4701 210.985 12.685Z" fill="#11FFE2"/>
<path d="M198.339 24.3986C196.26 24.3986 194.512 23.981 193.093 23.1456C191.689 22.2977 190.621 21.1206 189.891 19.6145C189.175 18.0957 188.816 16.3174 188.816 14.2797C188.816 12.242 189.175 10.4574 189.891 8.92598C190.621 7.39454 191.696 6.19849 193.114 5.33784C194.547 4.4772 196.302 4.04688 198.381 4.04688C201.008 4.04688 203.065 4.67338 204.554 5.92638C206.057 7.16672 206.914 8.80575 207.124 10.8435C207.152 10.9953 207.075 11.0713 206.892 11.0713H205.439C205.284 11.0713 205.193 11.0017 205.165 10.8624C204.898 9.14114 204.182 7.81221 203.016 6.87562C201.85 5.93903 200.305 5.47074 198.381 5.47074C195.867 5.47074 193.999 6.27443 192.777 7.88182C191.569 9.47654 190.965 11.6092 190.965 14.2797C190.965 16.9503 191.569 19.0702 192.777 20.6396C193.985 22.1964 195.839 22.9811 198.339 22.9938C200.46 22.9938 202.124 22.4622 203.332 21.399C204.554 20.3232 205.249 18.8614 205.418 17.0135C205.446 16.8743 205.537 16.8047 205.692 16.8047H207.166C207.335 16.8047 207.412 16.868 207.398 16.9945C207.272 18.4247 206.843 19.6967 206.113 20.8105C205.383 21.9243 204.364 22.8039 203.058 23.4494C201.766 24.0822 200.193 24.3986 198.339 24.3986Z" fill="#11FFE2"/>
<path d="M177.482 24.3986C175.389 24.3986 173.619 23.9747 172.173 23.1267C170.74 22.2787 169.652 21.0953 168.907 19.5765C168.163 18.0577 167.791 16.2795 167.791 14.2417C167.791 12.2167 168.163 10.4384 168.907 8.907C169.652 7.37555 170.74 6.18583 172.173 5.33784C173.619 4.4772 175.389 4.04688 177.482 4.04688C179.56 4.04688 181.323 4.4772 182.77 5.33784C184.216 6.18583 185.312 7.37555 186.056 8.907C186.801 10.4258 187.173 12.1977 187.173 14.2228C187.173 16.2605 186.801 18.045 186.056 19.5765C185.312 21.0953 184.216 22.2787 182.77 23.1267C181.323 23.9747 179.56 24.3986 177.482 24.3986ZM177.482 22.9938C180.01 22.9938 181.899 22.2027 183.149 20.6207C184.399 19.0259 185.024 16.8996 185.024 14.2417C185.024 11.5965 184.392 9.47022 183.128 7.86283C181.878 6.25545 179.996 5.45175 177.482 5.45175C174.968 5.46441 173.079 6.2681 171.814 7.86283C170.55 9.4449 169.918 11.5775 169.918 14.2607C169.918 16.9186 170.55 19.0386 171.814 20.6207C173.093 22.2027 174.982 22.9938 177.482 22.9938Z" fill="#11FFE2"/>
<path d="M165.243 4.44629C165.397 4.44629 165.475 4.52223 165.475 4.67411L165.433 13.6539L165.475 23.7729C165.475 23.9248 165.397 24.0007 165.243 24.0007H163.579C163.41 24.0007 163.326 23.9248 163.326 23.7729L163.389 13.6539L163.347 5.92711H151.359L151.296 13.6539L151.359 23.7729C151.359 23.9248 151.275 24.0007 151.107 24.0007H149.442C149.288 24.0007 149.21 23.9248 149.21 23.7729L149.253 13.6539L149.21 4.67411C149.21 4.52223 149.288 4.44629 149.442 4.44629H165.243Z" fill="#11FFE2"/>
<path d="M137.816 4.67392C137.816 4.52204 137.894 4.4461 138.048 4.4461H139.67C139.839 4.4461 139.923 4.52204 139.923 4.67392L139.818 13.8626L139.923 23.7727C139.923 23.9246 139.839 24.0005 139.67 24.0005H138.048C137.894 24.0005 137.816 23.9246 137.816 23.7727L137.901 19.9378C137.24 21.292 136.299 22.3678 135.077 23.1652C133.856 23.9499 132.36 24.3422 130.59 24.3422C128.708 24.3422 127.121 23.8993 125.829 23.0133C124.537 22.1147 123.56 20.8997 122.9 19.3682C122.24 17.8368 121.91 16.1281 121.91 14.2423C121.91 12.3691 122.247 10.6668 122.921 9.13537C123.596 7.59126 124.579 6.36357 125.871 5.4523C127.163 4.52837 128.743 4.06641 130.611 4.06641C134.08 4.06641 136.51 5.51558 137.901 8.41394L137.816 4.67392ZM131.011 22.9374C133.104 22.9374 134.783 22.2286 136.047 20.8111C137.325 19.3809 137.971 17.2482 137.985 14.4132C138.013 11.6034 137.416 9.41381 136.194 7.8444C134.972 6.27498 133.259 5.48394 131.054 5.47129C129.438 5.47129 128.111 5.85731 127.072 6.62936C126.032 7.38876 125.26 8.42027 124.754 9.7239C124.263 11.0149 124.017 12.4514 124.017 14.0335C124.017 15.6662 124.263 17.1596 124.754 18.5139C125.246 19.8681 126.004 20.9439 127.03 21.7413C128.069 22.5387 129.396 22.9374 131.011 22.9374Z" fill="#11FFE2"/>
<path d="M102.529 24.1905C102.346 24.1905 102.171 24.1779 102.002 24.1526C101.834 24.1399 101.672 24.1146 101.518 24.0766C101.377 24.064 101.307 23.988 101.307 23.8488V22.8806C101.307 22.7161 101.398 22.6464 101.581 22.6718C101.707 22.6971 101.834 22.7161 101.96 22.7287C102.087 22.7414 102.206 22.7477 102.318 22.7477C103.189 22.7477 103.793 22.4629 104.13 21.8934C104.481 21.3112 104.727 20.2417 104.868 18.6849C104.938 18.0015 105.008 17.1092 105.078 16.0081C105.148 14.8943 105.212 13.6856 105.268 12.382C105.338 11.0657 105.401 9.74307 105.457 8.41413C105.528 7.07253 105.584 5.81953 105.626 4.65512C105.626 4.5159 105.703 4.44629 105.858 4.44629H119.257C119.425 4.44629 119.51 4.5159 119.51 4.65512L119.531 13.6919L119.657 23.7729C119.657 23.9248 119.573 24.0007 119.404 24.0007H117.761C117.592 24.0007 117.508 23.9311 117.508 23.7919L117.487 13.6919L117.382 5.88914H107.459C107.417 6.71182 107.368 7.6927 107.311 8.83179C107.269 9.95823 107.213 11.1353 107.143 12.363C107.087 13.578 107.023 14.7234 106.953 15.7992C106.897 16.875 106.841 17.78 106.785 18.5141C106.672 19.805 106.49 20.8682 106.237 21.7035C105.984 22.5389 105.57 23.1654 104.994 23.583C104.418 23.988 103.596 24.1905 102.529 24.1905Z" fill="#11FFE2"/>
<path d="M82.9686 24.0007C82.8001 24.0007 82.7158 23.9248 82.7158 23.7729L82.758 13.616L82.7158 4.67411C82.7158 4.52223 82.7931 4.44629 82.9476 4.44629H84.6119C84.7664 4.44629 84.8437 4.52223 84.8437 4.67411L84.8015 13.635L84.7805 21.9124L96.8522 4.59817C96.9084 4.49692 97.0067 4.44629 97.1472 4.44629H99.2329C99.4014 4.44629 99.4857 4.52223 99.4857 4.67411L99.4225 13.6539L99.4857 23.7729C99.4857 23.9248 99.4014 24.0007 99.2329 24.0007H97.5896C97.4351 24.0007 97.3579 23.9248 97.3579 23.7729L97.4 13.6919L97.4211 6.62955L85.4336 23.8488C85.3774 23.9501 85.2791 24.0007 85.1386 24.0007H82.9686Z" fill="#11FFE2"/>
<path d="M75.4921 13.4641V13.5021C77.3601 13.8691 78.6874 14.4703 79.4739 15.3056C80.2604 16.1283 80.6537 17.1851 80.6537 18.4761C80.6537 19.476 80.429 20.3303 79.9795 21.0391C79.5441 21.7478 78.9402 22.3237 78.1677 22.7667C77.3952 23.197 76.5034 23.5134 75.4921 23.7159C74.4809 23.9058 73.4064 24.0007 72.2688 24.0007H64.3895C64.235 24.0007 64.1577 23.9248 64.1577 23.7729L64.1998 13.6539L64.1788 4.67411C64.1788 4.52223 64.2631 4.44629 64.4316 4.44629H72.2898C74.7056 4.44629 76.5947 4.8513 77.957 5.66132C79.3194 6.47134 80.0006 7.66739 80.0006 9.24946C80.0006 10.4518 79.6003 11.3884 78.7997 12.0592C77.9992 12.73 76.8966 13.1983 75.4921 13.4641ZM72.2266 5.87015H66.2855L66.2434 12.8566H72.2477C73.9893 12.8566 75.3657 12.5971 76.377 12.0782C77.3882 11.5593 77.8938 10.6543 77.8938 9.36337C77.8938 8.21162 77.3812 7.34465 76.3559 6.76244C75.3306 6.16758 73.9542 5.87015 72.2266 5.87015ZM66.2434 22.5768H72.2266C74.1227 22.5768 75.6466 22.2478 76.7983 21.5896C77.9641 20.9188 78.5469 19.8304 78.5469 18.3242C78.5469 17.375 78.252 16.6029 77.6621 16.0081C77.0722 15.4006 76.2997 14.9576 75.3446 14.6791C74.3896 14.4007 73.3643 14.2615 72.2688 14.2615H66.2434V22.5768Z" fill="#11FFE2"/>
<path d="M58.9354 4.67392C58.9354 4.52204 59.0126 4.4461 59.1671 4.4461H60.7893C60.9579 4.4461 61.0422 4.52204 61.0422 4.67392L60.9368 13.8626L61.0422 23.7727C61.0422 23.9246 60.9579 24.0005 60.7893 24.0005H59.1671C59.0126 24.0005 58.9354 23.9246 58.9354 23.7727L59.0197 19.9378C58.3595 21.292 57.4185 22.3678 56.1966 23.1652C54.9747 23.9499 53.4789 24.3422 51.7092 24.3422C49.8271 24.3422 48.24 23.8993 46.9479 23.0133C45.6557 22.1147 44.6796 20.8997 44.0195 19.3682C43.3594 17.8368 43.0293 16.1281 43.0293 14.2423C43.0293 12.3691 43.3664 10.6668 44.0405 9.13537C44.7147 7.59126 45.6979 6.36357 46.99 5.4523C48.2822 4.52837 49.8622 4.06641 51.7302 4.06641C55.1994 4.06641 57.6292 5.51558 59.0197 8.41394L58.9354 4.67392ZM52.1305 22.9374C54.2233 22.9374 55.9016 22.2286 57.1657 20.8111C58.4438 19.3809 59.0899 17.2482 59.1039 14.4132C59.132 11.6034 58.5351 9.41381 57.3132 7.8444C56.0913 6.27498 54.3778 5.48394 52.1727 5.47129C50.5575 5.47129 49.2302 5.85731 48.1909 6.62936C47.1515 7.38876 46.3791 8.42027 45.8734 9.7239C45.3819 11.0149 45.1361 12.4514 45.1361 14.0335C45.1361 15.6662 45.3819 17.1596 45.8734 18.5139C46.365 19.8681 47.1235 20.9439 48.1487 21.7413C49.1881 22.5387 50.5153 22.9374 52.1305 22.9374Z" fill="#11FFE2"/>
<path d="M32.6923 4.02832C34.5743 4.02832 36.1614 4.47763 37.4536 5.37625C38.7457 6.27486 39.7219 7.48989 40.382 9.02134C41.0421 10.5528 41.3722 12.2678 41.3722 14.1662C41.3722 16.0394 41.0351 17.748 40.3609 19.2921C39.6868 20.8363 38.7036 22.0703 37.4114 22.9942C36.1193 23.9181 34.5392 24.3801 32.6712 24.3801C29.2442 24.3801 26.8425 22.9626 25.4661 20.1275L25.5293 30.2274C25.5293 30.3793 25.445 30.4552 25.2765 30.4552H23.6121C23.4576 30.4552 23.3804 30.3793 23.3804 30.2274L23.4646 14.9636L23.3804 4.67381C23.3804 4.52193 23.4576 4.44599 23.6121 4.44599H25.2343C25.4029 4.44599 25.4871 4.52193 25.4871 4.67381L25.3818 8.50875C26.056 7.12918 27.011 6.04072 28.247 5.24335C29.497 4.43333 30.9788 4.02832 32.6923 4.02832ZM32.2288 22.9562C33.858 22.9562 35.1853 22.5702 36.2106 21.7982C37.2499 21.0261 38.0154 19.9946 38.507 18.7036C39.0126 17.4 39.2654 15.9571 39.2654 14.3751C39.2654 12.7297 39.0196 11.2362 38.528 9.89464C38.0364 8.54039 37.278 7.46458 36.2527 6.66722C35.2274 5.8572 33.9002 5.45218 32.2709 5.45218C30.1923 5.45218 28.5139 6.17361 27.2358 7.61646C25.9717 9.04665 25.3256 11.173 25.2975 13.9954C25.2835 16.8178 25.8804 19.02 27.0883 20.6021C28.3102 22.1715 30.0237 22.9562 32.2288 22.9562Z" fill="#11FFE2"/>
<path d="M20.0325 4.44629C20.187 4.44629 20.2642 4.52223 20.2642 4.67411L20.2221 13.6539L20.2642 23.7729C20.2642 23.9248 20.187 24.0007 20.0325 24.0007H18.3682C18.1996 24.0007 18.1153 23.9248 18.1153 23.7729L18.1785 13.6539L18.1364 5.92711H6.1489L6.0857 13.6539L6.1489 23.7729C6.1489 23.9248 6.06463 24.0007 5.89609 24.0007H4.23174C4.07725 24.0007 4 23.9248 4 23.7729L4.04214 13.6539L4 4.67411C4 4.52223 4.07725 4.44629 4.23174 4.44629H20.0325Z" fill="#11FFE2"/>
</g>
<path d="M424.195 24.0007C423.97 24.0007 423.921 23.9121 424.047 23.7349L429.525 15.4006C427.783 15.2107 426.379 14.6791 425.312 13.8058C424.258 12.9199 423.731 11.6162 423.731 9.89495C423.731 8.08505 424.434 6.72447 425.838 5.8132C427.257 4.90193 429.195 4.44629 431.653 4.44629H439.364C439.518 4.44629 439.595 4.52223 439.595 4.67411L439.553 13.7299L439.595 23.7729C439.595 23.9248 439.518 24.0007 439.364 24.0007H437.657C437.503 24.0007 437.425 23.9248 437.425 23.7729L437.489 15.5334H431.505L427.755 21.4947L426.238 23.8488C426.182 23.9501 426.091 24.0007 425.965 24.0007H424.195ZM431.4 14.1096H437.51L437.425 5.87015H431.358C429.658 5.87015 428.31 6.23087 427.313 6.95229C426.33 7.66106 425.838 8.64827 425.838 9.91393C425.838 11.3441 426.33 12.4009 427.313 13.0844C428.31 13.7679 429.673 14.1096 431.4 14.1096Z" fill="#0951FF"/>
<path d="M413.137 24.3986C410.988 24.3986 409.184 23.9747 407.723 23.1267C406.276 22.266 405.181 21.0826 404.436 19.5765C403.692 18.0577 403.32 16.2921 403.32 14.2797C403.32 12.28 403.706 10.5144 404.479 8.98294C405.251 7.43884 406.347 6.23013 407.765 5.35683C409.198 4.48353 410.897 4.04688 412.863 4.04688C415.743 4.04688 418.004 4.90752 419.647 6.62882C421.291 8.35011 422.133 10.7738 422.175 13.9C422.175 14.0519 422.091 14.1278 421.923 14.1278H405.448C405.462 17.0768 406.129 19.2917 407.449 20.7725C408.769 22.2534 410.665 22.9938 413.137 22.9938C415.132 22.9938 416.691 22.4875 417.814 21.475C418.938 20.4498 419.668 19.0512 420.005 17.2793C420.019 17.1401 420.104 17.0705 420.258 17.0705H421.796C421.993 17.0705 422.077 17.1464 422.049 17.2983C421.796 18.7665 421.298 20.0321 420.553 21.0953C419.823 22.1458 418.84 22.9621 417.604 23.5443C416.368 24.1139 414.879 24.3986 413.137 24.3986ZM405.532 12.685H419.921C419.907 11.3434 419.633 10.1284 419.1 9.03989C418.58 7.93877 417.793 7.06547 416.74 6.41998C415.701 5.7745 414.408 5.45175 412.863 5.45175C410.687 5.45175 408.98 6.10357 407.744 7.4072C406.508 8.71082 405.771 10.4701 405.532 12.685Z" fill="#0951FF"/>
<path d="M399.829 18.4949C399.829 17.4824 399.527 16.666 398.924 16.0459C398.334 15.4257 397.554 14.9764 396.585 14.6979C395.63 14.4195 394.598 14.2803 393.488 14.2803H390.581C390.412 14.2803 390.328 14.2043 390.328 14.0524V13.0842C390.328 12.9323 390.412 12.8564 390.581 12.8564H393.488C395.244 12.8564 396.627 12.5716 397.638 12.0021C398.664 11.4325 399.176 10.5086 399.176 9.23029C399.176 8.02791 398.657 7.09766 397.617 6.43951C396.592 5.78137 395.202 5.4523 393.446 5.4523C392.308 5.4523 391.262 5.61051 390.307 5.92692C389.352 6.24334 388.579 6.73694 387.989 7.40774C387.414 8.06588 387.098 8.92653 387.041 9.98968C387.041 10.1289 386.957 10.1985 386.789 10.1985H385.314C385.145 10.1985 385.068 10.1226 385.082 9.9707C385.138 8.60379 385.546 7.48368 386.304 6.61038C387.062 5.73707 388.067 5.09792 389.317 4.69291C390.567 4.27524 391.957 4.06641 393.488 4.06641C395.862 4.06641 397.751 4.4904 399.155 5.33839C400.56 6.18638 401.262 7.44571 401.262 9.11638C401.262 10.3061 400.862 11.2617 400.061 11.9831C399.261 12.7045 398.165 13.1981 396.775 13.4639V13.5019C398.572 13.8689 399.879 14.4764 400.693 15.3244C401.522 16.1598 401.936 17.2546 401.936 18.6088C401.936 19.5581 401.711 20.3934 401.262 21.1148C400.813 21.8362 400.195 22.4374 399.408 22.9184C398.622 23.3993 397.716 23.76 396.69 24.0005C395.665 24.2536 394.57 24.3802 393.404 24.3802C390.623 24.3802 388.453 23.798 386.894 22.6336C385.349 21.4692 384.548 19.6783 384.492 17.2609C384.492 17.109 384.576 17.0331 384.745 17.0331H386.262C386.416 17.0331 386.494 17.109 386.494 17.2609C386.55 19.1973 387.161 20.6339 388.326 21.5704C389.492 22.4944 391.192 22.9563 393.425 22.9563C395.279 22.9563 396.81 22.5766 398.018 21.8173C399.225 21.0452 399.829 19.9378 399.829 18.4949Z" fill="#0951FF"/>
<path d="M375.15 23.9627L366.66 4.69309C366.589 4.52856 366.653 4.44629 366.849 4.44629H368.703C368.844 4.44629 368.935 4.50324 368.977 4.61715L376.161 21.3618L382.355 4.63614C382.397 4.50957 382.488 4.44629 382.629 4.44629H384.356C384.567 4.44629 384.637 4.52856 384.567 4.69309L374.623 30.2847C374.581 30.3986 374.49 30.4556 374.349 30.4556H372.875C372.664 30.4556 372.594 30.3733 372.664 30.2087L375.15 23.9627Z" fill="#0951FF"/>
<path d="M344.524 24.0007C344.37 24.0007 344.292 23.9248 344.292 23.7729L344.335 14.5652L344.314 4.67411C344.314 4.52223 344.398 4.44629 344.566 4.44629H346.694C346.849 4.44629 346.947 4.50324 346.989 4.61715L354.784 21.6845L362.579 4.61715C362.621 4.50324 362.72 4.44629 362.874 4.44629H365.002C365.171 4.44629 365.255 4.52223 365.255 4.67411L365.213 14.5652L365.255 23.7729C365.255 23.9248 365.171 24.0007 365.002 24.0007H363.485C363.317 24.0007 363.232 23.9248 363.232 23.7729L363.274 14.6791L363.296 6.78143L355.543 23.8298C355.486 23.9437 355.388 24.0007 355.248 24.0007H354.11C353.956 24.0007 353.857 23.9437 353.815 23.8298L346.02 6.8194L346.041 14.6791L346.125 23.7729C346.125 23.9248 346.041 24.0007 345.873 24.0007H344.524Z" fill="#0951FF"/>
<path d="M319.597 24.0007C319.372 24.0007 319.323 23.9121 319.449 23.7349L324.927 15.4006C323.185 15.2107 321.781 14.6791 320.713 13.8058C319.66 12.9199 319.133 11.6162 319.133 9.89495C319.133 8.08505 319.836 6.72447 321.24 5.8132C322.659 4.90193 324.597 4.44629 327.055 4.44629H334.766C334.92 4.44629 334.997 4.52223 334.997 4.67411L334.955 13.7299L334.997 23.7729C334.997 23.9248 334.92 24.0007 334.766 24.0007H333.059C332.905 24.0007 332.827 23.9248 332.827 23.7729L332.89 15.5334H326.907L323.157 21.4947L321.64 23.8488C321.584 23.9501 321.493 24.0007 321.366 24.0007H319.597ZM326.802 14.1096H332.912L332.827 5.87015H326.76C325.06 5.87015 323.712 6.23087 322.715 6.95229C321.732 7.66106 321.24 8.64827 321.24 9.91393C321.24 11.3441 321.732 12.4009 322.715 13.0844C323.712 13.7679 325.074 14.1096 326.802 14.1096Z" fill="#0951FF"/>
<path d="M300.476 24.0007C300.307 24.0007 300.223 23.9248 300.223 23.7729L300.265 13.616L300.223 4.67411C300.223 4.52223 300.3 4.44629 300.455 4.44629H302.119C302.274 4.44629 302.351 4.52223 302.351 4.67411L302.309 13.635L302.288 21.9124L314.36 4.59817C314.416 4.49692 314.514 4.44629 314.655 4.44629H316.74C316.909 4.44629 316.993 4.52223 316.993 4.67411L316.93 13.6539L316.993 23.7729C316.993 23.9248 316.909 24.0007 316.74 24.0007H315.097C314.942 24.0007 314.865 23.9248 314.865 23.7729L314.907 13.6919L314.928 6.62955L302.941 23.8488C302.885 23.9501 302.786 24.0007 302.646 24.0007H300.476Z" fill="#0951FF"/>
<path d="M294.986 4.67411C294.986 4.52223 295.063 4.44629 295.217 4.44629H296.882C297.05 4.44629 297.134 4.52223 297.134 4.67411L297.071 13.6539L297.134 23.7729C297.134 23.9248 297.05 24.0007 296.882 24.0007H295.217C295.063 24.0007 294.986 23.9248 294.986 23.7729L295.028 14.3184H282.64L282.703 23.7729C282.703 23.9248 282.619 24.0007 282.45 24.0007H280.786C280.631 24.0007 280.554 23.9248 280.554 23.7729L280.596 13.6539L280.554 4.67411C280.554 4.52223 280.631 4.44629 280.786 4.44629H282.45C282.619 4.44629 282.703 4.52223 282.703 4.67411L282.64 12.8376H295.028L294.986 4.67411Z" fill="#0951FF"/>
<path d="M269.202 24.3986C267.053 24.3986 265.249 23.9747 263.788 23.1267C262.341 22.266 261.246 21.0826 260.501 19.5765C259.757 18.0577 259.385 16.2921 259.385 14.2797C259.385 12.28 259.771 10.5144 260.543 8.98294C261.316 7.43884 262.411 6.23013 263.83 5.35683C265.263 4.48353 266.962 4.04688 268.928 4.04688C271.808 4.04688 274.069 4.90752 275.712 6.62882C277.355 8.35011 278.198 10.7738 278.24 13.9C278.24 14.0519 278.156 14.1278 277.988 14.1278H261.513C261.527 17.0768 262.194 19.2917 263.514 20.7725C264.834 22.2534 266.73 22.9938 269.202 22.9938C271.197 22.9938 272.756 22.4875 273.879 21.475C275.003 20.4498 275.733 19.0512 276.07 17.2793C276.084 17.1401 276.169 17.0705 276.323 17.0705H277.861C278.058 17.0705 278.142 17.1464 278.114 17.2983C277.861 18.7665 277.363 20.0321 276.618 21.0953C275.888 22.1458 274.905 22.9621 273.669 23.5443C272.433 24.1139 270.944 24.3986 269.202 24.3986ZM261.597 12.685H275.986C275.972 11.3434 275.698 10.1284 275.164 9.03989C274.645 7.93877 273.858 7.06547 272.805 6.41998C271.766 5.7745 270.473 5.45175 268.928 5.45175C266.751 5.45175 265.045 6.10357 263.809 7.4072C262.573 8.71082 261.836 10.4701 261.597 12.685Z" fill="#0951FF"/>
<path d="M256.867 22.5199H259.058C259.226 22.5199 259.311 22.5958 259.311 22.7477V28.3672C259.311 28.5191 259.226 28.595 259.058 28.595H257.689C257.52 28.595 257.436 28.5191 257.436 28.3672L257.351 24.0007H230.174C230.02 24.0007 229.942 23.9248 229.942 23.7729L229.985 14.793L229.942 4.67411C229.942 4.52223 230.02 4.44629 230.174 4.44629H231.838C232.007 4.44629 232.091 4.52223 232.091 4.67411L232.028 14.793L232.091 22.5199H242.33L242.372 14.793L242.33 4.67411C242.33 4.52223 242.414 4.44629 242.583 4.44629H244.226C244.395 4.44629 244.479 4.52223 244.479 4.67411L244.416 14.793L244.479 22.5199H254.718L254.76 14.793L254.718 4.67411C254.718 4.52223 254.802 4.44629 254.971 4.44629H256.614C256.783 4.44629 256.867 4.52223 256.867 4.67411L256.825 14.793L256.867 22.5199Z" fill="#0951FF"/>
<path d="M218.59 24.3986C216.442 24.3986 214.637 23.9747 213.176 23.1267C211.729 22.266 210.634 21.0826 209.89 19.5765C209.145 18.0577 208.773 16.2921 208.773 14.2797C208.773 12.28 209.159 10.5144 209.932 8.98294C210.704 7.43884 211.8 6.23013 213.218 5.35683C214.651 4.48353 216.35 4.04688 218.317 4.04688C221.196 4.04688 223.457 4.90752 225.1 6.62882C226.744 8.35011 227.586 10.7738 227.629 13.9C227.629 14.0519 227.544 14.1278 227.376 14.1278H210.901C210.915 17.0768 211.582 19.2917 212.902 20.7725C214.222 22.2534 216.119 22.9938 218.59 22.9938C220.585 22.9938 222.144 22.4875 223.268 21.475C224.391 20.4498 225.121 19.0512 225.459 17.2793C225.473 17.1401 225.557 17.0705 225.711 17.0705H227.249C227.446 17.0705 227.53 17.1464 227.502 17.2983C227.249 18.7665 226.751 20.0321 226.006 21.0953C225.276 22.1458 224.293 22.9621 223.057 23.5443C221.821 24.1139 220.332 24.3986 218.59 24.3986ZM210.985 12.685H225.374C225.36 11.3434 225.086 10.1284 224.553 9.03989C224.033 7.93877 223.246 7.06547 222.193 6.41998C221.154 5.7745 219.862 5.45175 218.317 5.45175C216.14 5.45175 214.433 6.10357 213.197 7.4072C211.961 8.71082 211.224 10.4701 210.985 12.685Z" fill="#0951FF"/>
<path d="M198.339 24.3986C196.26 24.3986 194.512 23.981 193.093 23.1456C191.689 22.2977 190.621 21.1206 189.891 19.6145C189.175 18.0957 188.816 16.3174 188.816 14.2797C188.816 12.242 189.175 10.4574 189.891 8.92598C190.621 7.39454 191.696 6.19849 193.114 5.33784C194.547 4.4772 196.302 4.04688 198.381 4.04688C201.008 4.04688 203.065 4.67338 204.554 5.92638C206.057 7.16672 206.914 8.80575 207.124 10.8435C207.152 10.9953 207.075 11.0713 206.892 11.0713H205.439C205.284 11.0713 205.193 11.0017 205.165 10.8624C204.898 9.14114 204.182 7.81221 203.016 6.87562C201.85 5.93903 200.305 5.47074 198.381 5.47074C195.867 5.47074 193.999 6.27443 192.777 7.88182C191.569 9.47654 190.965 11.6092 190.965 14.2797C190.965 16.9503 191.569 19.0702 192.777 20.6396C193.985 22.1964 195.839 22.9811 198.339 22.9938C200.46 22.9938 202.124 22.4622 203.332 21.399C204.554 20.3232 205.249 18.8614 205.418 17.0135C205.446 16.8743 205.537 16.8047 205.692 16.8047H207.166C207.335 16.8047 207.412 16.868 207.398 16.9945C207.272 18.4247 206.843 19.6967 206.113 20.8105C205.383 21.9243 204.364 22.8039 203.058 23.4494C201.766 24.0822 200.193 24.3986 198.339 24.3986Z" fill="#0951FF"/>
<path d="M177.482 24.3986C175.389 24.3986 173.619 23.9747 172.173 23.1267C170.74 22.2787 169.652 21.0953 168.907 19.5765C168.163 18.0577 167.791 16.2795 167.791 14.2417C167.791 12.2167 168.163 10.4384 168.907 8.907C169.652 7.37555 170.74 6.18583 172.173 5.33784C173.619 4.4772 175.389 4.04688 177.482 4.04688C179.56 4.04688 181.323 4.4772 182.77 5.33784C184.216 6.18583 185.312 7.37555 186.056 8.907C186.801 10.4258 187.173 12.1977 187.173 14.2228C187.173 16.2605 186.801 18.045 186.056 19.5765C185.312 21.0953 184.216 22.2787 182.77 23.1267C181.323 23.9747 179.56 24.3986 177.482 24.3986ZM177.482 22.9938C180.01 22.9938 181.899 22.2027 183.149 20.6207C184.399 19.0259 185.024 16.8996 185.024 14.2417C185.024 11.5965 184.392 9.47022 183.128 7.86283C181.878 6.25545 179.996 5.45175 177.482 5.45175C174.968 5.46441 173.079 6.2681 171.814 7.86283C170.55 9.4449 169.918 11.5775 169.918 14.2607C169.918 16.9186 170.55 19.0386 171.814 20.6207C173.093 22.2027 174.982 22.9938 177.482 22.9938Z" fill="#0951FF"/>
<path d="M165.243 4.44629C165.397 4.44629 165.475 4.52223 165.475 4.67411L165.433 13.6539L165.475 23.7729C165.475 23.9248 165.397 24.0007 165.243 24.0007H163.579C163.41 24.0007 163.326 23.9248 163.326 23.7729L163.389 13.6539L163.347 5.92711H151.359L151.296 13.6539L151.359 23.7729C151.359 23.9248 151.275 24.0007 151.107 24.0007H149.442C149.288 24.0007 149.21 23.9248 149.21 23.7729L149.253 13.6539L149.21 4.67411C149.21 4.52223 149.288 4.44629 149.442 4.44629H165.243Z" fill="#0951FF"/>
<path d="M137.816 4.67392C137.816 4.52204 137.894 4.4461 138.048 4.4461H139.67C139.839 4.4461 139.923 4.52204 139.923 4.67392L139.818 13.8626L139.923 23.7727C139.923 23.9246 139.839 24.0005 139.67 24.0005H138.048C137.894 24.0005 137.816 23.9246 137.816 23.7727L137.901 19.9378C137.24 21.292 136.299 22.3678 135.077 23.1652C133.856 23.9499 132.36 24.3422 130.59 24.3422C128.708 24.3422 127.121 23.8993 125.829 23.0133C124.537 22.1147 123.56 20.8997 122.9 19.3682C122.24 17.8368 121.91 16.1281 121.91 14.2423C121.91 12.3691 122.247 10.6668 122.921 9.13537C123.596 7.59126 124.579 6.36357 125.871 5.4523C127.163 4.52837 128.743 4.06641 130.611 4.06641C134.08 4.06641 136.51 5.51558 137.901 8.41394L137.816 4.67392ZM131.011 22.9374C133.104 22.9374 134.783 22.2286 136.047 20.8111C137.325 19.3809 137.971 17.2482 137.985 14.4132C138.013 11.6034 137.416 9.41381 136.194 7.8444C134.972 6.27498 133.259 5.48394 131.054 5.47129C129.438 5.47129 128.111 5.85731 127.072 6.62936C126.032 7.38876 125.26 8.42027 124.754 9.7239C124.263 11.0149 124.017 12.4514 124.017 14.0335C124.017 15.6662 124.263 17.1596 124.754 18.5139C125.246 19.8681 126.004 20.9439 127.03 21.7413C128.069 22.5387 129.396 22.9374 131.011 22.9374Z" fill="#0951FF"/>
<path d="M102.529 24.1905C102.346 24.1905 102.171 24.1779 102.002 24.1526C101.834 24.1399 101.672 24.1146 101.518 24.0766C101.377 24.064 101.307 23.988 101.307 23.8488V22.8806C101.307 22.7161 101.398 22.6464 101.581 22.6718C101.707 22.6971 101.834 22.7161 101.96 22.7287C102.087 22.7414 102.206 22.7477 102.318 22.7477C103.189 22.7477 103.793 22.4629 104.13 21.8934C104.481 21.3112 104.727 20.2417 104.868 18.6849C104.938 18.0015 105.008 17.1092 105.078 16.0081C105.148 14.8943 105.212 13.6856 105.268 12.382C105.338 11.0657 105.401 9.74307 105.457 8.41413C105.528 7.07253 105.584 5.81953 105.626 4.65512C105.626 4.5159 105.703 4.44629 105.858 4.44629H119.257C119.425 4.44629 119.51 4.5159 119.51 4.65512L119.531 13.6919L119.657 23.7729C119.657 23.9248 119.573 24.0007 119.404 24.0007H117.761C117.592 24.0007 117.508 23.9311 117.508 23.7919L117.487 13.6919L117.382 5.88914H107.459C107.417 6.71182 107.368 7.6927 107.311 8.83179C107.269 9.95823 107.213 11.1353 107.143 12.363C107.087 13.578 107.023 14.7234 106.953 15.7992C106.897 16.875 106.841 17.78 106.785 18.5141C106.672 19.805 106.49 20.8682 106.237 21.7035C105.984 22.5389 105.57 23.1654 104.994 23.583C104.418 23.988 103.596 24.1905 102.529 24.1905Z" fill="#0951FF"/>
<path d="M82.9686 24.0007C82.8001 24.0007 82.7158 23.9248 82.7158 23.7729L82.758 13.616L82.7158 4.67411C82.7158 4.52223 82.7931 4.44629 82.9476 4.44629H84.6119C84.7664 4.44629 84.8437 4.52223 84.8437 4.67411L84.8015 13.635L84.7805 21.9124L96.8522 4.59817C96.9084 4.49692 97.0067 4.44629 97.1472 4.44629H99.2329C99.4014 4.44629 99.4857 4.52223 99.4857 4.67411L99.4225 13.6539L99.4857 23.7729C99.4857 23.9248 99.4014 24.0007 99.2329 24.0007H97.5896C97.4351 24.0007 97.3579 23.9248 97.3579 23.7729L97.4 13.6919L97.4211 6.62955L85.4336 23.8488C85.3774 23.9501 85.2791 24.0007 85.1386 24.0007H82.9686Z" fill="#0951FF"/>
<path d="M75.4921 13.4641V13.5021C77.3601 13.8691 78.6874 14.4703 79.4739 15.3056C80.2604 16.1283 80.6537 17.1851 80.6537 18.4761C80.6537 19.476 80.429 20.3303 79.9795 21.0391C79.5441 21.7478 78.9402 22.3237 78.1677 22.7667C77.3952 23.197 76.5034 23.5134 75.4921 23.7159C74.4809 23.9058 73.4064 24.0007 72.2688 24.0007H64.3895C64.235 24.0007 64.1577 23.9248 64.1577 23.7729L64.1998 13.6539L64.1788 4.67411C64.1788 4.52223 64.2631 4.44629 64.4316 4.44629H72.2898C74.7056 4.44629 76.5947 4.8513 77.957 5.66132C79.3194 6.47134 80.0006 7.66739 80.0006 9.24946C80.0006 10.4518 79.6003 11.3884 78.7997 12.0592C77.9992 12.73 76.8966 13.1983 75.4921 13.4641ZM72.2266 5.87015H66.2855L66.2434 12.8566H72.2477C73.9893 12.8566 75.3657 12.5971 76.377 12.0782C77.3882 11.5593 77.8938 10.6543 77.8938 9.36337C77.8938 8.21162 77.3812 7.34465 76.3559 6.76244C75.3306 6.16758 73.9542 5.87015 72.2266 5.87015ZM66.2434 22.5768H72.2266C74.1227 22.5768 75.6466 22.2478 76.7983 21.5896C77.9641 20.9188 78.5469 19.8304 78.5469 18.3242C78.5469 17.375 78.252 16.6029 77.6621 16.0081C77.0722 15.4006 76.2997 14.9576 75.3446 14.6791C74.3896 14.4007 73.3643 14.2615 72.2688 14.2615H66.2434V22.5768Z" fill="#0951FF"/>
<path d="M58.9354 4.67392C58.9354 4.52204 59.0126 4.4461 59.1671 4.4461H60.7893C60.9579 4.4461 61.0422 4.52204 61.0422 4.67392L60.9368 13.8626L61.0422 23.7727C61.0422 23.9246 60.9579 24.0005 60.7893 24.0005H59.1671C59.0126 24.0005 58.9354 23.9246 58.9354 23.7727L59.0197 19.9378C58.3595 21.292 57.4185 22.3678 56.1966 23.1652C54.9747 23.9499 53.4789 24.3422 51.7092 24.3422C49.8271 24.3422 48.24 23.8993 46.9479 23.0133C45.6557 22.1147 44.6796 20.8997 44.0195 19.3682C43.3594 17.8368 43.0293 16.1281 43.0293 14.2423C43.0293 12.3691 43.3664 10.6668 44.0405 9.13537C44.7147 7.59126 45.6979 6.36357 46.99 5.4523C48.2822 4.52837 49.8622 4.06641 51.7302 4.06641C55.1994 4.06641 57.6292 5.51558 59.0197 8.41394L58.9354 4.67392ZM52.1305 22.9374C54.2233 22.9374 55.9016 22.2286 57.1657 20.8111C58.4438 19.3809 59.0899 17.2482 59.1039 14.4132C59.132 11.6034 58.5351 9.41381 57.3132 7.8444C56.0913 6.27498 54.3778 5.48394 52.1727 5.47129C50.5575 5.47129 49.2302 5.85731 48.1909 6.62936C47.1515 7.38876 46.3791 8.42027 45.8734 9.7239C45.3819 11.0149 45.1361 12.4514 45.1361 14.0335C45.1361 15.6662 45.3819 17.1596 45.8734 18.5139C46.365 19.8681 47.1235 20.9439 48.1487 21.7413C49.1881 22.5387 50.5153 22.9374 52.1305 22.9374Z" fill="#0951FF"/>
<path d="M32.6923 4.02832C34.5743 4.02832 36.1614 4.47763 37.4536 5.37625C38.7457 6.27486 39.7219 7.48989 40.382 9.02134C41.0421 10.5528 41.3722 12.2678 41.3722 14.1662C41.3722 16.0394 41.0351 17.748 40.3609 19.2921C39.6868 20.8363 38.7036 22.0703 37.4114 22.9942C36.1193 23.9181 34.5392 24.3801 32.6712 24.3801C29.2442 24.3801 26.8425 22.9626 25.4661 20.1275L25.5293 30.2274C25.5293 30.3793 25.445 30.4552 25.2765 30.4552H23.6121C23.4576 30.4552 23.3804 30.3793 23.3804 30.2274L23.4646 14.9636L23.3804 4.67381C23.3804 4.52193 23.4576 4.44599 23.6121 4.44599H25.2343C25.4029 4.44599 25.4871 4.52193 25.4871 4.67381L25.3818 8.50875C26.056 7.12918 27.011 6.04072 28.247 5.24335C29.497 4.43333 30.9788 4.02832 32.6923 4.02832ZM32.2288 22.9562C33.858 22.9562 35.1853 22.5702 36.2106 21.7982C37.2499 21.0261 38.0154 19.9946 38.507 18.7036C39.0126 17.4 39.2654 15.9571 39.2654 14.3751C39.2654 12.7297 39.0196 11.2362 38.528 9.89464C38.0364 8.54039 37.278 7.46458 36.2527 6.66722C35.2274 5.8572 33.9002 5.45218 32.2709 5.45218C30.1923 5.45218 28.5139 6.17361 27.2358 7.61646C25.9717 9.04665 25.3256 11.173 25.2975 13.9954C25.2835 16.8178 25.8804 19.02 27.0883 20.6021C28.3102 22.1715 30.0237 22.9562 32.2288 22.9562Z" fill="#0951FF"/>
<path d="M20.0325 4.44629C20.187 4.44629 20.2642 4.52223 20.2642 4.67411L20.2221 13.6539L20.2642 23.7729C20.2642 23.9248 20.187 24.0007 20.0325 24.0007H18.3682C18.1996 24.0007 18.1153 23.9248 18.1153 23.7729L18.1785 13.6539L18.1364 5.92711H6.1489L6.0857 13.6539L6.1489 23.7729C6.1489 23.9248 6.06463 24.0007 5.89609 24.0007H4.23174C4.07725 24.0007 4 23.9248 4 23.7729L4.04214 13.6539L4 4.67411C4 4.52223 4.07725 4.44629 4.23174 4.44629H20.0325Z" fill="#0951FF"/>
<defs>
<filter id="filter0_f_289_5522" x="0" y="0.0283203" width="443.595" height="34.4268" filterUnits="userSpaceOnUse" color-interpolation-filters="sRGB">
<feFlood flood-opacity="0" result="BackgroundImageFix"/>
<feBlend mode="normal" in="SourceGraphic" in2="BackgroundImageFix" result="shape"/>
<feGaussianBlur stdDeviation="2" result="effect1_foregroundBlur_289_5522"/>
</filter>
</defs>
</svg>
