<svg width="558" height="642" viewBox="0 0 558 642" fill="none" xmlns="http://www.w3.org/2000/svg">
<path d="M551.507 227.985C550.875 224.822 549.456 221.812 548.397 218.728C547.632 215.505 546.866 212.282 546.1 209.053C545.86 208.48 545.627 207.907 545.387 207.335C544.975 204.951 544.941 202.42 544.096 200.209C537.783 183.694 531.423 167.199 524.824 150.804C522.866 145.943 520.096 141.408 517.692 136.72C517.619 137.2 517.632 137.726 517.532 138.185C517.639 137.719 517.619 137.2 517.692 136.72C517.752 136.354 517.625 136.068 517.326 135.861C516.913 135.009 516.5 134.15 516.087 133.297C507.257 112.108 494.478 93.5885 478.296 77.3599C477.663 76.4942 477.097 75.562 476.385 74.7628C470.425 68.0836 464.451 61.4111 458.438 54.7719C457.426 53.6531 456.214 52.7142 455.089 51.6953C455.022 55.7441 454.955 59.7863 454.889 63.8351L454.989 63.9216C455.781 64.9205 456.567 65.9127 457.359 66.9116C461.022 70.8472 464.684 74.7762 468.347 78.7118C470.771 78.3855 473.195 78.0525 475.626 77.7262C473.202 78.0592 470.778 78.3855 468.354 78.7184C474.061 85.3843 479.921 91.9237 485.428 98.7494C493.459 108.698 500.231 119.466 505.712 131.047C508.902 137.779 512.404 144.358 515.767 151.011C517.745 155.905 519.583 160.867 521.727 165.688C532.076 188.955 539.194 213.235 544.575 238.054C545.554 242.575 546.12 247.183 546.873 251.758C546.833 277.589 546.786 303.42 546.773 329.258C546.773 330.111 547.132 330.97 547.319 331.822C547.152 333.986 546.986 336.15 546.813 338.315C546.526 340.426 546.247 342.543 545.96 344.654C545.834 346.033 545.714 347.405 545.587 348.783C543.736 359.191 541.985 369.62 540.007 380.008C536.904 396.277 533.741 412.538 530.378 428.754C529.392 433.502 527.887 438.176 523.079 440.827C518.944 443.104 516.613 443.184 513.716 439.721C511.805 437.444 510.047 434.607 509.428 431.757C507.19 421.388 505.492 410.907 503.508 400.485C503.228 399.027 502.489 397.662 501.963 396.257C501.843 395.524 501.723 394.792 501.603 394.052C500.571 390.67 499.292 387.327 498.373 383.924C499.286 387.327 500.571 390.67 501.603 394.052C500.751 387.533 500.311 380.934 498.979 374.514C494.957 355.076 490.516 335.724 486.387 316.313C483.583 303.134 481.206 289.862 478.303 276.704C476.205 267.194 473.035 257.991 468.061 249.541C466.969 247.689 465.437 246.091 464.105 244.38C463.952 243.994 463.672 243.747 463.273 243.634L463.346 243.188L462.926 243.281C462.926 243.281 463.273 243.634 463.279 243.641L462.933 243.288C462.66 242.948 462.394 242.602 462.121 242.262L462.174 241.743L461.661 241.783C460.742 241.123 459.823 240.464 458.904 239.805C458.538 239.645 458.172 239.485 457.805 239.325C458.012 239.585 458.272 239.738 458.578 239.792C458.272 239.745 458.012 239.585 457.805 239.325L456.573 238.426C452.851 236.096 452.531 236.149 449.681 239.505L449.235 239.798C446.918 240.051 444.827 240.557 445.226 243.647C445.293 243.581 445.359 243.521 445.426 243.454L445.226 243.647C444.833 244.213 444.44 244.779 444.048 245.345C440.079 251.951 440.844 259.197 441.197 266.389C441.097 268.519 440.991 270.65 440.891 272.781C440.438 274.606 439.779 276.404 439.573 278.255C438.96 283.669 438.434 289.096 438.068 294.53C437.775 298.872 437.755 303.227 437.615 307.582C437.548 308.089 437.482 308.588 437.415 309.094C437.435 323.039 437.308 336.99 437.488 350.927C437.308 336.99 437.435 323.039 437.408 309.094C437.109 311.458 436.636 313.815 436.543 316.193C436.043 328.772 436.196 341.411 435.071 353.931C433.486 371.624 428.625 388.672 421.979 405.107C418.769 413.044 414.527 420.569 410.751 428.287C409.866 428.927 408.927 429.513 408.094 430.212C402.148 435.233 395.861 434.56 392.305 427.755C389.808 422.973 388.35 417.606 386.798 412.392C384.734 405.44 383.029 398.381 381.171 391.362C380.812 394.439 380.452 397.522 380.092 400.598C378.707 400.552 377.668 400.911 376.943 401.657C377.668 400.911 378.707 400.545 380.092 400.592C380.452 397.515 380.812 394.432 381.171 391.355C380.965 390.53 380.765 389.697 380.559 388.872C380.472 387.986 380.392 387.107 380.305 386.221C379.706 381.373 379.107 376.525 378.507 371.677C378.421 374.288 378.321 376.898 378.234 379.509C378.314 376.898 378.421 374.288 378.507 371.677C378.408 370.738 378.301 369.806 378.201 368.867C377.735 368.108 376.983 367.356 376.63 366.596C376.989 367.356 377.735 368.108 378.208 368.867C378.581 364.113 379.44 359.311 376.756 354.876C376.696 354.277 376.643 353.684 376.583 353.085C376.403 349.902 376.223 346.725 376.044 343.542C375.99 342.637 375.944 341.731 375.89 340.825C375.331 339.953 374.459 339.114 374.019 338.235C374.459 339.114 375.338 339.96 375.89 340.825C375.364 330.224 374.998 319.609 374.266 309.021C373.307 295.11 372.514 281.159 370.816 267.334C368.286 246.697 365.202 226.12 361.999 205.57C360.401 195.308 358.343 185.086 355.906 174.991C353.888 166.613 351.504 158.243 348.335 150.252C346.35 145.251 343.2 140.383 339.511 136.447C331.66 128.063 322.79 128.203 313.8 135.954C315.258 135.621 316.743 135.382 318.202 135.055C316.743 135.388 315.258 135.628 313.8 135.954L313.747 135.988C313.214 136.367 312.688 136.747 312.155 137.126C311.369 137.672 310.583 138.212 309.798 138.758C308.752 139.517 307.707 140.27 306.661 141.029C305.895 141.588 305.136 142.147 304.37 142.707C302.865 143.892 301.36 145.078 299.855 146.27C299.456 146.276 299.176 146.456 299.003 146.816C298.604 147.155 298.197 147.495 297.798 147.834L297.685 147.948C296.033 149.26 294.382 150.571 292.73 151.877L292.384 152.116C291.765 152.303 291.005 152.323 290.539 152.702C279.185 161.852 267.858 171.035 256.564 180.258C255.938 180.764 255.698 181.737 255.272 182.496L255.145 182.602C253.181 184.247 251.217 185.885 249.252 187.53C248.859 187.53 248.613 187.717 248.5 188.096C248.127 190.294 247.068 191.805 245.323 192.618C247.068 191.805 248.127 190.294 248.5 188.089C246.781 189.794 245.063 191.492 243.352 193.197L243.225 193.304C241.92 194.595 240.608 195.881 239.303 197.173C233.563 203.399 227.749 209.552 222.129 215.878C219.978 218.296 218.267 221.112 216.356 223.743C215.816 224.542 215.277 225.334 214.737 226.134C214.398 226.64 214.058 227.139 213.718 227.645C213.186 228.471 212.66 229.29 212.127 230.116L211.887 230.003C212.507 233.545 213.126 237.088 213.745 240.631C222.648 229.596 231.552 218.562 240.462 207.528C245.876 202.353 250.983 196.813 256.75 192.065C274.464 177.481 292.357 163.111 310.37 148.893C313.58 146.356 317.596 144.751 321.405 143.093C324.641 141.688 327.904 142.187 330.721 144.545C333.411 146.796 336.115 149.04 338.812 151.291C344.366 162.871 347.582 175.151 349.926 187.71C351.012 193.523 352.39 199.277 353.635 205.064C353.695 205.537 353.755 206.009 353.822 206.482C354.062 207.774 354.295 209.073 354.534 210.365C354.687 211.297 354.841 212.236 354.994 213.168C355.22 214.893 355.447 216.618 355.673 218.336C355.953 219.694 356.239 221.053 356.519 222.411C356.612 223.257 356.705 224.102 356.798 224.948C357.471 229.523 358.35 234.071 358.776 238.666C361.127 263.778 363.431 288.89 365.615 314.015C367.666 337.596 369.358 361.209 371.629 384.763C372.254 391.289 374.392 397.662 375.837 404.108C375.93 403.495 376.09 402.969 376.31 402.516C376.084 402.969 375.93 403.495 375.837 404.101C376.943 409.042 377.981 414.003 379.16 418.931C381.224 427.542 383.309 436.105 380.425 444.982C378.454 451.062 376.749 457.222 374.918 463.348C374.092 465.805 372.834 468.209 372.541 470.72C371.968 475.628 374.858 478.878 378.741 481.381C382.317 483.685 384.96 481.421 387.537 479.417C388.869 478.378 389.921 476.986 391.1 475.748C396.048 471.712 399.138 466.378 401.708 460.671C405.777 453.905 410.165 447.306 413.848 440.334C420.014 428.667 426.394 417.027 431.428 404.86C435.171 395.81 436.942 385.941 439.586 376.432C440.045 375.733 440.811 375.074 440.924 374.321C441.957 367.569 442.875 360.796 443.828 354.024C443.941 353.171 444.054 352.312 444.174 351.46C444.321 348.876 444.467 346.292 444.614 343.715C445.08 342.75 445.959 341.784 445.959 340.812C445.979 327.953 445.872 315.094 445.799 302.228C446.065 298.659 446.338 295.09 446.611 291.527C447.011 288.431 447.41 285.334 447.803 282.237C447.903 280.919 447.996 279.6 448.096 278.289C449.049 275.219 449.495 271.869 451.046 269.145C454.229 263.558 459.157 263.092 463.965 267.387C465.257 268.539 466.609 269.625 467.934 270.744C470.072 280.446 472.183 290.155 474.367 299.844C476.258 308.215 478.236 316.566 480.174 324.93C480.32 326.215 480.467 327.507 480.613 328.792C481.02 330.097 481.432 331.402 481.839 332.708C483.863 342.49 485.887 352.272 487.912 362.055C487.938 362.934 487.852 363.84 488.005 364.699C491.834 385.509 495.796 406.292 499.486 427.129C501.33 437.544 503.707 448.012 503.974 458.507C504.2 467.617 501.796 476.787 500.551 485.93C494.191 508.917 485.395 530.953 474.48 552.149C472.276 556.431 470.092 560.726 467.901 565.021C466.642 567.046 465.384 569.063 464.118 571.088C463.106 572.479 461.934 573.785 461.108 575.283C457.213 582.302 453.417 589.367 449.581 596.413C446.804 602.586 444.021 608.759 441.244 614.932C440.458 617.176 439.672 619.414 438.887 621.658C438.447 625.26 437.149 629.023 437.781 632.426C438.567 636.654 442.143 639.971 446.238 640.89C449.861 641.702 453.364 639.544 455.641 636.228C452.565 633.771 452.631 632.945 456.061 630.888C456.673 631.873 457.279 632.859 457.892 633.844C459.111 632.666 460.689 631.693 461.488 630.282C465.104 623.922 468.493 617.443 471.97 611.003C471.757 611.036 471.537 611.063 471.324 611.096C471.537 611.063 471.757 611.043 471.97 611.003C475.286 604.863 478.602 598.73 481.918 592.59C485.355 586.724 488.991 580.963 492.174 574.963C497.002 565.854 501.517 556.577 506.165 547.368C511.998 538.837 515.168 529.168 518.131 519.406C518.691 518.513 519.55 517.687 519.776 516.715C522.919 503.25 526.036 489.772 529.026 476.267C529.778 472.858 530.058 469.335 530.551 465.865C532.708 456.562 534.873 447.253 537.03 437.943C537.117 437.497 537.197 437.044 537.283 436.598C537.356 435.539 537.423 434.474 537.496 433.415C538.289 431.697 539.454 430.045 539.814 428.241C542.797 413.364 545.774 398.481 548.451 383.551C549.882 375.56 550.715 367.462 551.82 359.411C555.21 345.347 556.555 331.016 556.915 316.619C557.234 303.76 556.588 290.874 557.081 278.029C557.734 261.015 554.797 244.48 551.494 227.965L551.507 227.985ZM516.074 142.187C516.04 142.307 516.014 142.427 515.987 142.554C516.014 142.434 516.047 142.307 516.074 142.187ZM380.072 388.812H380.039C380.039 388.812 380.052 388.812 380.072 388.812ZM252.096 187.15C251.783 187.277 251.45 187.377 251.083 187.437C251.45 187.37 251.783 187.277 252.096 187.15C252.562 186.957 252.975 186.704 253.328 186.378C252.968 186.698 252.562 186.957 252.096 187.15ZM296.812 150.618C296.772 150.665 296.726 150.711 296.679 150.751C296.726 150.705 296.772 150.665 296.812 150.618ZM295.88 151.344C295.88 151.344 295.827 151.364 295.807 151.377C295.833 151.364 295.86 151.357 295.88 151.344ZM302.093 146.15C301.847 146.223 301.58 146.276 301.294 146.296C301.58 146.27 301.847 146.223 302.093 146.15C302.586 145.997 302.999 145.75 303.332 145.397C302.999 145.743 302.586 145.997 302.093 146.15ZM396.174 437.997C392.572 434.853 390.574 430.745 388.789 426.543C390.581 430.751 392.572 434.853 396.174 437.997C396.607 440.101 397.127 442.192 397.52 444.296C397.133 442.185 396.607 440.094 396.174 437.997ZM443.022 259.376C442.895 261.015 442.762 262.646 442.616 264.278C442.762 262.646 442.895 261.008 443.022 259.376ZM440.332 298.486C440.525 297.727 440.711 296.961 440.864 296.189C440.705 296.961 440.525 297.72 440.332 298.486ZM468.154 566.273C468.034 566.147 467.987 565.94 467.967 565.714C467.987 565.94 468.027 566.147 468.154 566.273ZM548.011 251.858C548.298 250.233 548.817 248.608 548.93 246.977C548.817 248.602 548.304 250.233 548.018 251.858C548.178 271.543 548.318 291.234 548.511 310.919C548.537 313.782 548.817 316.639 548.977 319.502C550.948 323.052 551.261 325.516 549.876 328.259C551.261 325.516 550.948 323.045 548.977 319.502C548.817 316.639 548.537 313.782 548.511 310.919C548.318 291.234 548.178 271.543 548.018 251.851L548.011 251.858ZM546.753 354.07C546.46 352.739 546.167 351.407 545.88 350.075C546.173 351.407 546.466 352.739 546.759 354.07C549.536 353.977 550.036 356.048 550.841 357.826C550.036 356.048 549.543 353.977 546.759 354.07H546.753Z" fill="#11FFE2"/>
<path d="M441.537 46.8815C445.539 52.8348 450.413 58.2088 454.888 63.8359C454.955 59.787 455.022 55.7449 455.088 51.6961C454.855 51.3165 454.622 50.9436 454.389 50.564C454.116 50.1845 453.843 49.7982 453.57 49.4186C445.852 37.805 439.246 25.279 427.133 17.2812C423.823 18.3467 420.514 19.4055 417.197 20.471C427.226 27.5098 434.751 36.7928 441.537 46.8815Z" fill="#11FFE2"/>
<path d="M201.672 243.595C196.864 251.22 192.556 259.164 188.034 266.975L188.167 267.235C187.455 268.254 186.736 269.273 186.023 270.292C185.477 271.45 184.924 272.609 184.378 273.768C184.019 274.374 183.652 274.973 183.286 275.579C178.638 285.794 173.324 295.77 169.495 306.291C163.928 321.594 159.44 337.283 154.485 352.813C155.224 351.827 156.183 350.928 156.836 349.916C156.176 350.928 155.224 351.834 154.485 352.813C154.165 353.891 153.846 354.977 153.526 356.056C153.206 356.695 152.893 357.341 152.574 357.98C150.776 362.049 148.985 366.111 147.187 370.18C147.013 373.916 145.895 377.771 147.286 381.314C145.895 377.771 147.013 373.922 147.18 370.186C144.43 375.154 141.726 380.149 138.916 385.09C136.638 389.099 134.401 393.141 131.844 396.97C128.414 402.104 124.412 403.622 120.223 401.811C115.096 399.594 113.178 395.458 114.143 389.352C114.656 386.129 114.769 382.839 115.062 379.583C114.29 380.428 113.524 381.281 112.752 382.126C113.518 381.281 114.29 380.428 115.062 379.583C115.109 378.178 115.149 376.772 115.196 375.367C115.662 367.729 116.135 360.084 116.601 352.446C116.88 345.095 117.16 337.743 117.446 330.391C117.533 328.979 117.62 327.561 117.706 326.149C117.493 324.697 117.067 323.212 116.854 321.761C117.067 323.212 117.5 324.697 117.706 326.149C118.032 325.13 118.525 324.138 118.672 323.092C120.476 310.207 121.489 297.195 125.324 284.649C126.35 281.299 126.663 277.737 127.309 274.274L127.329 274.214L127.349 270.331C127.375 267.681 127.602 265.091 128.128 262.56C128.394 261.295 128.727 260.043 129.153 258.804C128.727 260.043 128.388 261.295 128.128 262.56C127.602 265.091 127.375 267.681 127.349 270.331C127.342 271.623 127.335 272.922 127.329 274.214C127.782 272.902 128.234 271.583 128.687 270.272C129.453 268.7 130.419 267.188 130.958 265.544C136.205 249.608 140.035 233.166 147.899 218.17C161.431 199.111 174.982 180.066 188.48 160.98C190.871 157.598 193.042 154.062 195.319 150.599C205.654 139.884 215.883 129.063 226.378 118.508C230.52 114.339 235.235 110.75 239.69 106.901C245.237 103.012 250.571 98.7567 256.378 95.3073C265.581 89.84 275.103 84.9056 284.486 79.7447C285.199 79.3384 285.918 78.9322 286.631 78.526C287.343 78.1265 288.062 77.7336 288.775 77.334L288.908 77.5804L288.801 77.2941C290.007 76.3884 291.212 75.4894 292.417 74.5838C292.857 74.1842 293.303 73.7847 293.743 73.3851L293.789 73.3318C293.643 71.0544 294.781 68.7503 294.921 66.4662C294.788 68.7503 293.649 71.0544 293.789 73.3318C300.242 70.182 303.645 64.3086 307.074 58.4618C307.614 57.5428 308.087 56.5906 308.586 55.6583C312.908 50.7504 317.17 45.7893 321.578 40.9614C324.368 37.9048 327.385 35.048 330.295 32.1046C332.752 30.3466 335.21 28.5885 337.66 26.8305C338.539 26.2845 339.412 25.7317 340.291 25.1857C341.07 24.7795 341.849 24.3666 342.628 23.9604L342.994 23.7273C343.507 23.4476 344.013 23.1613 344.526 22.8816C353.103 20.0381 361.607 16.9749 370.264 14.3911C385.014 9.98935 399.105 13.1458 412.889 18.7595C414.321 19.3389 415.759 19.9049 417.191 20.4776C420.501 19.4188 423.81 18.3533 427.127 17.2878C425.042 15.7229 423.165 13.6719 420.834 12.6863C414.974 10.2091 408.914 8.21799 402.927 6.03377C401.182 1.57875 397.939 -0.126007 393.165 0.0604509C386.379 0.32016 379.553 0.426708 372.774 0.033814C366.734 -0.312465 362.719 1.99162 360.275 7.37227C359.129 7.69192 357.991 8.01156 356.845 8.3312C355.773 8.90389 354.701 9.46993 353.629 10.0426C344.433 13.4921 335.309 17.0748 327.951 23.9337C325.161 26.1246 322.364 28.3155 319.56 30.5131C314.959 35.6207 310.357 40.735 305.749 45.8559C301.687 51.3631 297.625 56.8702 293.563 62.3841C287.962 66.2065 282.528 70.3019 276.722 73.7847C270.142 77.7336 262.877 80.6037 256.551 84.8922C247.301 91.1586 238.631 98.2706 229.708 105.03C221.497 110.37 214.205 116.723 208.238 124.535C202.585 128.79 197.737 133.784 194.214 139.977C190.678 144.446 187.142 148.914 183.606 153.376C180.889 157.185 178.179 160.994 175.462 164.803C171.486 170.716 167.51 176.63 163.535 182.543C157.209 190.92 150.876 199.304 144.549 207.682C142.279 211.437 139.768 215.073 137.77 218.976C129.646 234.811 125.984 252.192 120.756 269.026C120.789 269.086 120.823 269.153 120.863 269.213C120.829 269.153 120.796 269.086 120.756 269.026C118.232 277.67 114.909 286.174 113.358 294.984C109.915 314.535 107.817 334.267 107.644 354.184C107.564 363.66 106.858 373.137 106.206 382.599C105.873 387.387 105.014 392.135 104.394 396.903C104.408 397.489 104.414 398.075 104.428 398.661C103.915 399.8 103.396 400.945 102.883 402.084C100.186 412.193 94.6986 420.956 89.551 429.886C88.6853 430.566 87.6465 431.112 86.9805 431.951C75.8064 445.955 61.3692 455.664 45.2272 462.823C34.1396 467.737 22.7124 471.933 11.2919 476.041C7.02996 477.573 4.24641 480.463 1.49615 483.64C-0.514932 485.964 -0.408384 488.274 1.2764 490.898C5.11211 496.851 10.6859 499.022 19.243 497.418C38.0952 493.881 56.195 488.168 72.4568 477.733C84.763 469.835 96.3034 460.972 104.674 448.659C113.617 436.719 122.561 424.785 131.504 412.845C131.477 412.839 131.451 412.832 131.424 412.819C131.804 412.333 132.183 411.847 132.563 411.354C138.962 402.803 145.269 394.2 148.898 383.991C149.63 383.192 150.649 382.519 151.056 381.587C155.218 372.078 159.792 362.702 163.249 352.932C168.409 338.375 172.758 323.539 177.453 308.815C181.149 300.398 184.625 291.874 188.594 283.59C192.283 275.899 196.491 268.454 200.474 260.902C203.583 256.008 206.693 251.113 209.803 246.218C210.036 245.832 210.263 245.439 210.489 245.053C210.755 244.687 211.028 244.327 211.295 243.961C212.054 242.942 212.82 241.923 213.579 240.904L213.732 240.638C213.113 237.095 212.493 233.553 211.874 230.003C208.438 234.525 204.662 238.827 201.646 243.608L201.672 243.595ZM234.462 107.334C234.249 107.327 234.029 107.314 233.823 107.287C234.036 107.314 234.249 107.327 234.462 107.334ZM232.211 106.888C232.132 106.854 232.058 106.834 231.978 106.801C232.052 106.834 232.132 106.861 232.211 106.888ZM146.334 209.04C146.061 208.7 145.715 208.387 145.289 208.088C145.715 208.381 146.061 208.7 146.334 209.04ZM123.253 282.212C123.686 281.293 124.119 280.367 124.552 279.448C124.119 280.374 123.686 281.293 123.253 282.212ZM96.7563 427.389C97.6353 426.916 98.521 426.444 99.4 425.971L96.7563 427.389ZM107.218 438.463C107.711 437.411 108.23 436.366 108.71 435.3C108.357 434.428 107.957 433.576 107.624 432.697C107.957 433.569 108.357 434.428 108.71 435.3C108.23 436.359 107.711 437.405 107.218 438.463Z" fill="#11FFE2"/>
<path d="M330.272 31.7737C332.73 30.0157 335.187 28.2576 337.637 26.4996C338.516 25.9535 339.389 25.4008 340.268 24.8548C341.047 24.4486 341.826 24.0357 342.605 23.6295L342.971 23.3964C343.484 23.1167 343.99 22.8304 344.503 22.5507C353.08 19.7072 361.584 16.644 370.241 14.0602C384.991 9.65843 399.082 12.8149 412.867 18.4286C414.298 19.008 415.737 19.574 417.168 20.1467C427.197 27.1922 434.722 36.4684 441.508 46.5572C445.51 52.5105 450.385 57.8845 454.86 63.5115L454.959 63.5981C455.752 64.597 456.538 65.5892 457.33 66.5881C460.993 70.5237 464.655 74.4526 468.318 78.3882C474.025 85.0541 479.885 91.5934 485.399 98.4191C493.43 108.368 500.202 119.136 505.683 130.716C508.873 137.449 512.375 144.028 515.738 150.681C517.716 155.575 519.554 160.536 521.698 165.358C532.047 188.625 539.165 212.904 544.546 237.723C545.525 242.245 546.091 246.86 546.843 251.428C546.803 277.259 546.757 303.09 546.744 328.928C546.744 329.78 547.103 330.639 547.29 331.492C547.123 333.656 546.957 335.82 546.783 337.978C546.497 340.089 546.217 342.206 545.931 344.324C545.805 345.703 545.685 347.074 545.558 348.453C543.707 358.861 541.962 369.29 539.978 379.678C536.875 395.946 533.711 412.208 530.349 428.423C529.363 433.171 527.858 437.846 523.05 440.497C518.915 442.774 516.584 442.854 513.687 439.391C511.776 437.114 510.018 434.277 509.399 431.427C507.161 421.058 505.463 410.577 503.479 400.155C503.199 398.697 502.46 397.331 501.934 395.92C501.814 395.187 501.694 394.455 501.581 393.722C500.728 387.203 500.289 380.604 498.957 374.184C494.935 354.746 490.493 335.394 486.364 315.982C483.561 302.804 481.184 289.532 478.28 276.373C476.182 266.864 473.013 257.661 468.038 249.21C466.946 247.359 465.414 245.761 464.083 244.05C463.929 243.663 463.65 243.41 463.25 243.304L463.323 242.858L462.904 242.951C462.631 242.611 462.358 242.265 462.092 241.925L462.145 241.406L461.632 241.446C460.713 240.787 459.794 240.127 458.882 239.468C458.516 239.308 458.149 239.148 457.783 238.989C457.37 238.689 456.964 238.389 456.558 238.09C452.835 235.759 452.516 235.812 449.665 239.168C449.665 239.168 449.219 239.468 449.219 239.461C446.902 239.714 444.811 240.221 445.21 243.31C444.817 243.876 444.425 244.442 444.032 245.009C440.063 251.614 440.822 258.86 441.182 266.052C441.082 268.183 440.975 270.314 440.875 272.444C440.422 274.269 439.763 276.067 439.557 277.918C438.944 283.332 438.418 288.76 438.052 294.193C437.759 298.535 437.739 302.89 437.599 307.246C437.532 307.752 437.466 308.251 437.399 308.757C437.099 311.128 436.627 313.485 436.533 315.863C436.034 328.442 436.187 341.081 435.062 353.6C433.477 371.294 428.616 388.342 421.97 404.777C418.76 412.714 414.518 420.239 410.742 427.957C409.857 428.597 408.918 429.183 408.085 429.888C402.139 434.909 395.852 434.237 392.296 427.431C389.799 422.65 388.341 417.282 386.789 412.068C384.725 405.116 383.02 398.057 381.162 391.039C380.956 390.206 380.749 389.38 380.549 388.555C380.463 387.669 380.383 386.79 380.296 385.904C379.697 381.056 379.098 376.208 378.498 371.361C378.398 370.422 378.292 369.489 378.192 368.55C378.565 363.796 379.424 358.994 376.74 354.559C376.68 353.96 376.627 353.367 376.567 352.775C376.387 349.592 376.208 346.415 376.028 343.232C375.975 342.326 375.928 341.421 375.875 340.515C375.349 329.914 374.982 319.299 374.25 308.711C373.291 294.799 372.498 280.848 370.8 267.024C368.27 246.387 365.187 225.81 361.983 205.26C360.385 194.998 358.328 184.776 355.89 174.681C353.873 166.303 351.489 157.933 348.319 149.942C346.334 144.94 343.185 140.073 339.495 136.137C331.644 127.753 322.774 127.893 313.784 135.644L313.731 135.677C313.198 136.057 312.672 136.437 312.139 136.816C311.353 137.362 310.568 137.902 309.782 138.448C308.736 139.207 307.691 139.959 306.645 140.718C305.88 141.278 305.12 141.837 304.355 142.397C302.85 143.582 301.345 144.767 299.84 145.959C299.44 145.966 299.16 146.146 298.987 146.505C298.588 146.845 298.182 147.185 297.782 147.524L297.669 147.637C296.017 148.949 294.366 150.261 292.714 151.566C292.714 151.566 292.368 151.813 292.368 151.806C291.749 151.993 290.99 152.013 290.523 152.392C279.169 161.542 267.842 170.725 256.548 179.948C255.922 180.454 255.682 181.426 255.256 182.185L255.13 182.292C253.165 183.937 251.201 185.575 249.236 187.22C248.843 187.22 248.597 187.406 248.484 187.786C246.766 189.491 245.048 191.189 243.336 192.893L243.21 193C241.904 194.292 240.593 195.577 239.287 196.869C233.547 203.095 227.734 209.249 222.113 215.575C219.962 217.992 218.251 220.809 216.346 223.439C215.807 224.238 215.268 225.038 214.728 225.83C214.389 226.336 214.049 226.836 213.709 227.342C213.177 228.167 212.651 228.986 212.118 229.812L211.878 229.699C208.442 234.214 204.666 238.522 201.649 243.304C196.835 250.929 192.533 258.88 188.005 266.691C188.005 266.691 188.131 266.951 188.138 266.951C187.425 267.976 186.706 268.995 185.987 270.014C185.441 271.173 184.888 272.331 184.342 273.497C183.983 274.103 183.616 274.702 183.25 275.308C178.602 285.523 173.288 295.499 169.459 306.02C163.892 321.323 159.403 337.012 154.449 352.542C154.129 353.62 153.81 354.706 153.49 355.785C153.177 356.424 152.857 357.07 152.538 357.709C150.74 361.778 148.948 365.84 147.15 369.909C144.4 374.883 141.69 379.878 138.886 384.812C136.609 388.821 134.371 392.863 131.814 396.692C128.385 401.826 124.383 403.345 120.194 401.533C115.066 399.316 113.148 395.181 114.114 389.074C114.627 385.851 114.74 382.561 115.033 379.298C115.08 377.893 115.12 376.488 115.166 375.083C115.632 367.445 116.105 359.8 116.571 352.162C116.851 344.81 117.131 337.458 117.417 330.107C117.504 328.688 117.59 327.276 117.677 325.858C118.003 324.839 118.496 323.847 118.642 322.801C120.447 309.916 121.459 296.904 125.295 284.358C126.32 281.008 126.633 277.452 127.279 273.983L127.299 273.923C127.752 272.611 128.205 271.292 128.658 269.981C129.424 268.409 130.389 266.897 130.929 265.253C136.176 249.317 140.005 232.875 147.87 217.879C161.401 198.82 174.953 179.775 188.451 160.689C190.842 157.307 193.019 153.771 195.29 150.308C205.625 139.593 215.854 128.772 226.349 118.217C230.491 114.048 235.205 110.459 239.66 106.61C245.207 102.721 250.541 98.4658 256.348 95.0163C265.551 89.5491 275.074 84.6146 284.457 79.4537C285.169 79.0475 285.889 78.6413 286.601 78.2351C287.314 77.8355 288.033 77.4426 288.745 77.0431L288.879 77.2895L288.772 77.0031C289.977 76.0975 291.183 75.1985 292.388 74.2928C292.827 73.8932 293.274 73.4937 293.713 73.0941L293.76 73.0409C300.213 69.8911 303.615 64.0176 307.045 58.1708C307.584 57.2519 308.057 56.2996 308.563 55.3673C312.885 50.4661 317.14 45.4983 321.549 40.6704C324.339 37.6138 327.356 34.757 330.266 31.8137L330.272 31.7737Z" fill="#11FFE2"/>
</svg>
